<svg width="203" height="97" viewBox="0 0 203 97" fill="none" xmlns="http://www.w3.org/2000/svg">
<path d="M2.69205 75.4301C4.63004 76.3721 7.02228 75.9527 8.83173 77.212C10.4228 78.3195 11.1803 80.3355 11.1453 82.2195C11.1279 83.1715 10.9082 84.1309 10.449 84.9708C10.2406 85.3504 9.98727 85.7038 9.68528 86.0149C9.44444 86.2625 8.91534 86.4853 8.76684 86.7665C8.11543 88.0059 9.41322 89.7232 10.3342 90.3964C11.7693 91.4454 13.7921 91.8237 15.4955 91.2762C17.4896 90.6353 18.9883 88.928 20.0815 87.222C20.7416 86.1916 21.292 85.0965 21.8261 83.9977C22.4613 82.6948 23.1613 80.9962 24.9758 81.5761C26.1987 81.9669 27.2981 82.9562 28.3676 83.6443C29.4557 84.3437 30.5576 85.0194 31.6745 85.6714C36.2118 88.322 40.9776 90.5831 45.9005 92.426C55.6366 96.0721 67.1198 98.9877 77.2777 95.2844C79.9419 94.3125 82.3029 92.7234 84.9173 91.6483C87.7912 90.4674 90.896 90.2371 93.9533 89.9024C99.0298 89.3449 103.672 87.8068 108.143 85.3566C117.238 80.3728 124.987 72.9052 135.039 69.7432C136.208 69.3748 137.411 69.0413 138.478 68.4216C139.474 67.843 140.248 67.0204 140.954 66.1207C142.674 63.9306 144.307 61.6695 145.981 59.4433C147.463 57.4709 149.127 55.7151 148.778 53.0931C148.409 50.3144 147.755 47.5618 147.338 44.7868C146.922 42.0105 146.578 39.2243 146.304 36.4306C147.809 36.3983 149.314 36.3572 150.819 36.3224C154.659 36.2328 158.506 36.2004 162.343 36.0374C163.919 35.9702 165.513 35.8271 167.028 35.3667C168.478 34.9249 169.812 34.1895 171.077 33.3682C173.946 31.5078 176.708 29.4608 179.487 27.4697C180.203 26.9558 180.918 26.4418 181.632 25.9242C182.148 25.5509 182.738 25.1974 183.163 24.7146C183.873 23.9095 183.605 23.0994 182.897 22.3976C182.829 22.3304 182.758 22.2619 182.689 22.1947C182.928 22.2258 183.169 22.2607 183.409 22.2905C186.087 22.6303 189.118 23.2736 191.739 22.3341C193.733 21.6186 195.128 19.9697 196.142 18.1778C197.471 15.8321 198.385 13.2326 199.424 10.7537C200.607 7.93143 201.792 5.10914 202.975 2.2856C203.048 2.11014 202.956 1.95583 202.768 1.93095C198.11 1.33861 193.431 2.25947 188.804 2.73234C176.599 3.97923 164.281 3.98171 152.078 2.77838C150.084 2.33911 148.052 2.01308 146.063 1.62234C146.012 1.61238 145.962 1.60243 145.911 1.59247C144.979 1.23159 144.02 0.911785 143.048 0.650461C142.022 0.202478 140.944 -0.126044 139.872 0.0469276C139.497 0.0270172 139.165 0.0830149 138.894 0.254742C138.748 0.253497 138.603 0.258479 138.461 0.273412C136.684 0.453849 136.605 2.31547 136.867 3.69675C137.202 5.46006 137.617 7.23955 138.077 8.99788C138.144 10.9292 138.164 12.863 138.094 14.7955C137.796 23.0608 135.747 31.1793 129.761 37.2084C126.469 40.5234 122.707 43.2922 119.761 46.952C117.123 50.231 115.044 53.9107 113.552 57.8392C109.918 55.5906 108.209 50.9627 109.538 46.8973C109.573 46.7927 109.496 46.6894 109.399 46.6583C103.286 44.6772 97.1467 42.7733 90.9272 41.1544C80.1416 38.347 69.044 36.3746 57.8616 36.5028C55.2273 36.5327 52.588 36.8687 49.9562 36.8263C48.4313 36.8015 46.9924 36.5364 45.6784 35.7338C44.9159 35.2671 44.146 34.6138 43.2225 34.5155C42.2791 34.4147 41.6165 34.9834 41.0736 35.689C40.2313 36.7828 39.4726 37.9525 38.6814 39.0824C36.8333 41.7181 34.9814 44.3525 33.1308 46.9856C33.0734 47.0665 33.1221 47.181 33.1982 47.2283C34.4785 48.0272 35.7576 48.8261 37.038 49.6237C34.7618 49.3773 32.4731 49.3126 30.187 49.4582C29.0676 49.5292 27.9507 49.6474 26.8414 49.8129C26.2037 49.9075 25.5573 50.0866 24.9171 50.1476C24.2233 50.2136 24.2994 50.0431 24.091 49.4159C23.1152 46.4742 20.6056 44.1272 17.6606 43.1927C14.5296 42.1984 11.2164 43.0658 8.66325 45.0394C2.61469 49.7133 2.26527 57.6277 2.44372 64.6685C1.12718 66.4318 -0.02335 68.449 0.000360105 70.7125C0.0253181 72.6364 0.900073 74.5577 2.69205 75.4301ZM138.431 0.659172C138.342 0.728858 138.259 0.799792 138.185 0.878189C138.084 0.862012 137.983 0.84459 137.882 0.827168C137.878 0.825924 137.874 0.828413 137.871 0.827168C138.04 0.738816 138.229 0.685304 138.431 0.659172ZM165.206 19.6176C164.104 20.7699 163.022 21.9421 161.878 23.0546C157.526 27.2831 152.059 30.8209 145.818 30.3194C145.742 29.0887 145.677 27.8567 145.629 26.6248C145.519 23.8261 145.428 21.0051 145.514 18.2039C145.554 16.9085 145.702 15.1925 146.917 14.4123C148.142 13.6246 149.697 14.2841 150.932 14.7097C155.807 16.3896 160.76 17.8343 165.769 19.0451C165.578 19.2343 165.389 19.4247 165.206 19.6176ZM134.567 44.0252C134.697 44.7693 134.83 45.5122 134.963 46.2551C135.123 47.1461 135.619 48.4453 134.672 49.0078C132.129 50.5209 129.432 51.8251 126.805 53.2014C129.26 49.3176 131.715 45.4326 134.169 41.5488C134.295 42.3751 134.423 43.2014 134.567 44.0252Z" fill="#C1CAD6"/>
</svg>
