<svg width="108" height="104" viewBox="0 0 108 104" fill="none" xmlns="http://www.w3.org/2000/svg">
<path d="M106.235 92.6897C105.615 89.5117 104.975 86.2543 104.776 83.0198C104.749 82.595 104.051 82.4346 103.979 82.9123C103.801 84.0915 103.217 84.7032 102.507 85.1879C102.532 84.9393 102.565 84.6908 102.616 84.4405C102.948 82.8207 104.335 80.6526 102.74 79.2213C101.52 78.1285 99.1192 78.481 97.6985 78.8547C95.7525 79.3676 93.9687 80.4834 92.6996 82.0433C91.1397 83.9611 90.5932 86.4217 89.3753 88.5316C89.0844 89.034 88.7054 89.5293 88.9646 90.1286C89.1144 90.4758 89.4176 90.6856 89.7437 90.8795C90.3905 92.2526 91.1361 93.7526 92.2061 94.6128C92.7507 95.0499 93.4012 95.2438 94.0569 95.4465C95.37 95.8519 96.4276 96.312 97.4588 97.2426C97.7866 97.537 98.2396 97.1704 98.0545 96.7844C97.7496 96.1463 97.3601 95.5064 96.8771 95.0429C98.3789 95.4483 99.9617 96.7015 101.476 96.5341C103.314 96.3314 103.79 94.648 103.633 93.0581C103.543 92.1609 103.353 91.2725 103.152 90.3842C104.083 90.9394 104.827 91.9053 105.424 93.0264C105.671 93.4935 106.327 93.1586 106.235 92.6897Z" fill="#C1CAD6"/>
<path d="M38.2073 97.1102C38.1633 97.0379 38.1157 96.9657 38.0698 96.8934C38.0681 96.8634 38.0505 96.837 38.0258 96.8229C36.2314 93.9903 33.5963 91.4873 30.2895 90.5972C28.7261 90.1759 27.0885 90.1477 25.5339 90.6184C22.9781 91.3939 20.9246 93.1742 18.0832 92.4832C17.7906 92.4127 17.4856 92.8182 17.7624 93.0332C18.5009 93.6061 19.1249 94.2512 19.5409 95.1043C20.3253 96.7154 19.3928 96.1354 18.3723 95.7917C16.4386 95.1413 14.7112 94.1736 13.1002 92.938C13.0984 92.9415 13.0949 92.9468 13.0931 92.9503C12.7882 92.8058 12.4251 93.2006 12.7194 93.4298C12.7406 93.4457 12.7617 93.4615 12.7829 93.4774C12.8375 93.5179 12.8939 93.5602 12.9503 93.6008C13.0808 93.6995 13.2095 93.7947 13.3417 93.8898C14.639 94.8699 15.8869 96.0456 15.8622 97.7747C15.834 99.6801 14.3552 100.775 12.9063 101.818C12.6049 102.035 12.8887 102.541 13.2024 102.324C15.4269 100.792 17.8276 99.2624 20.5015 98.9398C19.1778 99.6942 18.3035 101.083 18.2365 102.758C18.2277 102.985 18.4604 103.135 18.6684 103.086C24.055 101.776 32.373 104.062 36.3354 99.2606C36.658 99.0614 36.9541 98.7918 37.1744 98.5644C37.4441 98.2859 37.7297 97.9704 37.9042 97.6143C38.1263 97.6126 38.3501 97.3446 38.2073 97.1102Z" fill="#C1CAD6"/>
<path d="M96.782 47.319C96.3131 48.6727 95.8213 49.97 94.9541 51.0911C93.685 47.7879 91.5099 45.923 87.6409 45.7344C84.313 45.5705 81.0063 47.1833 79.5979 50.1851C79.0109 50.8567 78.4768 51.6498 77.7154 52.0094C77.2853 52.2139 77.5003 52.9084 77.9551 52.8925C78.1349 52.8855 78.8171 54.6904 79.025 54.9407C79.4393 55.4395 80.0333 55.7515 80.6061 56.0336C82.5944 57.0083 84.7783 57.7856 86.9023 58.4078C88.2737 58.8097 90.6074 59.6505 92.0492 59.0777C93.484 58.5066 93.5792 56.1922 93.7802 54.7433C94.5892 55.1011 95.1127 55.7339 95.3454 56.647C95.4776 57.0682 96.1104 56.9942 96.121 56.543C96.1932 53.4654 96.6321 50.4724 97.5364 47.5288C97.6897 47.0405 96.9459 46.8466 96.782 47.319Z" fill="#C1CAD6"/>
<path d="M3.97847 67.9544C4.00843 66.6835 4.23757 65.4902 4.82101 64.5772C5.03957 65.4603 5.26872 66.3398 5.59305 67.1824C6.16768 68.6718 7.3504 69.9656 9.08485 69.3257C10.5144 68.7987 11.3657 66.9726 12.5255 65.9397C12.3017 66.5707 12.2435 67.3163 12.2576 68.0214C12.2664 68.4497 12.8358 68.5749 12.9962 68.1642C13.5003 66.8721 14.2388 65.9891 15.2294 65.0407C15.7247 64.5666 16.2183 64.103 16.5074 63.4685C17.0767 62.2223 17.0679 60.5495 17.0291 59.0319C17.2336 58.7128 17.4098 58.3903 17.3869 58.0131C17.3481 57.3627 16.7859 57.0877 16.3011 56.7686C14.2618 55.4273 12.6648 53.4707 10.4086 52.4537C8.57192 51.627 6.47437 51.4243 4.50549 51.835C3.06717 52.1346 0.761629 52.8926 0.164091 54.4137C-0.618525 56.4038 1.59712 57.724 2.62298 59.0231C2.78162 59.224 2.92263 59.4302 3.0566 59.6418C2.20347 59.5272 1.40676 59.2399 0.717568 58.2651C0.439069 57.8703 -0.114414 58.3268 0.0530378 58.7164C1.33096 61.697 2.22639 64.8945 3.10243 68.0126C3.2311 68.4744 3.96613 68.4797 3.97847 67.9544Z" fill="#C1CAD6"/>
<path d="M37.3066 34.6456C37.3471 35.0404 37.504 35.4352 37.6609 35.7895C37.7878 36.0803 37.9711 36.4346 38.2055 36.7325C40.2484 42.6057 48.8466 43.3337 53.4419 46.4253C53.6181 46.5434 53.8896 46.4835 53.9601 46.2667C54.4801 44.6715 54.1434 43.0675 53.1651 41.9024C55.5588 43.1292 57.2774 45.3942 58.8303 47.5993C59.0489 47.9113 59.493 47.5358 59.2851 47.2273C58.2909 45.7485 57.2844 44.2115 57.9225 42.4136C58.5024 40.7813 60.0818 40.1115 61.6399 39.6409C61.7951 39.5986 61.9519 39.5528 62.107 39.5052C62.174 39.4858 62.241 39.4664 62.3062 39.4488C62.3327 39.44 62.3574 39.4329 62.3838 39.4241C62.7398 39.3095 62.5354 38.8142 62.2005 38.8442C62.2005 38.8389 62.1987 38.8354 62.1987 38.8301C60.258 39.4312 58.2997 39.7431 56.2603 39.685C55.1834 39.6532 54.1064 39.8771 55.4037 38.6362C56.0894 37.9805 56.902 37.5909 57.7921 37.3089C58.127 37.2032 57.9807 36.7167 57.6828 36.6832C54.7762 36.35 53.4701 33.9687 51.3443 32.3594C50.0505 31.3794 48.5047 30.84 46.8919 30.6955C43.4794 30.3888 40.1374 31.8253 37.467 33.8612C37.4388 33.8665 37.4141 33.8841 37.4018 33.9105C37.3348 33.9634 37.2643 34.0128 37.1973 34.0656C36.9805 34.2366 37.0968 34.5662 37.3066 34.6456Z" fill="#C1CAD6"/>
<path d="M87.8171 1.80399C88.7213 4.74762 89.1602 7.7406 89.2325 10.8182C89.2431 11.2694 89.8758 11.3452 90.008 10.9222C90.2407 10.0074 90.7642 9.37457 91.5733 9.01852C91.7742 10.4674 91.8694 12.7818 93.3042 13.3529C94.746 13.9275 97.0798 13.0849 98.4511 12.6831C100.575 12.0608 102.757 11.2835 104.747 10.3088C105.32 10.0285 105.914 9.71476 106.328 9.21593C106.536 8.96387 107.219 7.16069 107.398 7.16774C107.853 7.1836 108.068 6.48911 107.638 6.28465C106.877 5.9233 106.342 5.13011 105.756 4.4603C104.347 1.46028 101.039 -0.152545 97.7126 0.0113817C93.8435 0.201748 91.6684 2.06486 90.3993 5.36807C89.5321 4.24879 89.0403 2.94971 88.5715 1.596C88.4111 1.12361 87.6672 1.31926 87.8171 1.80399Z" fill="#C1CAD6"/>
</svg>
