<svg width="121" height="49" viewBox="0 0 121 49" fill="none" xmlns="http://www.w3.org/2000/svg">
<path d="M119.999 23.523C118.971 18.2596 117.913 12.8641 117.582 7.5051C117.539 6.80256 116.381 6.537 116.263 7.32666C115.968 9.28113 115.003 10.2942 113.827 11.0951C113.869 10.6848 113.922 10.2731 114.008 9.85862C114.557 7.17631 116.855 3.58351 114.212 1.21453C112.192 -0.595212 108.215 -0.012091 105.861 0.607551C102.638 1.45622 99.6844 3.30531 97.581 5.88926C94.9971 9.06475 94.0922 13.1423 92.0745 16.6367C91.594 17.4685 90.9659 18.2905 91.3945 19.2825C91.6432 19.8572 92.1462 20.2071 92.6857 20.5274C93.7592 22.8022 94.9929 25.2864 96.7647 26.7112C97.6668 27.4362 98.743 27.758 99.8292 28.0938C102.004 28.7654 103.755 29.5284 105.465 31.0683C106.009 31.5573 106.758 30.9489 106.451 30.3096C105.947 29.2544 105.302 28.1935 104.502 27.425C106.989 28.098 109.613 30.1719 112.121 29.8951C115.167 29.5593 115.955 26.7702 115.694 24.1385C115.546 22.6505 115.23 21.1794 114.896 19.7111C116.439 20.63 117.668 22.2304 118.66 24.0879C119.068 24.8551 120.151 24.3015 119.999 23.523Z" fill="#C1CAD6"/>
<path d="M45.829 37.4222C45.7503 37.2915 45.6646 37.1636 45.5845 37.0344C45.5817 36.981 45.5494 36.9346 45.5058 36.9093C42.2938 31.8398 37.577 27.3576 31.6546 25.7614C28.8556 25.0069 25.9218 24.9549 23.1397 25.8007C18.5648 27.1904 14.8863 30.3771 9.79847 29.1406C9.27578 29.0142 8.72781 29.7392 9.2238 30.1242C10.5446 31.1485 11.6644 32.3063 12.4077 33.8322C13.8128 36.7168 12.1436 35.6771 10.3156 35.063C6.85344 33.8996 3.75942 32.1644 0.876188 29.9542C0.871973 29.9612 0.867797 29.9682 0.863582 29.9766C0.318409 29.7181 -0.332162 30.4235 0.194744 30.8352C0.232681 30.8647 0.272024 30.8913 0.309962 30.9209L0.308546 30.9237C0.408307 30.9953 0.508096 31.0698 0.609262 31.1429C0.841101 31.3185 1.07431 31.4913 1.30756 31.6599C3.63016 33.4163 5.86566 35.5183 5.82069 38.6165C5.77152 42.0294 3.12154 43.9881 0.529163 45.8555C-0.0117942 46.2447 0.498238 47.1482 1.06027 46.7604C5.04509 44.0176 9.34322 41.2791 14.1275 40.7002C11.7586 42.0519 10.1933 44.5375 10.0711 47.5374C10.0542 47.9434 10.4729 48.2132 10.8439 48.1233C20.4898 45.7768 35.3808 49.8726 42.4751 41.2749C43.0526 40.9194 43.5823 40.4361 43.9771 40.0272C44.4591 39.5298 44.9705 38.9636 45.2839 38.3256C45.6829 38.3214 46.0848 37.8409 45.829 37.4222Z" fill="#C1CAD6"/>
</svg>
