<svg width="138" height="74" viewBox="0 0 138 74" fill="none" xmlns="http://www.w3.org/2000/svg">
<path d="M78.7331 73.0482C87.5856 72.5783 100.563 71.2686 103.852 61.3706C104.062 61.3662 104.273 61.3647 104.488 61.3662C107.239 61.3853 109.926 61.5395 112.606 60.7965C113.134 60.6497 113.353 59.9772 112.951 59.5763C111.202 57.829 109.697 55.9231 108.411 53.8131C108.07 53.2537 107.269 53.3741 107.056 53.9702C105.985 56.9774 103.709 59.1153 100.693 60.1387C100.542 60.1901 100.429 60.2752 100.347 60.3766C98.7655 60.6364 97.2091 61.1254 95.6893 62.071C92.9994 63.7434 90.5619 65.7594 87.8176 67.3628C84.8692 69.0852 81.7828 70.53 78.5834 71.7238C77.9344 71.9646 77.905 73.0908 78.7331 73.0482Z" fill="#C1CAD6"/>
<path d="M137.545 65.0517C136.378 62.9211 135.214 60.7891 134.045 58.6615C133.775 58.1682 132.87 58.2269 132.767 58.8274C132.54 60.1592 132.284 61.5262 131.904 62.8345C131.835 62.7846 131.754 62.745 131.652 62.7347C124.693 61.999 117.711 66.241 114.021 71.9161C113.779 72.289 114.09 72.9322 114.572 72.872C119.052 72.3096 124.442 72.361 128.462 70.0675C130.405 68.9589 131.635 67.2982 132.469 65.4055C133.875 66.3409 135.444 66.5875 137.142 66.0457C137.563 65.9106 137.761 65.4467 137.545 65.0517Z" fill="#C1CAD6"/>
<path d="M116.388 35.1214C114.896 37.3429 113.083 39.0697 111.051 40.4161C102.803 38.1388 92.0185 38.3693 85.9852 45.1471C85.7311 45.4319 85.9 45.8974 86.3008 45.9048C94.5337 46.0457 103.975 45.9121 111.052 41.5791C112.907 42.1914 114.811 42.6833 116.667 43.2412C116.98 43.3352 117.296 43.0782 117.297 42.7625C117.309 40.3002 117.319 37.8363 117.331 35.3739C117.331 34.8541 116.657 34.7205 116.388 35.1214Z" fill="#C1CAD6"/>
<path d="M72.3665 42.6289C72.0038 42.2765 71.5134 42.4865 71.3401 42.8991C70.7572 44.2808 71.1522 45.5274 71.4972 46.9179C71.6279 47.445 71.6999 47.9002 71.7057 48.3113C64.2261 47.285 56.6407 52.941 53.823 59.5499C53.6806 59.8847 53.9184 60.3501 54.3384 60.218C59.3938 58.6293 64.2041 56.3768 68.6267 53.4607C70.0069 52.5504 72.1345 51.4638 72.7776 49.7987C73.4531 49.8237 74.1373 49.8795 74.8303 49.9793C75.1974 50.0322 75.7099 49.8208 75.6541 49.3538C75.3442 46.7153 74.2841 44.4908 72.3665 42.6289Z" fill="#C1CAD6"/>
<path d="M69.7323 67.567C69.1846 65.2221 68.9908 62.908 69.12 60.5088C69.1376 60.1975 68.8308 59.8935 68.518 59.9097C65.8104 60.055 66.1467 62.6055 66.3904 64.6039C66.176 64.5936 65.9616 64.6039 65.7502 64.6524C65.7619 64.4542 65.6371 64.2368 65.3773 64.2104C59.639 63.6289 55.5571 68.8767 52.6175 73.0394C52.3694 73.3918 52.7834 73.9175 53.1857 73.7765C55.4881 72.9734 57.7875 72.1658 60.0913 71.3685C61.9795 70.7151 64.0719 70.2408 65.853 69.329C66.8852 68.7989 67.5915 68.0075 67.7413 66.8328C67.7545 66.7271 67.7559 66.6052 67.7501 66.4716C68.123 66.7873 68.4079 67.2366 68.5606 67.89C68.7382 68.6462 69.9085 68.3261 69.7323 67.567Z" fill="#C1CAD6"/>
<path d="M26.1891 38.1609C35.0416 37.6925 48.0187 36.3812 51.3077 26.4833C51.5177 26.4789 51.7292 26.4774 51.9435 26.4789C54.6952 26.4994 57.3822 26.6521 60.0634 25.9092C60.592 25.7623 60.8107 25.0898 60.4084 24.689C58.6596 22.9417 57.1546 21.0358 55.8684 18.9258C55.5277 18.3664 54.726 18.4868 54.5131 19.0844C53.4427 22.0915 51.1668 24.2294 48.1494 25.2528C47.9981 25.3042 47.8851 25.3894 47.8029 25.4907C46.2215 25.7506 44.665 26.2395 43.1453 27.1851C40.4568 28.8561 38.018 30.8736 35.2737 32.477C32.3253 34.1993 29.2388 35.6441 26.0394 36.8379C25.3904 37.0772 25.361 38.2049 26.1891 38.1609Z" fill="#C1CAD6"/>
<path d="M85.0014 30.1658C83.8341 28.0352 82.6697 25.9032 81.4995 23.7741C81.2293 23.2808 80.3248 23.3395 80.222 23.9401C79.9944 25.2718 79.7389 26.6389 79.3586 27.9471C79.2896 27.8972 79.2089 27.859 79.1061 27.8473C72.1477 27.1116 65.1658 31.3551 61.4759 37.0287C61.2337 37.4017 61.5435 38.0448 62.0266 37.9846C66.5064 37.4222 71.8966 37.4736 75.9169 35.1801C77.8595 34.0715 79.09 32.4108 79.924 30.5182C81.3291 31.4535 82.8988 31.7002 84.5961 31.1584C85.0205 31.0233 85.2172 30.5607 85.0014 30.1658Z" fill="#C1CAD6"/>
<path d="M63.8458 0.23398C62.354 2.45556 60.542 4.18231 58.5084 5.52876C50.2608 3.25139 39.476 3.48192 33.4427 10.2597C33.1887 10.5446 33.3575 11.01 33.7584 11.0174C41.9913 11.1583 51.4326 11.0247 58.5099 6.69168C60.3644 7.30397 62.2688 7.79585 64.1248 8.35381C64.4375 8.44779 64.7532 8.19083 64.7547 7.87515C64.7664 5.41276 64.7767 2.94892 64.7885 0.486539C64.7885 -0.0332477 64.1145 -0.166872 63.8458 0.23398Z" fill="#C1CAD6"/>
<path d="M19.8225 7.74299C19.4598 7.39059 18.9694 7.60057 18.7961 8.01317C18.2117 9.3934 18.6082 10.6415 18.9532 12.032C19.0839 12.5591 19.1559 13.0143 19.1617 13.4254C11.6821 12.3991 4.09674 18.055 1.27903 24.6654C1.1366 25.0002 1.37444 25.4657 1.79438 25.3335C6.84982 23.7448 11.6601 21.4924 16.0827 18.5763C17.4629 17.6659 19.5905 16.5794 20.2336 14.9143C20.9105 14.9393 21.5933 14.9951 22.2864 15.0949C22.6534 15.1478 23.1658 14.9363 23.1101 14.4694C22.8002 11.8279 21.7401 9.60483 19.8225 7.74299Z" fill="#C1CAD6"/>
<path d="M17.1898 32.681C16.6421 30.3361 16.4483 28.022 16.5775 25.6228C16.5951 25.3115 16.2882 25.0075 15.9755 25.0237C13.2679 25.1691 13.6041 27.7195 13.8479 29.7179C13.6335 29.7077 13.4191 29.7179 13.2077 29.7664C13.2194 29.5682 13.0946 29.3508 12.8347 29.3244C7.0965 28.743 3.01455 33.9907 0.0749643 38.1534C-0.173183 38.5058 0.240875 39.0315 0.643196 38.8905C2.94553 38.0874 5.24493 37.2798 7.54873 36.4825C9.437 35.8291 11.5294 35.3548 13.3105 34.443C14.3427 33.9144 15.0489 33.1215 15.1987 31.9469C15.2119 31.8411 15.2134 31.7193 15.2075 31.5856C15.5805 31.8999 15.8668 32.3506 16.018 33.0041C16.1957 33.7588 17.3645 33.4387 17.1898 32.681Z" fill="#C1CAD6"/>
</svg>
