<svg width="1360" height="1024" viewBox="0 0 1360 1024" fill="none" xmlns="http://www.w3.org/2000/svg">
<line x1="1079.5" y1="-2.18557e-08" x2="1079.5" y2="1024" stroke="#14191C" stroke-opacity="0.25"/>
<line x1="695.5" y1="-2.18557e-08" x2="695.5" y2="1024" stroke="#14191C" stroke-opacity="0.25"/>
<line x1="503.5" y1="-2.18557e-08" x2="503.5" y2="1024" stroke="#14191C" stroke-opacity="0.25"/>
<line x1="311.5" y1="-2.18557e-08" x2="311.5" y2="1024" stroke="#14191C" stroke-opacity="0.25"/>
<path d="M1079 657L1079.32 657.001L1079.64 657.005L1080.26 657.022L1080.56 657.035L1081.14 657.069L1081.69 657.115C1086.47 657.579 1088.42 659.526 1088.89 664.311L1088.93 664.864L1088.97 665.443C1088.97 665.541 1088.98 665.641 1088.98 665.742L1089 666.358L1089 667L1089 667.642L1088.98 668.258L1088.97 668.557L1088.93 669.136L1088.89 669.689C1088.42 674.474 1086.47 676.421 1081.69 676.885L1081.14 676.931L1080.56 676.965C1080.46 676.97 1080.36 676.975 1080.26 676.978L1079.64 676.995L1079 677L1078.36 676.995L1077.74 676.978L1077.44 676.965L1076.86 676.931L1076.31 676.885C1071.53 676.421 1069.58 674.474 1069.12 669.689L1069.07 669.136L1069.04 668.557C1069.03 668.457 1069.03 668.358 1069.02 668.258L1069.01 667.642C1069 667.432 1069 667.218 1069 667L1069 666.676L1069.01 666.358L1069.02 665.742L1069.04 665.443L1069.07 664.864L1069.12 664.311C1069.58 659.526 1071.53 657.579 1076.31 657.115L1076.86 657.069L1077.44 657.035C1077.54 657.03 1077.64 657.025 1077.74 657.022L1078.36 657.005C1078.57 657.002 1078.78 657 1079 657ZM1079 663C1078.73 663 1078.48 663.105 1078.29 663.293C1078.11 663.48 1078 663.735 1078 664V666H1076L1075.88 666.007C1075.63 666.037 1075.4 666.163 1075.23 666.358C1075.07 666.554 1074.99 666.804 1075 667.059C1075.02 667.313 1075.13 667.552 1075.31 667.727C1075.5 667.902 1075.75 668 1076 668H1078V670L1078.01 670.117C1078.04 670.37 1078.16 670.602 1078.36 670.766C1078.55 670.929 1078.8 671.012 1079.06 670.997C1079.31 670.982 1079.55 670.871 1079.73 670.685C1079.9 670.5 1080 670.255 1080 670V668H1082L1082.12 667.993C1082.37 667.963 1082.6 667.837 1082.77 667.642C1082.93 667.446 1083.01 667.196 1083 666.941C1082.98 666.687 1082.87 666.448 1082.69 666.273C1082.5 666.098 1082.25 666 1082 666H1080V664L1079.99 663.883C1079.96 663.64 1079.85 663.415 1079.66 663.253C1079.48 663.09 1079.24 663 1079 663Z" fill="#14191C"/>
<path d="M695 208L695.324 208.001L695.642 208.005L696.258 208.022L696.557 208.035L697.136 208.069L697.689 208.115C702.474 208.579 704.421 210.526 704.885 215.311L704.931 215.864L704.965 216.443C704.97 216.541 704.975 216.641 704.978 216.742L704.995 217.358L705 218L704.995 218.642L704.978 219.258L704.965 219.557L704.931 220.136L704.885 220.689C704.421 225.474 702.474 227.421 697.689 227.885L697.136 227.931L696.557 227.965C696.459 227.97 696.359 227.975 696.258 227.978L695.642 227.995L695 228L694.358 227.995L693.742 227.978L693.443 227.965L692.864 227.931L692.311 227.885C687.526 227.421 685.579 225.474 685.115 220.689L685.069 220.136L685.035 219.557C685.03 219.457 685.026 219.358 685.022 219.258L685.005 218.642C685.002 218.432 685 218.218 685 218L685.001 217.676L685.005 217.358L685.022 216.742L685.035 216.443L685.069 215.864L685.115 215.311C685.579 210.526 687.526 208.579 692.311 208.115L692.864 208.069L693.443 208.035C693.541 208.03 693.641 208.025 693.742 208.022L694.358 208.005C694.568 208.002 694.782 208 695 208ZM695 214C694.735 214 694.48 214.105 694.293 214.293C694.105 214.48 694 214.735 694 215V217H692L691.883 217.007C691.63 217.037 691.398 217.163 691.234 217.358C691.071 217.554 690.988 217.804 691.003 218.059C691.018 218.313 691.129 218.552 691.315 218.727C691.5 218.902 691.745 219 692 219H694V221L694.007 221.117C694.037 221.37 694.163 221.602 694.358 221.766C694.554 221.929 694.804 222.012 695.059 221.997C695.313 221.982 695.552 221.871 695.727 221.685C695.902 221.5 696 221.255 696 221V219H698L698.117 218.993C698.37 218.963 698.602 218.837 698.766 218.642C698.929 218.446 699.012 218.196 698.997 217.941C698.982 217.687 698.871 217.448 698.685 217.273C698.5 217.098 698.255 217 698 217H696V215L695.993 214.883C695.964 214.64 695.847 214.415 695.664 214.253C695.481 214.09 695.245 214 695 214Z" fill="#14191C"/>
</svg>
