<svg width="92" height="46" viewBox="0 0 92 46" fill="none" xmlns="http://www.w3.org/2000/svg">
<path d="M9.75844 25.1304C9.75844 25.1304 14.0019 23.6202 22.0174 25.5079C22.0174 25.5079 21.9932 25.219 20.7564 24.6756C20.7564 24.6756 20.0627 24.4643 20.1531 24.0718C20.1531 24.0718 20.304 23.7095 20.7564 23.9812C20.7564 23.9812 21.5407 24.3133 21.782 24.3737C21.782 24.3737 22.2345 24.4944 22.2948 24.2227C22.2948 24.2227 22.144 23.8302 21.7217 23.5283C21.7217 23.5283 21.2391 23.3472 20.6056 23.4679C20.6056 23.4679 20.0928 23.6491 20.1531 23.1962C20.1531 23.1962 20.1531 22.9849 20.7263 22.8641C20.7263 22.8641 21.2089 22.5622 20.304 22.5018C20.304 22.5018 19.6404 22.4112 19.761 22.1395C19.761 22.1395 19.7912 21.898 20.1531 21.9282C20.1531 21.9282 20.5151 21.9886 20.0325 21.5659C20.0325 21.5659 19.3085 21.2338 19.7308 20.8715C19.7308 20.8715 20.2436 20.63 20.6659 21.5357C20.6659 21.5357 20.8168 21.6263 20.8771 21.1734C20.8771 21.1734 21.1486 20.7507 21.2692 21.4149C21.2692 21.4149 21.2089 21.8376 21.2994 22.1093C21.2994 22.1093 21.6614 22.7434 21.9027 22.9245C21.9027 22.9245 22.506 23.1056 22.0837 22.683C22.0837 22.683 21.6513 21.6463 21.772 21.3244C21.772 21.3244 21.591 20.8613 20.9877 20.6198C20.9877 20.6198 20.3844 20.3382 20.7061 19.8752C20.7061 19.8752 20.9675 19.5934 21.3697 19.9759C21.3697 19.9759 21.591 20.2173 21.7117 20.3783C21.7117 20.3783 22.0333 20.8413 21.8927 20.4186C21.8927 20.4186 21.8121 19.0298 22.355 18.8085C22.355 18.8085 22.6166 18.7481 22.6166 19.3117C22.6166 19.3117 22.4958 21.3043 22.536 21.5055C22.536 21.5055 22.717 21.9886 23.079 21.6666C23.079 21.6666 23.4612 21.1835 23.7629 20.7005C23.7629 20.7005 24.4265 19.9356 24.6878 20.4186C24.6878 20.4186 24.527 21.264 23.9236 21.7067C23.9236 21.7067 22.9785 22.3912 23.079 23.2366C23.079 23.2366 22.9785 24.1623 23.9839 24.0012C23.9839 24.0012 24.8083 23.6592 25.2509 22.512C25.2509 22.512 25.3112 21.9484 25.1101 21.1232C25.1101 21.1232 24.909 20.0161 25.8341 19.4325C25.8341 19.4325 26.3769 19.0903 26.1558 19.9155C26.1558 19.9155 26.0955 20.2575 25.8139 20.479C25.8139 20.479 25.6883 20.796 25.8742 21.2236C25.8742 21.2236 26.0152 21.9081 25.9346 22.3509C25.9346 22.3509 25.8342 23.0352 26.1155 22.6327C26.1155 22.6327 26.005 21.9282 27.0808 21.2036C27.0808 21.2036 27.9457 20.8413 27.7444 21.4652C27.7444 21.4652 27.7093 21.8376 27.2216 21.9282C27.2216 21.9282 26.7591 22.069 26.7591 22.6528C26.7591 22.6528 26.6988 23.5987 25.9547 23.6993C25.9547 23.6993 24.2855 24.4643 24.3258 25.1285C24.3258 25.1285 24.1046 26.1751 24.6476 26.4569C24.6476 26.4569 26.7634 27.5795 27.2818 28.0268C27.2818 28.0268 27.0405 25.249 27.5835 23.5382C27.5835 23.5382 28.2874 22.1898 27.9857 20.6399C27.9857 20.6399 27.5031 18.6472 27.5231 18.3453C27.5231 18.3453 27.3623 17.2383 28.2471 17.4194C28.2471 17.4194 28.7902 17.6207 28.75 18.5667C28.75 18.5667 28.9913 19.9757 29.494 20.5191C29.494 20.5191 29.7956 21.2437 30.2782 20.6801C30.2782 20.6801 30.6202 20.0159 30.4995 19.0901C30.4995 19.0901 30.1576 18.0837 29.2727 17.3792C29.2727 17.3792 28.6091 16.9162 29.0717 16.4533C29.0717 16.4533 29.494 16.2521 30.2179 16.8559C30.2179 16.8559 30.7609 17.2786 30.8012 16.7352C30.8012 16.7352 30.7809 16.1916 30.2782 15.4872C30.2782 15.4872 29.7554 14.6822 30.4995 14.5614C30.4995 14.5614 30.8012 14.501 31.0022 14.9841C31.0022 14.9841 31.344 15.5878 31.5048 14.8834C31.5048 14.8834 31.2536 14.0785 31.4848 13.5147C31.4848 13.5147 31.8869 12.6292 32.4098 13.4141C32.4098 13.4141 32.7717 13.8367 32.4098 14.7626C32.4098 14.7626 32.0681 15.3464 32.249 15.447C32.249 15.447 32.4501 15.4873 32.8924 15.2054C32.8924 15.2054 33.5762 14.8835 33.375 15.7892C33.375 15.7892 32.9881 16.4787 32.5707 16.3729C32.5707 16.3729 32.249 16.2673 32.1081 16.8761C32.1081 16.8761 31.7664 17.9025 31.7061 18.3453C31.7061 18.3453 31.5653 19.0699 31.8267 19.2511C31.8267 19.2511 31.9674 19.392 32.1081 18.9492C32.1081 18.9492 33.0734 17.4397 33.6767 16.9163C33.6767 16.9163 33.9985 16.7955 33.9783 16.2319C33.9783 16.2319 33.7573 13.7361 34.3806 13.5751C34.3806 13.5751 35.0643 13.233 35.2655 13.9174C35.2655 13.9174 35.3458 15.0645 35.1245 15.5677C35.1245 15.5677 34.9235 16.1313 35.2452 15.91C35.2452 15.91 36.8137 14.5614 37.6986 14.5614C37.6986 14.5614 38.4226 14.3199 38.322 15.0042C38.322 15.0042 38.5031 15.4471 35.2655 17.339C35.2655 17.339 34.0186 17.9227 34.3403 18.6876C34.3403 18.6876 34.4006 19.1705 35.3055 19.0699C35.3055 19.0699 38.0203 18.8083 38.4829 19.4725C38.4829 19.4725 38.8399 19.9507 38.1612 20.1568C38.1612 20.1568 36.3914 20.4789 35.5268 20.2374C35.5268 20.2374 33.7973 19.9353 32.812 20.5795C32.812 20.5795 31.0022 21.5456 32.2691 22.9747C32.2691 22.9747 32.7114 23.3771 33.5963 23.4175C33.5963 23.4175 35.6675 23.8401 36.5524 23.015C36.5524 23.015 38.0406 21.3444 38.5232 21.0827C38.5232 21.0827 39.8102 19.9153 41.439 20.6399C41.439 20.6399 42.0826 21.0827 41.419 21.4048C41.419 21.4048 40.9967 21.7268 39.9108 21.6865C39.9108 21.6865 39.0259 21.6262 38.8852 22.4111C38.8852 22.4111 38.7242 23.3169 37.7187 23.5584C37.7187 23.5584 36.4116 24.1823 36.5724 24.6855C36.5724 24.6855 36.8741 25.0881 37.8193 24.4843C37.8193 24.4843 39.2269 23.5786 40.1922 24.5447C40.1922 24.5447 41.3988 25.3899 40.7554 25.712C40.7554 25.712 39.9911 25.9939 39.4482 25.6316C39.4482 25.6316 38.9455 24.8867 38.0003 25.5309C38.0003 25.5309 36.9345 26.4971 35.5671 25.8731C35.5671 25.8731 33.2343 25.1888 32.6713 24.7862C32.6713 24.7862 31.1832 24.122 29.8156 25.9737C29.8156 25.9737 28.931 27.1411 29.3533 29.6168C29.3533 29.6168 30.4792 30.8042 31.0022 31.388C31.0022 31.388 32.1484 30.5024 34.6219 30.2005C34.6219 30.2005 35.8888 30.281 36.7534 29.0532C36.7534 29.0532 37.7389 27.604 37.8796 27.121C37.8796 27.121 38.7242 28.0067 38.1009 31.7302L38.0472 31.9207C41.0869 28.6147 42.944 24.2022 42.944 19.3552C42.944 9.10354 34.6408 0.792967 24.3985 0.792967C14.156 0.792967 5.85297 9.10354 5.85297 19.3552C5.85297 21.8129 6.3313 24.1586 7.19815 26.3054C7.71071 26.3545 8.45081 26.4843 8.86261 26.8292C8.86261 26.8292 8.86261 25.6967 9.75844 25.1304Z" fill="#59C9A5"/>
<path d="M24.6476 26.4569C24.1045 26.1752 24.3258 25.1285 24.3258 25.1285C24.2855 24.4643 25.9547 23.6994 25.9547 23.6994C26.6988 23.5988 26.7591 22.6528 26.7591 22.6528C26.7591 22.069 27.2216 21.9282 27.2216 21.9282C27.7093 21.8376 27.7444 21.4652 27.7444 21.4652C27.9457 20.8413 27.0808 21.2036 27.0808 21.2036C26.005 21.9282 26.1155 22.6328 26.1155 22.6328C25.8342 23.0353 25.9346 22.3509 25.9346 22.3509C26.0152 21.9082 25.8742 21.2237 25.8742 21.2237C25.6883 20.796 25.8139 20.479 25.8139 20.479C26.0955 20.2576 26.1558 19.9155 26.1558 19.9155C26.3769 19.0904 25.8341 19.4325 25.8341 19.4325C24.909 20.0161 25.1101 21.1232 25.1101 21.1232C25.3112 21.9484 25.2509 22.512 25.2509 22.512C24.8083 23.6593 23.9839 24.0013 23.9839 24.0013C22.9785 24.1624 23.079 23.2366 23.079 23.2366C22.9785 22.3912 23.9236 21.7067 23.9236 21.7067C24.527 21.264 24.6878 20.4187 24.6878 20.4187C24.4265 19.9356 23.7628 20.7005 23.7628 20.7005C23.4612 21.1836 23.079 21.6666 23.079 21.6666C22.717 21.9886 22.536 21.5055 22.536 21.5055C22.4958 21.3043 22.6166 19.3117 22.6166 19.3117C22.6166 18.7481 22.355 18.8085 22.355 18.8085C21.8121 19.0299 21.8927 20.4187 21.8927 20.4187C22.0333 20.8413 21.7117 20.3783 21.7117 20.3783C21.591 20.2173 21.3697 19.9759 21.3697 19.9759C20.9675 19.5935 20.7061 19.8752 20.7061 19.8752C20.3844 20.3382 20.9877 20.6198 20.9877 20.6198C21.591 20.8614 21.772 21.3244 21.772 21.3244C21.6513 21.6464 22.0837 22.683 22.0837 22.683C22.506 23.1057 21.9027 22.9245 21.9027 22.9245C21.6614 22.7434 21.2994 22.1094 21.2994 22.1094C21.2089 21.8376 21.2692 21.415 21.2692 21.415C21.1486 20.7508 20.8771 21.1734 20.8771 21.1734C20.8168 21.6263 20.6659 21.5357 20.6659 21.5357C20.2436 20.63 19.7308 20.8715 19.7308 20.8715C19.3085 21.2338 20.0325 21.5659 20.0325 21.5659C20.5151 21.9886 20.1531 21.9282 20.1531 21.9282C19.7912 21.898 19.761 22.1396 19.761 22.1396C19.6403 22.4113 20.304 22.5019 20.304 22.5019C21.2089 22.5622 20.7263 22.8641 20.7263 22.8641C20.1531 22.9849 20.1531 23.1963 20.1531 23.1963C20.0928 23.6491 20.6056 23.468 20.6056 23.468C21.2391 23.3472 21.7217 23.5284 21.7217 23.5284C22.144 23.8303 22.2948 24.2228 22.2948 24.2228C22.2345 24.4945 21.782 24.3737 21.782 24.3737C21.5407 24.3133 20.7564 23.9812 20.7564 23.9812C20.304 23.7095 20.1531 24.0718 20.1531 24.0718C20.0627 24.4643 20.7564 24.6756 20.7564 24.6756C21.9932 25.2191 22.0174 25.5079 22.0174 25.5079C22.0174 25.5079 23.601 25.9959 24.6476 26.4569Z" fill="#14191C"/>
<path d="M29.3533 29.6167C28.931 27.141 29.8156 25.9736 29.8156 25.9736C31.1832 24.1219 32.6714 24.7861 32.6714 24.7861C33.2343 25.1887 35.5671 25.873 35.5671 25.873C36.9345 26.497 38.0003 25.5307 38.0003 25.5307C38.9455 24.8866 39.4482 25.6315 39.4482 25.6315C39.9911 25.9937 40.7554 25.7119 40.7554 25.7119C41.3989 25.3898 40.1922 24.5446 40.1922 24.5446C39.2269 23.5784 37.8193 24.4842 37.8193 24.4842C36.8741 25.088 36.5724 24.6854 36.5724 24.6854C36.4116 24.1821 37.7187 23.5583 37.7187 23.5583C38.7242 23.3167 38.8852 22.411 38.8852 22.411C39.0259 21.626 39.9108 21.6864 39.9108 21.6864C40.9967 21.7266 41.419 21.4047 41.419 21.4047C42.0826 21.0826 41.439 20.6397 41.439 20.6397C39.8102 19.9152 38.5232 21.0826 38.5232 21.0826C38.0406 21.3443 36.5524 23.0148 36.5524 23.0148C35.6675 23.84 33.5963 23.4173 33.5963 23.4173C32.7114 23.377 32.2691 22.9746 32.2691 22.9746C31.0022 21.5455 32.812 20.5794 32.812 20.5794C33.7973 19.9352 35.5268 20.2372 35.5268 20.2372C36.3915 20.4788 38.1613 20.1567 38.1613 20.1567C38.84 19.9505 38.4829 19.4724 38.4829 19.4724C38.0203 18.8082 35.3055 19.0698 35.3055 19.0698C34.4006 19.1704 34.3403 18.6875 34.3403 18.6875C34.0186 17.9225 35.2655 17.3389 35.2655 17.3389C38.5031 15.447 38.322 15.0041 38.322 15.0041C38.4226 14.3197 37.6987 14.5613 37.6987 14.5613C36.8138 14.5613 35.2452 15.9099 35.2452 15.9099C34.9235 16.1312 35.1246 15.5676 35.1246 15.5676C35.3458 15.0644 35.2655 13.9172 35.2655 13.9172C35.0643 13.2329 34.3806 13.575 34.3806 13.575C33.7573 13.736 33.9783 16.2318 33.9783 16.2318C33.9985 16.7954 33.6767 16.9162 33.6767 16.9162C33.0734 17.4396 32.1081 18.949 32.1081 18.949C31.9674 19.3919 31.8268 19.2509 31.8268 19.2509C31.5653 19.0698 31.7061 18.3452 31.7061 18.3452C31.7664 17.9024 32.1081 16.876 32.1081 16.876C32.2491 16.2672 32.5707 16.3728 32.5707 16.3728C32.9881 16.4785 33.375 15.7891 33.375 15.7891C33.5762 14.8834 32.8924 15.2053 32.8924 15.2053C32.4501 15.4872 32.2491 15.4468 32.2491 15.4468C32.0681 15.3462 32.4098 14.7625 32.4098 14.7625C32.7717 13.8366 32.4098 13.414 32.4098 13.414C31.887 12.629 31.4848 13.5146 31.4848 13.5146C31.2536 14.0783 31.5048 14.8832 31.5048 14.8832C31.344 15.5877 31.0022 14.984 31.0022 14.984C30.8012 14.5009 30.4995 14.5613 30.4995 14.5613C29.7554 14.682 30.2782 15.4871 30.2782 15.4871C30.7809 16.1915 30.8012 16.735 30.8012 16.735C30.7609 17.2785 30.2179 16.8558 30.2179 16.8558C29.494 16.252 29.0717 16.4532 29.0717 16.4532C28.6091 16.9161 29.2727 17.3791 29.2727 17.3791C30.1576 18.0836 30.4995 19.09 30.4995 19.09C30.6202 20.0158 30.2782 20.68 30.2782 20.68C29.7956 21.2436 29.494 20.519 29.494 20.519C28.9913 19.9755 28.75 18.5666 28.75 18.5666C28.7902 17.6206 28.2471 17.4193 28.2471 17.4193C27.3623 17.2382 27.5231 18.3452 27.5231 18.3452C27.5031 18.6471 27.9857 20.6397 27.9857 20.6397C28.2874 22.1896 27.5835 23.5381 27.5835 23.5381C27.0405 25.2489 27.2818 28.0267 27.2818 28.0267C27.2818 28.0267 28.0573 28.5648 29.3533 29.6167Z" fill="#14191C"/>
<path d="M56.4782 30.787H45.7794V16.5842H56.3042V19.4329H50.0589V22.0357H56.0176V24.8947H50.0589V27.928H56.4782V30.787Z" fill="#14191C"/>
<path d="M69.5832 23.7572C69.5832 22.6029 69.363 21.7027 68.9228 21.0571C68.4825 20.4116 67.9534 19.9795 67.3359 19.7608C66.718 19.5422 66.0884 19.4329 65.4468 19.4329H63.6245V27.846H65.4468C66.5662 27.846 67.5355 27.5795 68.3545 27.0467C69.1735 26.5138 69.5832 25.4174 69.5832 23.7572ZM73.9343 23.9418C73.9343 25.3969 73.6698 26.565 73.1409 27.4464C72.6118 28.3275 71.9891 29.0416 71.2725 29.588C70.2553 30.3873 68.8322 30.787 67.0031 30.787H66.7881H59.3449V16.5842H65.2422C66.1293 16.5842 66.8888 16.6303 67.5202 16.7224C68.1513 16.8147 68.7195 16.9445 69.2248 17.1118C69.7299 17.2794 70.1598 17.4672 70.5148 17.6754C70.8696 17.884 71.1871 18.1076 71.467 18.3466C71.9515 18.743 72.3764 19.2109 72.7416 19.7505C73.1067 20.2903 73.3968 20.9154 73.6118 21.6259C73.8269 22.3364 73.9343 23.1084 73.9343 23.9418Z" fill="#14191C"/>
<path d="M84.7358 25.4378L82.6574 20.2526L80.5585 25.4378H84.7358ZM91.2574 30.787H86.8755L85.7185 27.9075H79.5551L78.3778 30.787H73.9958L80.272 16.5842H85.002L91.2574 30.787Z" fill="#14191C"/>
<path d="M45.5935 37.587H47.2154V37.9517H46.0031V38.8248H47.1744V39.1917H46.0031V40.0812H47.2542V40.4459H45.5935V37.587Z" fill="#14191C"/>
<path d="M49.1831 39.0809V40.4501H48.8084V39.4007C48.8084 39.1917 48.7805 39.0458 48.7245 38.9632C48.6685 38.8805 48.5709 38.8392 48.4316 38.8392C48.3538 38.8392 48.2825 38.8571 48.2177 38.8926C48.1528 38.9281 48.0787 38.9909 47.9956 39.0809V40.4501H47.6229V38.5646H47.9956V38.8126C48.1852 38.6227 48.3708 38.5276 48.5524 38.5276C48.7913 38.5276 48.9764 38.6411 49.1074 38.8679C49.3066 38.6384 49.5148 38.5236 49.7318 38.5236C49.9148 38.5236 50.0653 38.5905 50.1835 38.7244C50.3015 38.8584 50.3605 39.0626 50.3605 39.3372V40.4501H49.9877V39.3331C49.9877 39.1761 49.9558 39.0557 49.8917 38.9724C49.8274 38.8892 49.7353 38.8474 49.6153 38.8474C49.4608 38.8474 49.3169 38.9253 49.1831 39.0809Z" fill="#14191C"/>
<path d="M50.8806 38.5646H51.2533V40.4501H50.8806V38.5646ZM51.0648 37.7715C51.1264 37.7715 51.1789 37.7926 51.2225 37.835C51.2662 37.8774 51.2882 37.9292 51.2882 37.9907C51.2882 38.0509 51.2662 38.1028 51.2225 38.1465C51.1789 38.1902 51.1264 38.2121 51.0648 38.2121C51.0077 38.2121 50.9571 38.19 50.9133 38.1454C50.8696 38.101 50.8478 38.0495 50.8478 37.9907C50.8478 37.9333 50.8696 37.8825 50.9133 37.8381C50.9571 37.7936 51.0077 37.7715 51.0648 37.7715Z" fill="#14191C"/>
<path d="M52.1911 38.5646V38.997L52.2116 38.9643C52.3918 38.6731 52.572 38.5276 52.7522 38.5276C52.8928 38.5276 53.0395 38.5987 53.1924 38.7409L52.9958 39.0688C52.8661 38.9458 52.7461 38.8844 52.6356 38.8844C52.5154 38.8844 52.4112 38.9417 52.3232 39.0565C52.2351 39.1712 52.1911 39.3071 52.1911 39.4643V40.4501H51.8164V38.5646H52.1911Z" fill="#14191C"/>
<path d="M54.2695 40.077V39.5176L54.0195 39.6139C53.8927 39.6645 53.8029 39.7153 53.7503 39.7665C53.6977 39.8178 53.6715 39.8818 53.6715 39.9582C53.6715 40.0362 53.6964 40.0996 53.7463 40.1488C53.796 40.198 53.8606 40.2227 53.9397 40.2227C54.0586 40.2227 54.1684 40.1741 54.2695 40.077ZM54.6359 39.3168V40.1181C54.6359 40.1824 54.6578 40.2144 54.7014 40.2144C54.7466 40.2144 54.8168 40.181 54.9123 40.114V40.3415C54.8278 40.3961 54.7598 40.4334 54.7085 40.4532C54.6575 40.473 54.6038 40.4829 54.5478 40.4829C54.3882 40.4829 54.294 40.42 54.2654 40.2943C54.107 40.4173 53.9384 40.4788 53.7595 40.4788C53.6284 40.4788 53.5192 40.4354 53.4319 40.3486C53.3445 40.2619 53.3008 40.1529 53.3008 40.0217C53.3008 39.9029 53.3436 39.7966 53.4289 39.7031C53.5142 39.6094 53.6353 39.5354 53.7924 39.4807L54.2695 39.3168V39.2163C54.2695 38.9895 54.1561 38.8762 53.9295 38.8762C53.726 38.8762 53.5282 38.9813 53.3356 39.1917V38.7839C53.4804 38.6131 53.6885 38.5276 53.9602 38.5276C54.1637 38.5276 54.3267 38.581 54.4496 38.6876C54.4905 38.7218 54.5273 38.7672 54.5601 38.824C54.5928 38.8805 54.6137 38.9373 54.6225 38.994C54.6316 39.0507 54.6359 39.1583 54.6359 39.3168Z" fill="#14191C"/>
<path d="M54.978 38.8638L55.6783 38.1751V38.5646H56.2741V38.9006H55.6783V39.8236C55.6783 40.039 55.7677 40.1468 55.9465 40.1468C56.0803 40.1468 56.2215 40.1024 56.3704 40.0135V40.362C56.227 40.4426 56.0706 40.4829 55.9014 40.4829C55.7307 40.4829 55.5887 40.433 55.4756 40.3333C55.44 40.3034 55.4106 40.2694 55.3875 40.2319C55.3642 40.1943 55.3448 40.1451 55.3291 40.0843C55.3134 40.0235 55.3055 39.9077 55.3055 39.7368V38.9006H54.978V38.8638Z" fill="#14191C"/>
<path d="M56.9272 39.3168H57.8753C57.8657 39.1677 57.8213 39.053 57.7422 38.9723C57.663 38.8918 57.5565 38.8514 57.4228 38.8514C57.2889 38.8514 57.1794 38.8918 57.0941 38.9723C57.0087 39.053 56.9531 39.1677 56.9272 39.3168ZM58.2438 39.54H56.9191C56.9285 39.7203 56.989 39.8639 57.1003 39.9706C57.2116 40.077 57.3552 40.1304 57.5313 40.1304C57.777 40.1304 58.0036 40.0538 58.2111 39.9008V40.2656C58.0965 40.3422 57.9827 40.3968 57.8702 40.4295C57.7575 40.4623 57.6254 40.4788 57.4739 40.4788C57.2665 40.4788 57.0985 40.4356 56.9703 40.3496C56.8419 40.2635 56.7391 40.1477 56.6621 40.0023C56.5849 39.8567 56.5464 39.6884 56.5464 39.4971C56.5464 39.2101 56.6276 38.9768 56.79 38.7972C56.9524 38.6176 57.1633 38.5275 57.4228 38.5275C57.6726 38.5275 57.8718 38.6151 58.0207 38.79C58.1695 38.9648 58.2438 39.1993 58.2438 39.493V39.54Z" fill="#14191C"/>
<path d="M58.5551 40.3148V39.9131C58.6602 39.9869 58.7677 40.0467 58.8776 40.0925C58.9874 40.1383 59.08 40.1612 59.1551 40.1612C59.2329 40.1612 59.2997 40.1421 59.3558 40.1037C59.4117 40.0656 59.4397 40.0198 59.4397 39.9664C59.4397 39.9118 59.4216 39.8663 59.3855 39.8302C59.3492 39.794 59.2711 39.7417 59.151 39.6734C58.9108 39.5394 58.7534 39.425 58.679 39.3301C58.6046 39.2352 58.5674 39.1316 58.5674 39.0196C58.5674 38.8747 58.6238 38.7566 58.7363 38.6651C58.8489 38.5735 58.9939 38.5276 59.1716 38.5276C59.3558 38.5276 59.5447 38.5797 59.7386 38.6834V39.0524C59.5175 38.9185 59.3366 38.8515 59.196 38.8515C59.1237 38.8515 59.0654 38.867 59.021 38.8978C58.9766 38.9286 58.9544 38.9692 58.9544 39.0199C58.9544 39.0636 58.9745 39.1053 59.0147 39.145C59.0549 39.1847 59.1256 39.2324 59.2266 39.2884L59.3597 39.3642C59.6737 39.5418 59.8308 39.7385 59.8308 39.9543C59.8308 40.1087 59.7705 40.2353 59.6496 40.3344C59.5288 40.4334 59.3734 40.4829 59.1837 40.4829C59.0718 40.4829 58.9721 40.4708 58.8849 40.4471C58.7974 40.4231 58.6875 40.3791 58.5551 40.3148Z" fill="#14191C"/>
<path d="M62.4027 37.9517H61.8908V40.0812H62.415C62.6197 40.0812 62.7788 40.0671 62.892 40.0392C63.0053 40.0112 63.0998 39.9757 63.1756 39.9325C63.2514 39.8896 63.3206 39.8365 63.3835 39.7737C63.5856 39.5687 63.6866 39.3099 63.6866 38.997C63.6866 38.6895 63.5828 38.4388 63.3753 38.2448C63.2989 38.1724 63.2111 38.113 63.1122 38.0665C63.0132 38.0201 62.9193 37.9893 62.8306 37.9742C62.7418 37.9592 62.5992 37.9517 62.4027 37.9517ZM61.4812 40.4459V37.587H62.4456C62.8347 37.587 63.1425 37.6454 63.3691 37.7622C63.5957 37.879 63.776 38.0508 63.9097 38.2776C64.0436 38.5045 64.1103 38.7518 64.1103 39.0196C64.1103 39.2109 64.0736 39.394 63.9998 39.5687C63.9261 39.7438 63.821 39.8974 63.6845 40.03C63.5453 40.1666 63.3835 40.2697 63.1992 40.3394C63.0914 40.3818 62.9924 40.4101 62.9023 40.4244C62.8122 40.4388 62.6402 40.4459 62.3862 40.4459H61.4812Z" fill="#14191C"/>
<path d="M64.5793 38.5646H64.952V40.4501H64.5793V38.5646ZM64.7635 37.7715C64.825 37.7715 64.8775 37.7926 64.9212 37.835C64.9649 37.8774 64.9868 37.9292 64.9868 37.9907C64.9868 38.0509 64.9649 38.1028 64.9212 38.1465C64.8775 38.1902 64.825 38.2121 64.7635 38.2121C64.7063 38.2121 64.6558 38.19 64.612 38.1454C64.5683 38.101 64.5466 38.0495 64.5466 37.9907C64.5466 37.9333 64.5683 37.8825 64.612 37.8381C64.6558 37.7936 64.7063 37.7715 64.7635 37.7715Z" fill="#14191C"/>
<path d="M66.6447 38.5646H67.0487L66.2167 40.4829H66.0906L65.2386 38.5646H65.6466L66.155 39.7246L66.6447 38.5646Z" fill="#14191C"/>
<path d="M67.3354 38.5646H67.7081V40.4501H67.3354V38.5646ZM67.5197 37.7715C67.5812 37.7715 67.6336 37.7926 67.6774 37.835C67.7211 37.8774 67.743 37.9292 67.743 37.9907C67.743 38.0509 67.7211 38.1028 67.6774 38.1465C67.6336 38.1902 67.5812 38.2121 67.5197 38.2121C67.4625 38.2121 67.4119 38.19 67.3681 38.1454C67.3245 38.101 67.3026 38.0495 67.3026 37.9907C67.3026 37.9333 67.3245 37.8825 67.3681 37.8381C67.4119 37.7936 67.4625 37.7715 67.5197 37.7715Z" fill="#14191C"/>
<path d="M68.6193 38.5646V38.8043C68.7858 38.6199 68.9748 38.5276 69.1865 38.5276C69.3039 38.5276 69.4131 38.558 69.5141 38.6189C69.615 38.6796 69.6919 38.7631 69.7445 38.869C69.797 38.9749 69.8233 39.1425 69.8233 39.3721V40.4501H69.4506V39.3762C69.4506 39.1835 69.4213 39.0458 69.3626 38.9632C69.3039 38.8805 69.2055 38.8392 69.0676 38.8392C68.8916 38.8392 68.7421 38.9273 68.6193 39.1037V40.4501H68.2383V38.5646H68.6193Z" fill="#14191C"/>
<path d="M70.9473 38.8885C70.8464 38.8885 70.7605 38.9226 70.6895 38.9909C70.6184 39.0592 70.583 39.1411 70.583 39.2368C70.583 39.3339 70.6177 39.4141 70.6873 39.4777C70.757 39.5412 70.845 39.573 70.9516 39.573C71.0567 39.573 71.1443 39.5405 71.2146 39.4756C71.285 39.4108 71.3201 39.3297 71.3201 39.2327C71.3201 39.1344 71.2846 39.0524 71.2135 38.9868C71.1426 38.9212 71.0539 38.8885 70.9473 38.8885ZM70.8594 40.5383C70.7338 40.5383 70.631 40.565 70.5512 40.6182C70.4714 40.6714 70.4314 40.7398 70.4314 40.8231C70.4314 41.0172 70.6061 41.1141 70.9557 41.1141C71.1207 41.1141 71.2488 41.0899 71.3395 41.0415C71.4303 40.9928 71.4757 40.9242 71.4757 40.8354C71.4757 40.748 71.4184 40.6765 71.3037 40.6212C71.189 40.5659 71.041 40.5383 70.8594 40.5383ZM70.2472 39.2163C70.2472 39.0154 70.3205 38.8567 70.4673 38.7398C70.614 38.623 70.8144 38.5646 71.0682 38.5646H71.8443V38.8556H71.4635C71.5371 38.9308 71.5884 38.9991 71.617 39.0606C71.6456 39.122 71.6601 39.1924 71.6601 39.2718C71.6601 39.3701 71.632 39.4668 71.576 39.5617C71.52 39.6567 71.4481 39.7295 71.36 39.78C71.272 39.8305 71.1276 39.8708 70.9268 39.9008C70.7863 39.9213 70.7161 39.9699 70.7161 40.0465C70.7161 40.0901 70.7422 40.1261 70.795 40.154C70.8473 40.182 70.9426 40.2111 71.0806 40.2411C71.3113 40.2916 71.4595 40.3313 71.5259 40.3599C71.592 40.3888 71.6518 40.4296 71.7051 40.4829C71.7952 40.5732 71.8402 40.6864 71.8402 40.8231C71.8402 41.0021 71.7607 41.1449 71.6017 41.2515C71.4426 41.358 71.2299 41.4113 70.9638 41.4113C70.6949 41.4113 70.4802 41.3576 70.3198 41.2504C70.1593 41.1432 70.0792 40.9993 70.0792 40.819C70.0792 40.5635 70.2369 40.3989 70.5522 40.3251C70.4266 40.2444 70.3639 40.1646 70.3639 40.0854C70.3639 40.0252 70.3908 39.9707 70.4447 39.9213C70.4987 39.8721 70.5713 39.836 70.6628 39.8127C70.3857 39.6897 70.2472 39.4909 70.2472 39.2163Z" fill="#14191C"/>
<path d="M74.4446 39.2368L73.9831 38.1999L73.5551 39.2368H74.4446ZM73.8429 37.5707H74.1307L75.4134 40.4501H74.9941L74.6129 39.6017H73.3925L73.0351 40.4501H72.6143L73.8429 37.5707Z" fill="#14191C"/>
<path d="M75.5833 40.3148V39.9131C75.6884 39.9869 75.7959 40.0467 75.9058 40.0925C76.0156 40.1383 76.1082 40.1612 76.1833 40.1612C76.261 40.1612 76.3279 40.1421 76.384 40.1037C76.4399 40.0656 76.4679 40.0198 76.4679 39.9664C76.4679 39.9118 76.4498 39.8663 76.4137 39.8302C76.3774 39.794 76.2993 39.7417 76.1792 39.6734C75.9389 39.5394 75.7816 39.425 75.7072 39.3301C75.6328 39.2352 75.5956 39.1316 75.5956 39.0196C75.5956 38.8747 75.652 38.7566 75.7645 38.6651C75.8771 38.5735 76.0221 38.5276 76.1998 38.5276C76.384 38.5276 76.5729 38.5797 76.7668 38.6834V39.0524C76.5457 38.9185 76.3648 38.8515 76.2242 38.8515C76.1519 38.8515 76.0936 38.867 76.0492 38.8978C76.0048 38.9286 75.9826 38.9692 75.9826 39.0199C75.9826 39.0636 76.0027 39.1053 76.0429 39.145C76.0831 39.1847 76.1538 39.2324 76.2548 39.2884L76.3879 39.3642C76.7019 39.5418 76.8589 39.7385 76.8589 39.9543C76.8589 40.1087 76.7986 40.2353 76.6777 40.3344C76.557 40.4334 76.4016 40.4829 76.2119 40.4829C76.1 40.4829 76.0003 40.4708 75.9131 40.4471C75.8256 40.4231 75.7157 40.3791 75.5833 40.3148Z" fill="#14191C"/>
<path d="M77.1969 40.3148V39.9131C77.302 39.9869 77.4095 40.0467 77.5194 40.0925C77.6292 40.1383 77.7218 40.1612 77.7969 40.1612C77.8746 40.1612 77.9415 40.1421 77.9976 40.1037C78.0534 40.0656 78.0814 40.0198 78.0814 39.9664C78.0814 39.9118 78.0633 39.8663 78.0273 39.8302C77.9909 39.794 77.9129 39.7417 77.7928 39.6734C77.5525 39.5394 77.3951 39.425 77.3208 39.3301C77.2464 39.2352 77.2092 39.1316 77.2092 39.0196C77.2092 38.8747 77.2656 38.7566 77.3781 38.6651C77.4907 38.5735 77.6357 38.5276 77.8133 38.5276C77.9976 38.5276 78.1865 38.5797 78.3804 38.6834V39.0524C78.1593 38.9185 77.9784 38.8515 77.8378 38.8515C77.7654 38.8515 77.7072 38.867 77.6628 38.8978C77.6184 38.9286 77.5962 38.9692 77.5962 39.0199C77.5962 39.0636 77.6163 39.1053 77.6565 39.145C77.6967 39.1847 77.7674 39.2324 77.8684 39.2884L78.0014 39.3642C78.3155 39.5418 78.4725 39.7385 78.4725 39.9543C78.4725 40.1087 78.4122 40.2353 78.2914 40.3344C78.1706 40.4334 78.0152 40.4829 77.8255 40.4829C77.7136 40.4829 77.6139 40.4708 77.5267 40.4471C77.4392 40.4231 77.3293 40.3791 77.1969 40.3148Z" fill="#14191C"/>
<path d="M79.7831 38.8965C79.6042 38.8965 79.4576 38.9554 79.3428 39.0729C79.2282 39.1904 79.1709 39.34 79.1709 39.5217C79.1709 39.702 79.2295 39.8494 79.347 39.9634C79.4643 40.0774 79.6151 40.1345 79.7995 40.1345C79.9824 40.1345 80.1322 40.0768 80.249 39.9612C80.3656 39.8458 80.424 39.6979 80.424 39.5176C80.424 39.3386 80.3632 39.1904 80.2418 39.0729C80.1203 38.9554 79.9673 38.8965 79.7831 38.8965ZM79.8036 38.5605C80.0903 38.5605 80.3285 38.653 80.5183 38.8382C80.7079 39.0233 80.8029 39.2561 80.8029 39.536C80.8029 39.8079 80.7066 40.0338 80.514 40.2134C80.3217 40.3931 80.0793 40.4829 79.7872 40.4829C79.5046 40.4829 79.2684 40.3917 79.0787 40.2092C78.889 40.0268 78.7942 39.7992 78.7942 39.5258C78.7942 39.2498 78.89 39.02 79.0817 38.8362C79.2736 38.6525 79.5141 38.5605 79.8036 38.5605Z" fill="#14191C"/>
<path d="M82.6294 40.0095V40.3785C82.4422 40.4481 82.2593 40.4829 82.0805 40.4829C81.7856 40.4829 81.5505 40.3955 81.3751 40.2206C81.1997 40.0457 81.1119 39.8113 81.1119 39.5176C81.1119 39.2211 81.1973 38.9821 81.368 38.8003C81.5386 38.6186 81.7632 38.5276 82.0417 38.5276C82.1386 38.5276 82.2255 38.537 82.3028 38.5554C82.3797 38.5737 82.4749 38.6083 82.5884 38.6589V39.0565C82.3999 38.9363 82.2252 38.8762 82.0641 38.8762C81.8961 38.8762 81.7584 38.9352 81.6505 39.0534C81.5427 39.1715 81.4888 39.3221 81.4888 39.5053C81.4888 39.6979 81.5471 39.851 81.6639 39.9644C81.7806 40.0778 81.9379 40.1345 82.1358 40.1345C82.2791 40.1345 82.4437 40.0929 82.6294 40.0095Z" fill="#14191C"/>
<path d="M83.0613 38.5646H83.434V40.4501H83.0613V38.5646ZM83.2456 37.7715C83.3071 37.7715 83.3595 37.7926 83.4033 37.835C83.4469 37.8774 83.4689 37.9292 83.4689 37.9907C83.4689 38.0509 83.4469 38.1028 83.4033 38.1465C83.3595 38.1902 83.3071 38.2121 83.2456 38.2121C83.1883 38.2121 83.1378 38.19 83.094 38.1454C83.0503 38.101 83.0285 38.0495 83.0285 37.9907C83.0285 37.9333 83.0503 37.8825 83.094 37.8381C83.1378 37.7936 83.1883 37.7715 83.2456 37.7715Z" fill="#14191C"/>
<path d="M84.7895 40.077V39.5176L84.5396 39.6139C84.4127 39.6645 84.3229 39.7153 84.2703 39.7665C84.2178 39.8178 84.1915 39.8818 84.1915 39.9582C84.1915 40.0362 84.2164 40.0996 84.2663 40.1488C84.316 40.198 84.3806 40.2227 84.4599 40.2227C84.5786 40.2227 84.6884 40.1741 84.7895 40.077ZM85.1559 39.3168V40.1181C85.1559 40.1824 85.1778 40.2144 85.2215 40.2144C85.2666 40.2144 85.3368 40.181 85.4324 40.114V40.3415C85.3478 40.3961 85.2799 40.4334 85.2287 40.4532C85.1775 40.473 85.1238 40.4829 85.068 40.4829C84.9082 40.4829 84.814 40.42 84.7854 40.2943C84.627 40.4173 84.4584 40.4788 84.2795 40.4788C84.1484 40.4788 84.0393 40.4354 83.952 40.3486C83.8645 40.2619 83.821 40.1529 83.821 40.0217C83.821 39.9029 83.8636 39.7966 83.9489 39.7031C84.0342 39.6094 84.1553 39.5354 84.3124 39.4807L84.7895 39.3168V39.2163C84.7895 38.9895 84.6762 38.8762 84.4496 38.8762C84.2461 38.8762 84.0482 38.9813 83.8557 39.1917V38.7839C84.0004 38.6131 84.2087 38.5276 84.4803 38.5276C84.6837 38.5276 84.8468 38.581 84.9696 38.6876C85.0105 38.7218 85.0475 38.7672 85.0802 38.824C85.113 38.8805 85.1337 38.9373 85.1427 38.994C85.1516 39.0507 85.1559 39.1583 85.1559 39.3168Z" fill="#14191C"/>
<path d="M85.498 38.8638L86.1983 38.1751V38.5646H86.7941V38.9006H86.1983V39.8236C86.1983 40.039 86.2877 40.1468 86.4665 40.1468C86.6003 40.1468 86.7416 40.1024 86.8904 40.0135V40.362C86.7471 40.4426 86.5908 40.4829 86.4214 40.4829C86.2508 40.4829 86.1089 40.433 85.9956 40.3333C85.96 40.3034 85.9307 40.2694 85.9076 40.2319C85.8842 40.1943 85.8648 40.1451 85.8491 40.0843C85.8334 40.0235 85.8256 39.9077 85.8256 39.7368V38.9006H85.498V38.8638Z" fill="#14191C"/>
<path d="M87.1668 38.5646H87.5395V40.4501H87.1668V38.5646ZM87.351 37.7715C87.4126 37.7715 87.4651 37.7926 87.5087 37.835C87.5524 37.8774 87.5744 37.9292 87.5744 37.9907C87.5744 38.0509 87.5524 38.1028 87.5087 38.1465C87.4651 38.1902 87.4126 38.2121 87.351 38.2121C87.2938 38.2121 87.2433 38.19 87.1996 38.1454C87.1558 38.101 87.1341 38.0495 87.1341 37.9907C87.1341 37.9333 87.1558 37.8825 87.1996 37.8381C87.2433 37.7936 87.2938 37.7715 87.351 37.7715Z" fill="#14191C"/>
<path d="M88.9584 38.8965C88.7795 38.8965 88.6328 38.9554 88.5182 39.0729C88.4035 39.1904 88.3462 39.34 88.3462 39.5217C88.3462 39.702 88.4049 39.8494 88.5223 39.9634C88.6397 40.0774 88.7905 40.1345 88.9747 40.1345C89.1578 40.1345 89.3075 40.0768 89.4243 39.9612C89.541 39.8458 89.5994 39.6979 89.5994 39.5176C89.5994 39.3386 89.5386 39.1904 89.4171 39.0729C89.2957 38.9554 89.1427 38.8965 88.9584 38.8965ZM88.979 38.5605C89.2656 38.5605 89.5038 38.653 89.6936 38.8382C89.8833 39.0233 89.9782 39.2561 89.9782 39.536C89.9782 39.8079 89.882 40.0338 89.6894 40.2134C89.4971 40.3931 89.2547 40.4829 88.9626 40.4829C88.68 40.4829 88.4437 40.3917 88.2541 40.2092C88.0644 40.0268 87.9694 39.7992 87.9694 39.5258C87.9694 39.2498 88.0653 39.02 88.2571 38.8362C88.4489 38.6525 88.6895 38.5605 88.979 38.5605Z" fill="#14191C"/>
<path d="M90.7646 38.5646V38.8043C90.9311 38.6199 91.1202 38.5276 91.3318 38.5276C91.4492 38.5276 91.5584 38.558 91.6594 38.6189C91.7604 38.6796 91.8372 38.7631 91.8898 38.869C91.9423 38.9749 91.9686 39.1425 91.9686 39.3721V40.4501H91.5959V39.3762C91.5959 39.1835 91.5666 39.0458 91.508 38.9632C91.4492 38.8805 91.3509 38.8392 91.2129 38.8392C91.0369 38.8392 90.8874 38.9273 90.7646 39.1037V40.4501H90.3837V38.5646H90.7646Z" fill="#14191C"/>
<path d="M47.8595 36.0518L47.8199 36.1369C47.6387 36.2616 47.4405 36.3634 47.2311 36.4371C47.0215 36.5165 46.8348 36.5504 46.6705 36.5504C46.4158 36.5504 46.2063 36.4654 46.0421 36.2898C45.878 36.1141 45.7931 35.8989 45.7931 35.6382C45.7931 35.5079 45.8044 35.3888 45.827 35.2755C45.8554 35.1679 45.9063 34.9979 45.9855 34.7769C46.0252 34.6578 46.0591 34.5785 46.076 34.5275C46.0988 34.4765 46.1327 34.4142 46.1723 34.335L46.1498 34.4368C46.0932 34.6466 46.076 34.7938 46.0648 34.8619C46.0591 34.9298 46.0535 35.0261 46.0535 35.1452C46.0535 35.4116 46.1102 35.6155 46.2234 35.7571C46.3367 35.8989 46.5007 35.9724 46.7159 35.9724C46.8856 35.9724 47.0725 35.9271 47.2707 35.8421C47.4744 35.7571 47.6387 35.6552 47.7632 35.5304C47.7632 35.3831 47.7575 35.2698 47.7462 35.2019C47.7349 35.1395 47.7066 35.0318 47.6613 34.8901C47.6103 34.7542 47.5197 34.5615 47.3782 34.3293L47.7123 33.9382C47.7462 33.9835 47.7859 34.0402 47.8256 34.114C47.8651 34.1819 47.9048 34.2725 47.9444 34.3803C47.967 34.4368 47.984 34.4935 48.001 34.5388C48.018 34.5899 48.0407 34.6635 48.0576 34.7598L48.0803 35.3492L47.8595 36.0518Z" fill="#14191C"/>
<path d="M50.3898 34.216C50.2484 34.0629 50.0899 33.9893 49.9315 33.9893L49.8408 34.0006C49.7446 34.0289 49.6144 34.1084 49.4275 34.216L49.1444 34.3859L48.969 34.4993L48.5556 34.7599H50.6957C50.639 34.5503 50.5372 34.369 50.3898 34.216ZM48.0462 34.7485L48.5896 34.4029L48.9519 34.1706L49.3256 33.9327L49.6256 33.7514C49.8577 33.6097 50.0332 33.5359 50.1578 33.5359C50.3334 33.5359 50.5315 33.6437 50.7465 33.859C50.9334 34.0459 51.0297 34.2669 51.0297 34.5106C51.0297 34.607 51.0183 34.7032 50.9787 34.7995L50.8089 35.2415L50.7863 35.2926L50.7636 35.3492H47.9725V34.7599L48.0462 34.7485Z" fill="#14191C"/>
<path d="M52.3489 34.335C52.2865 34.233 52.213 34.1762 52.1281 34.1762C52.0487 34.1762 51.9752 34.216 51.9073 34.2953C51.8335 34.3803 51.7996 34.4653 51.7996 34.5673C51.7996 34.6296 51.8223 34.6805 51.8676 34.7203L51.9298 34.743L52.0318 34.7599H52.145H52.4734C52.4507 34.5786 52.411 34.4426 52.3489 34.335ZM53.7019 34.7599V35.3492H52.8357C52.8017 35.5363 52.7338 35.7289 52.6318 35.9272C52.5243 36.1312 52.411 36.2899 52.2865 36.4088C52.1563 36.5279 52.0431 36.5901 51.9298 36.5901C51.845 36.5901 51.7487 36.5448 51.6412 36.4541C51.5336 36.3634 51.3977 36.2105 51.2278 35.9895C51.3071 36.0236 51.3807 36.0406 51.443 36.0518C51.5109 36.0689 51.5732 36.0745 51.6299 36.0745C51.8166 36.0745 51.9922 36.0064 52.1506 35.8761C52.3092 35.7458 52.4337 35.5702 52.5186 35.3492H52.0885L51.7826 35.3379C51.6694 35.3153 51.5732 35.2642 51.5054 35.185C51.4316 35.1 51.3977 35.0036 51.3977 34.8845C51.3977 34.7089 51.443 34.5218 51.5279 34.3179C51.6185 34.1196 51.7374 33.9439 51.8903 33.7853C51.9695 33.7003 52.0657 33.655 52.1733 33.655C52.3204 33.655 52.4677 33.7626 52.6036 33.9836C52.7451 34.1989 52.8301 34.4597 52.864 34.7599H53.7019Z" fill="#14191C"/>
<path d="M55.5473 34.0234C55.5473 33.9382 55.4851 33.8929 55.3606 33.8929L55.1454 33.9213C55.219 33.961 55.2812 34.012 55.3265 34.0742C55.3718 34.1366 55.4001 34.199 55.417 34.2669C55.5021 34.1593 55.5473 34.0799 55.5473 34.0234ZM55.1737 32.8163L54.7831 32.4593L55.0888 32.1761L55.4794 32.5388L55.1737 32.8163ZM56.8268 35.3492H55.219L55.1284 35.1453L54.9586 35.3492H53.4187V34.7599H54.9586C54.9076 34.5332 54.8227 34.3633 54.698 34.2387C54.5792 34.114 54.4264 34.0516 54.2453 34.0516L54.5283 33.4397C54.851 33.3545 55.1227 33.3093 55.3549 33.3093C55.785 33.3093 56.0002 33.4794 56.0002 33.8193C56.0002 33.8986 55.9889 33.9724 55.9663 34.0459C55.921 34.1649 55.87 34.2669 55.8135 34.3463C55.8078 34.3577 55.7341 34.471 55.5757 34.6806L55.519 34.7599H56.8268V35.3492Z" fill="#14191C"/>
<path d="M57.8402 34.454V34.6296C57.8402 34.7146 57.8968 34.7599 57.9988 34.7599H58.0894H58.6895V35.3492H57.761H57.6251L57.4892 35.3322C57.4213 35.304 57.3761 35.2529 57.3591 35.168L57.2287 35.3492H56.5494L56.5608 34.7599H57.3591V32.482L57.8402 31.9664V34.454Z" fill="#14191C"/>
<path d="M59.9235 32.8901L59.8103 32.8447L59.9009 34.0629L59.9121 34.2103L59.9178 34.2783V34.3972C59.9178 34.4766 59.9121 34.5503 59.8952 34.6296C59.8782 34.7032 59.8443 34.8166 59.7933 34.964L59.7876 34.9866L59.6913 35.2529L59.6517 35.3492H58.4177V34.7599H59.5216L59.3518 32.6691C59.2498 32.635 59.1931 32.5896 59.1931 32.5161C59.1931 32.4877 59.2101 32.4481 59.2385 32.4028L59.2837 32.3347L59.5102 31.9551C59.5102 32.0345 59.5329 32.1023 59.5781 32.1591C59.6065 32.1874 59.6631 32.2157 59.7424 32.2497L60.1274 32.4197L59.9235 32.8901Z" fill="#14191C"/>
<path d="M63.5693 33.8136L63.3315 33.5926L63.0768 33.8136L62.6974 33.4453L63.0033 33.179L63.2353 33.3887L63.5014 33.179L63.8864 33.5359L63.5693 33.8136ZM62.5447 35.3492L62.3918 35.3435H62.2162C62.1823 35.3435 62.1428 35.3379 62.1031 35.3266C62.069 35.3096 62.0295 35.2926 61.9841 35.2699C61.8878 35.2132 61.8143 35.1339 61.7633 35.0319C61.7124 34.9356 61.6898 34.811 61.6898 34.6692C61.6898 34.5163 61.7181 34.3577 61.769 34.1932C61.8257 34.0289 61.9049 33.876 62.0011 33.7287C61.9615 33.8703 61.9389 34.0177 61.9389 34.1762C61.9389 34.4369 62.0181 34.607 62.1823 34.692C62.2616 34.7373 62.4257 34.7599 62.6692 34.7599H64.594C64.594 34.5275 64.5204 34.3066 64.3619 34.0914L64.696 33.6437C64.8884 33.8817 64.9846 34.1253 64.9846 34.369C64.9846 34.4993 64.945 34.6977 64.8487 34.9583L64.7017 35.3492H62.5447Z" fill="#14191C"/>
<path d="M65.5676 35.0884C65.5847 34.9297 65.5904 34.8108 65.5904 34.7371C65.5791 34.4878 65.5676 34.2724 65.5564 34.0912C65.5507 33.9155 65.545 33.7285 65.545 33.5302C65.545 33.3035 65.5394 33.1166 65.5168 32.9691C65.4998 32.8161 65.4771 32.6915 65.4602 32.5895L65.9641 31.9662L66.0829 32.7085L65.9696 32.8445L65.981 32.9182C66.0149 33.3431 66.0376 33.7171 66.0376 34.0458C66.0376 34.3461 66.0037 34.6124 65.9414 34.8335C65.896 34.9978 65.7715 35.2358 65.5507 35.5587C65.5507 35.4115 65.5564 35.2527 65.5676 35.0884Z" fill="#14191C"/>
<path d="M67.4924 34.5503C67.5547 34.7203 67.5886 34.8734 67.5886 35.0093C67.5886 35.3153 67.4867 35.6383 67.3 35.9782C67.198 36.1653 67.0848 36.3126 66.9659 36.4202C66.8414 36.5279 66.7282 36.5846 66.6149 36.5846C66.5243 36.5846 66.4224 36.5279 66.3036 36.4259C66.2357 36.3691 66.1847 36.3126 66.1394 36.2673C66.0941 36.2163 66.0317 36.1426 65.9526 36.0293L65.9072 35.9669C66.0489 36.0293 66.196 36.0632 66.3375 36.0632C66.5243 36.0632 66.7055 35.9839 66.8809 35.8252C67.0622 35.6723 67.198 35.4627 67.3056 35.202C67.2773 35.1113 67.2489 35.0433 67.2319 34.998C67.2094 34.9527 67.1755 34.8902 67.1358 34.8224C67.0678 34.7033 66.9886 34.59 66.9037 34.4766L67.2376 34.0857C67.3452 34.2274 67.4302 34.3804 67.4924 34.5503Z" fill="#14191C"/>
<path d="M68.5794 35.3492H68.4379C68.387 35.3492 68.336 35.3379 68.2793 35.3096C68.2227 35.2868 68.1945 35.2246 68.1945 35.1282L68.1832 35.0093V34.9016V32.4707L68.6643 31.9664V34.505C68.6643 34.5503 68.6643 34.5956 68.6643 34.6353C68.6643 34.6523 68.67 34.6806 68.687 34.7089C68.704 34.743 68.7719 34.7599 68.8907 34.7599H69.5192V35.3492H68.5794Z" fill="#14191C"/>
<path d="M71.5912 34.7712C71.5912 34.5502 71.5347 34.3463 71.4044 34.1762C71.3083 34.0516 71.2176 33.9949 71.1384 33.9949C71.0873 33.9949 71.0309 34.0289 70.9571 34.097C70.8837 34.1705 70.7648 34.3008 70.6175 34.5049L70.5836 34.5502L71.5686 34.9752C71.5855 34.8959 71.5912 34.8223 71.5912 34.7712ZM69.2362 34.7599H70.0344L70.3005 34.4029L70.4986 34.1479C70.5779 34.0402 70.6401 33.961 70.6854 33.8986C70.7533 33.8192 70.827 33.7343 70.9063 33.655C71.0195 33.5529 71.1327 33.502 71.246 33.502C71.4328 33.502 71.614 33.6493 71.7724 33.9326C71.846 34.0573 71.9026 34.1932 71.9535 34.335C71.9989 34.471 72.0216 34.5956 72.0216 34.692C72.0216 34.7938 71.9763 34.9299 71.8969 35.0886C71.863 35.1508 71.7668 35.3039 71.6197 35.5702L71.5855 35.6268L70.2326 35.0432L70.0401 35.3492H69.2362V34.7599Z" fill="#14191C"/>
<path d="M72.848 36.7715C72.7405 36.7942 72.6724 36.8056 72.6328 36.8168C72.6215 36.8224 72.5818 36.8338 72.5197 36.8622C72.3725 36.9245 72.2366 37.0209 72.1233 37.1569C72.146 36.9982 72.2082 36.8679 72.3044 36.7603C72.1517 36.7261 72.0724 36.6355 72.0724 36.4882C72.0724 36.3748 72.1403 36.2388 72.2705 36.0802C72.3725 35.9556 72.514 35.8933 72.6894 35.8933C72.7969 35.8933 72.8536 35.9272 72.8536 36.0064C72.8536 36.0575 72.8253 36.1312 72.7744 36.2162C72.7291 36.1992 72.6838 36.1935 72.6272 36.1935C72.4686 36.1935 72.3441 36.2501 72.2479 36.3691C72.3611 36.4825 72.514 36.5393 72.712 36.5393C72.7348 36.5393 72.763 36.5393 72.7914 36.5393C72.8139 36.5336 72.8707 36.5166 72.9613 36.4825L72.848 36.7715Z" fill="#14191C"/>
<path d="M73.4309 34.3972L73.0744 34.7146L73.063 34.7599H74.1727L74.1896 34.7032C74.1896 34.6749 74.1784 34.6466 74.1556 34.6126L73.7593 34.0629L73.4309 34.3972ZM74.6255 32.958L74.3707 33.3545C74.3029 33.4509 74.2009 33.5812 74.0594 33.7457L74.0197 33.7967L74.3086 34.233L74.4331 34.4312C74.4897 34.5163 74.5066 34.6013 74.5066 34.6749C74.5066 34.7373 74.4897 34.8392 74.4388 34.9695L74.3029 35.3492H72.5761L72.5989 35.2699L72.6837 34.7032L72.695 34.6296C72.7913 34.5503 72.8649 34.4879 72.9215 34.4312C72.9838 34.3803 73.0574 34.3122 73.148 34.2216C73.2441 34.1366 73.3179 34.0629 73.3688 34.0006C73.4252 33.9439 73.482 33.876 73.5385 33.8079L73.2046 33.4283C73.131 33.349 73.0686 33.2867 73.0233 33.2414C72.9725 33.2017 72.9102 33.145 72.8367 33.0883C72.7969 33.179 72.7516 33.2186 72.695 33.2186C72.6554 33.2186 72.6157 33.2074 72.5817 33.1733C72.4063 32.9863 72.3214 32.8333 72.3214 32.703C72.3214 32.6237 72.361 32.5046 72.4515 32.3404C72.4912 32.261 72.5251 32.2157 72.5422 32.1987C72.5592 32.1818 72.5874 32.1705 72.6214 32.1705C72.678 32.1705 72.7404 32.2044 72.8082 32.2781C72.9555 32.4254 73.1027 32.5841 73.2498 32.7655C73.3913 32.9411 73.5669 33.1507 73.7367 33.417L73.7764 33.4851C73.867 33.3717 73.9576 33.2299 74.0537 33.0543C74.1442 32.8787 74.2123 32.7313 74.2519 32.6123C74.1784 32.55 74.1442 32.4934 74.1442 32.4424C74.1442 32.3971 74.1556 32.3574 74.1896 32.329L74.3086 32.1987L74.5803 31.9381L74.5633 32.0458C74.5633 32.125 74.6199 32.2044 74.7218 32.2837L75.0728 32.5614L74.7614 32.9807L74.6596 32.9014L74.6255 32.958Z" fill="#14191C"/>
<path d="M75.4464 35.0884C75.4635 34.9297 75.4692 34.8108 75.4692 34.7371C75.4578 34.4878 75.4464 34.2724 75.4352 34.0912C75.4295 33.9155 75.4238 33.7285 75.4238 33.5302C75.4238 33.3035 75.4181 33.1166 75.3956 32.9691C75.3786 32.8161 75.3559 32.6915 75.339 32.5895L75.8429 31.9662L75.9617 32.7085L75.8484 32.8445L75.8597 32.9182C75.8937 33.3431 75.9163 33.7171 75.9163 34.0458C75.9163 34.3461 75.8824 34.6124 75.8202 34.8335C75.7748 34.9978 75.6503 35.2358 75.4295 35.5587C75.4295 35.4115 75.4352 35.2527 75.4464 35.0884Z" fill="#14191C"/>
<path d="M79.3243 32.8447L79.0808 32.6237L78.8261 32.8447L78.4412 32.4763L78.7583 32.2101L78.9903 32.4254L79.2508 32.2101L79.6357 32.567L79.3243 32.8447ZM78.277 34.3859C78.2147 34.42 78.1695 34.471 78.1525 34.5445L79.115 34.6864L78.9791 34.0006L78.277 34.3859ZM79.6187 34.7599H80.4453V35.3492H79.262L79.1828 34.9979L78.996 35.2699L77.6373 35.0659L77.8524 34.4086L77.8978 34.284C77.9203 34.233 77.9826 34.1819 78.0789 34.1253L78.9111 33.6719L78.8771 33.5359L79.2961 33.1733L79.6187 34.7599Z" fill="#14191C"/>
<path d="M81.0454 35.8534L81.2831 36.0744L81.5379 35.8534L81.9228 36.2161L81.6115 36.488L81.3737 36.2672L81.1133 36.488L80.7226 36.1311L81.0454 35.8534ZM81.6511 34.7598H82.4494V35.3491H81.3625L81.3001 35.1564L81.136 35.3491H80.1678V34.7598H81.1869L81.0566 34.3293L81.4246 33.9722L81.6511 34.7598Z" fill="#14191C"/>
<path d="M84.2951 34.0234C84.2951 33.9382 84.2328 33.8929 84.1082 33.8929L83.893 33.9213C83.9668 33.961 84.0289 34.012 84.0743 34.0742C84.1195 34.1366 84.1479 34.199 84.1648 34.2669C84.2497 34.1593 84.2951 34.0799 84.2951 34.0234ZM85.5745 35.3492H83.9668L83.8762 35.1453L83.7063 35.3492H82.1664V34.7599H83.7063C83.6554 34.5332 83.5704 34.3633 83.4458 34.2387C83.3269 34.114 83.1741 34.0516 82.9929 34.0516L83.276 33.4397C83.5988 33.3545 83.8705 33.3093 84.1026 33.3093C84.5328 33.3093 84.7479 33.4794 84.7479 33.8193C84.7479 33.8986 84.7367 33.9724 84.714 34.0459C84.6688 34.1649 84.6177 34.2669 84.5611 34.3463C84.5556 34.3577 84.4819 34.471 84.3234 34.6806L84.2667 34.7599H85.5745V35.3492Z" fill="#14191C"/>
<path d="M87.5616 34.4936V34.3915C87.5616 34.2555 87.471 34.1819 87.301 34.1819C87.0181 34.1819 86.7916 34.3122 86.6161 34.5729L87.5616 35.1225V34.4936ZM88.7334 35.3492H87.8107L87.5842 35.8082L86.2425 35.0432L86.0442 35.3492H85.297V34.7599H86.1801C86.2991 34.4199 86.4746 34.1536 86.7124 33.9667C86.9445 33.774 87.2218 33.6833 87.5331 33.6833C87.6975 33.6833 87.805 33.723 87.8616 33.8079C87.8786 33.8363 87.8898 33.8647 87.8898 33.8986C87.8955 33.927 87.9011 34.0063 87.9011 34.1196V34.7599H88.7334V35.3492Z" fill="#14191C"/>
<path d="M90.3525 35.7685L90.7432 36.1312L90.4318 36.4202L90.0467 36.0463L90.3525 35.7685ZM91.6773 34.9129C91.4961 34.8789 91.3375 34.8563 91.213 34.8563C90.862 34.8563 90.5676 34.9752 90.3298 35.1962C90.2563 35.2699 90.1939 35.3096 90.16 35.3266C90.126 35.3435 90.0638 35.3492 89.9731 35.3492H89.8543H88.4617V34.7599H90.1826C90.245 34.7032 90.2902 34.6692 90.3241 34.6523C90.3582 34.6352 90.4091 34.6126 90.4771 34.59C90.2959 34.4426 90.1033 34.3179 89.8997 34.216C89.6958 34.114 89.5317 34.0629 89.4127 34.0629L89.2938 34.0856L89.492 33.8873C89.6335 33.7457 89.7694 33.6663 89.8997 33.6663C89.9958 33.6663 90.1317 33.7115 90.3016 33.8079C90.4715 33.8986 90.6582 33.9893 90.8564 34.0799C91.0545 34.1649 91.2187 34.233 91.3546 34.2783C91.4337 34.3065 91.5131 34.3294 91.6037 34.3463C91.6887 34.3633 91.796 34.3859 91.932 34.3972L91.9999 34.4029L91.6773 34.9129Z" fill="#14191C"/>
<path d="M10.4794 25.6273C10.4794 25.6273 24.0644 22.9435 30.6782 32.068C30.6782 32.068 30.7676 32.4125 31.0089 32.1307C31.0089 32.1307 32.1753 31.3256 34.7091 31.0438C34.7091 31.0438 36.8005 30.7621 37.7256 28.4675C37.7256 28.4675 38.2886 33.902 34.2265 35.2304C34.2265 35.2304 32.6177 35.2304 31.0491 34.385C31.0491 34.385 30.647 34.2239 30.1242 34.4252C30.1242 34.4252 28.9176 35.1902 28.5153 35.6732C28.5153 35.6732 27.7512 36.4379 27.5099 36.3575C27.5099 36.3575 26.8664 36.4381 26.5446 36.1563C26.5446 36.1563 25.2576 35.8341 24.1717 35.7536C24.1717 35.7536 20.5519 35.8744 18.7421 35.5121C18.7421 35.5121 16.0876 35.3513 12.9104 31.688C12.9104 31.688 9.69733 28.6644 10.4794 25.6273Z" fill="#14191C"/>
<path d="M9.85364 25.8107C9.85364 25.8107 9.37101 30.8024 16.0072 35.3109C16.0072 35.3109 7.23938 31.6075 9.85364 25.8107Z" fill="#14191C"/>
<path d="M16.2888 35.4719C16.2888 35.4719 17.2942 36.4783 25.3782 36.438C25.3782 36.438 26.424 37.2832 27.9523 36.8807C27.9523 36.8807 28.3545 36.6392 29.0382 35.8744C29.0382 35.8744 30.0035 34.8277 31.2503 35.19C31.2503 35.19 29.6012 35.9146 29.1991 37.5651C29.1991 37.5651 28.9578 39.0144 26.7859 38.3702C26.7859 38.3702 23.8902 37.6054 23.6087 37.5249C23.6087 37.5249 17.254 37.0418 16.2888 35.4719Z" fill="#14191C"/>
<path d="M0 33.0968C0 33.0968 1.16632 32.815 2.65446 29.9972C2.65446 29.9972 3.82078 28.1857 4.22301 27.7832C4.22301 27.7832 5.38942 26.2534 7.19928 26.817C7.19928 26.817 8.3656 27.0586 8.72758 27.4209C8.72758 27.4209 6.83721 26.7768 4.46432 28.9506C4.46432 28.9506 2.5338 30.8425 1.32723 33.0163C1.32723 33.0163 1.52829 33.9423 5.55024 31.7282C5.55024 31.7282 9.81354 29.0712 10.3364 31.9294C10.3364 31.9294 9.33091 31.5671 8.04388 32.2515C8.04388 32.2515 4.58498 33.8213 3.78063 33.8617C3.78063 33.8617 0.643489 34.3045 0 33.0968Z" fill="#14191C"/>
<path d="M10.4972 31.5269C10.4972 31.5269 12.7897 36.7601 20.5922 38.6118C20.5922 38.6118 23.2869 37.9273 24.6946 39.5376C24.6946 39.5376 22.1205 38.4105 17.254 41.1881C17.254 41.1881 15.9268 42.2751 14.5191 42.3555C14.5191 42.3555 12.9505 42.758 11.8244 42.3957C11.8244 42.3957 9.17003 42.436 8.40588 42.6775C8.40588 42.6775 9.61246 41.8321 11.9049 42.0334C11.9049 42.0334 12.4277 42.2749 13.5538 41.8321C13.5538 41.8321 16.9725 40.1012 17.8171 39.7389C17.8171 39.7389 12.0255 37.4846 10.4972 31.5269Z" fill="#14191C"/>
<path d="M8.56665 42.8788C8.56665 42.8788 9.81347 43.3216 11.2614 43.4826C11.2614 43.4826 18.0584 45.294 23.0053 43.4021C23.0053 43.4021 27.349 41.3492 24.5336 39.9402C24.5336 39.9402 26.4641 39.6181 27.1881 40.5842C27.1881 40.5842 29.3197 38.5314 31.3307 40.3025L27.2284 40.866C27.2284 40.866 27.711 42.5971 24.8554 43.8047C24.8554 43.8047 19.1845 47.5081 8.56665 42.8788Z" fill="#14191C"/>
<path d="M32.1753 35.1498C32.1753 35.1498 36.8809 35.7939 37.7255 36.3977C37.7255 36.3977 40.7821 37.9274 38.8918 40.8258C38.8918 40.8258 39.4147 38.2092 37.8864 37.0821C37.8864 37.0821 37.1222 36.6393 36.2373 36.4783C36.2373 36.4783 33.7037 35.8744 32.1753 35.1498Z" fill="#14191C"/>
<path d="M35.6744 38.1689C35.6744 38.1689 36.881 38.6117 36.9211 39.1753C36.9211 39.1753 35.6744 39.6181 35.6744 38.1689Z" fill="#14191C"/>
<path d="M30.9687 36.2367C30.9687 36.2367 32.3361 41.7114 38.4092 41.0271C38.4092 41.0271 36.3983 42.3555 32.7383 40.705C32.7383 40.705 30.5263 40.3025 30.9687 36.2367Z" fill="#14191C"/>
<path d="M5.07961 15.8769C5.07961 15.8769 4.83849 15.2798 5.34082 15.3257C5.34082 15.3257 7.49464 16.0349 8.39085 18.9984C8.39085 18.9984 8.00663 18.5933 7.31196 18.1654C7.31196 18.1654 5.89872 17.3816 5.2735 16.4982C5.2735 16.4982 4.93774 16.1887 5.07961 15.8769ZM41.1476 11.923C41.6928 12.2282 42.3222 12.3765 42.3222 12.3765C44.0575 12.9528 42.8951 11.6456 42.8951 11.6456C42.6358 11.288 42.7325 11.0976 42.7325 11.0976C43.024 10.9022 42.7253 10.5319 42.7253 10.5319C43.0275 9.7287 43.1117 9.46374 43.1117 9.46374C43.5242 9.10133 43.0006 8.93672 43.0006 8.93672C42.5985 8.57262 38.4268 8.09644 38.4268 8.09644C37.3507 8.10513 35.9255 7.99862 35.9255 7.99862C35.0967 7.27149 33.9146 7.03793 33.9146 7.03793C32.782 6.81415 32.9432 8.33133 32.9432 8.33133C28.4439 8.31309 26.1427 9.34358 26.1427 9.34358C25.2184 9.87785 24.087 10.1666 24.087 10.1666C26.1539 5.91433 30.342 3.61774 30.342 3.61774C30.342 3.61774 32.6277 3.37658 33.1813 3.61255C33.1813 3.61255 35.9115 4.84266 39.0225 3.64129C39.0225 3.64129 41.1505 3.07937 39.1504 2.68749C39.1504 2.68749 38.6547 2.06567 38.4603 2.04478C38.4603 2.04478 38.2199 1.14894 37.3334 2.24947C37.3334 2.24947 35.9613 2.62324 35.4012 3.15533C35.4012 3.15533 35.0229 3.40701 34.4326 3.19567C34.4326 3.19567 32.2224 2.48763 30.5183 1.46438C30.5183 1.46438 29.884 0.495966 29.3021 1.10752C28.0068 3.41269 27.1129 3.64552 27.1129 3.64552C24.3989 4.95316 21.9959 8.57539 21.9959 8.57539C19.9209 9.49707 16.1951 9.42147 16.1951 9.42147L20.3543 9.35747C21.0635 7.32088 20.2691 5.86434 20.2691 5.86434L10.9693 5.70916C10.8488 5.47028 11.0577 3.8664 11.0577 3.8664L10.0769 3.70264L10.0345 5.16245C9.94096 5.68911 9.65474 5.8339 9.65474 5.8339L8.53078 5.74237C7.38317 5.72292 7.12249 6.27421 7.12249 6.27421C6.90794 6.44256 7.0771 6.89652 7.0771 6.89652C6.69679 7.44853 6.57586 7.08998 6.57586 7.08998C6.9809 6.70547 6.54777 6.08522 6.54777 6.08522C6.06984 6.08691 6.1922 6.80437 6.1922 6.80437C5.78583 6.82985 5.57213 7.23719 5.57213 7.23719C5.26037 6.97525 5.49805 6.61562 5.49805 6.61562C5.59179 6.08884 5.01913 6.37831 5.01913 6.37831C4.13608 6.76464 4.75873 7.04928 4.75873 7.04928C4.95014 7.07247 4.8563 7.59901 4.8563 7.59901C4.71472 8.03026 5.09983 8.67502 5.09983 8.67502C3.64265 8.99167 2.8811 9.85587 2.8811 9.85587C2.54566 9.66566 1.99611 9.76348 1.99611 9.76348C-0.0358359 9.77169 0.0917498 11.8048 0.0917498 11.8048C-0.0954576 12.8583 1.39066 13.9052 1.39066 13.9052C0.748107 14.6498 1.89572 14.6693 1.89572 14.6693C2.61476 15.1448 2.4925 14.4273 2.4925 14.4273L2.87479 14.3542C2.85306 14.9046 3.78721 15.4515 3.78721 15.4515C3.5746 16.098 3.64799 16.4808 3.64799 16.4808C3.7924 16.7674 4.72325 16.3571 4.72325 16.3571C5.15662 17.2165 6.57072 18.1205 6.57072 18.1205C7.67407 19.1211 7.60328 19.3364 7.60328 19.3364C7.1289 20.2955 7.89229 19.9097 7.89229 19.9097C7.99386 21.4166 9.30775 21.1725 9.30775 21.1725C10.5722 20.4735 9.80324 19.4237 9.80324 19.4237C10.0657 19.351 11.8249 16.784 11.8249 16.784C14.2648 17.0757 15.5053 16.4824 15.5053 16.4824C16.4913 16.5408 17.0107 16.3807 17.0107 16.3807C17.8935 16.229 27.6642 11.4879 27.6642 11.4879C30.329 10.1706 35.0532 9.5676 35.0532 9.5676C36.3139 9.32945 41.1476 11.923 41.1476 11.923ZM3.28775 9.95018C3.28775 9.95018 4.16921 9.08514 4.71895 9.10676C4.71895 9.10676 5.05656 9.89523 5.69874 9.0314C5.69874 9.0314 6.07936 8.59918 6.17783 9.26883C6.17783 9.26883 4.9361 9.6566 4.48537 10.5436C4.48537 10.5436 3.69464 10.0443 3.28775 9.95018Z" fill="#14191C"/>
</svg>
