<svg width="180" height="54" viewBox="0 0 180 54" fill="none" xmlns="http://www.w3.org/2000/svg">
<path d="M156.91 0.064434V4.1717H166.35V23.0732H170.457V4.1717H179.897V0.064434H156.91ZM149.148 6.27902C149.148 5.52636 148.76 4.98879 148.524 4.7737C148.266 4.51565 147.771 4.1717 147.04 4.1717H136.611V8.40783L147.04 8.36487C147.341 8.36487 147.642 8.30044 147.9 8.17126C148.653 7.84878 149.148 7.09612 149.148 6.27902ZM149.62 11.9346C149.061 12.1926 148.481 12.3644 147.836 12.4289L151.126 18.9659L153.233 23.0732H148.632L146.524 18.9659L144.331 14.6654L144.223 14.4718C143.492 13.2892 142.223 12.4936 140.739 12.4936H136.633V23.0732H132.525V0.064434H147.04C148.739 0.064434 150.287 0.752664 151.405 1.87076C152.523 3.03212 153.212 4.55861 153.212 6.27902C153.233 8.77326 151.749 10.9453 149.62 11.9346ZM117.387 0.021478L107.753 18.923L105.646 23.0302H110.248L112.355 18.923L117.387 9.0531L122.419 18.923L124.526 23.0302H129.128L127.02 18.923L117.387 0.021478ZM90.6795 8.85949L83.2823 3.16099L79.1751 0V23.0088H83.2823V8.3434L87.3249 11.44L90.6795 14.0419L94.0341 11.44L98.0769 8.3434V23.0517H102.184V0.042956L98.0769 3.20394L90.6795 8.85949ZM74.4443 6.23606V6.36493L70.3374 6.4082V6.27902C70.3374 5.11797 69.3911 4.1717 68.2298 4.1717H58.876C57.7146 4.1717 56.7686 5.11797 56.7686 6.27902V6.4082C56.7686 7.56925 57.7146 8.51552 58.876 8.51552H67.1546C69.2834 8.51552 71.1974 9.44001 72.5091 10.8809C72.6165 10.9883 72.681 11.0742 72.7672 11.1819C73.7779 12.4289 74.4014 14.0419 74.4014 15.7835C74.4014 19.8048 71.1545 23.0517 67.1331 23.0517H59.9296C55.9083 23.0517 52.6614 19.8048 52.6614 15.7835H56.7686C56.7686 17.5254 58.1877 18.9445 59.9296 18.9445H67.1331C68.875 18.9445 70.3156 17.5254 70.3156 15.7835C70.3156 14.0419 68.875 12.6225 67.1331 12.6225H58.876C57.1985 12.6225 55.6935 11.956 54.5751 10.8809C54.2741 10.5796 54.016 10.2571 53.7795 9.89167C53.0916 8.90244 52.7043 7.69812 52.7043 6.36493V6.23606C52.7043 2.81703 55.4569 0.021478 58.876 0.021478H68.2083C71.6491 0.021478 74.4443 2.81703 74.4443 6.23606Z" fill="#0095D5"/>
<path d="M3.69857 36.5128L3.76299 36.2977H13.4828C13.4828 39.5234 14.1278 41.8458 15.4395 43.2649C16.7512 44.684 18.6864 45.3937 21.2239 45.3937C23.3742 45.3937 24.9869 44.8132 26.0624 43.6304C27.1375 42.4478 27.6751 40.8781 27.6751 38.9211C27.6751 36.8785 27.159 35.244 26.1053 34.0615C25.0517 32.8787 23.1809 31.7176 20.4713 30.578C15.1815 28.707 11.2249 26.5996 8.55848 24.2557C5.89211 21.8904 4.55862 18.6005 4.55862 14.3429C4.55862 10.1279 6.08541 6.68743 9.11754 4.04254C12.1493 1.39764 16.0415 0.0644531 20.7508 0.0644531H0V53.0489H21.2454C16.3643 53.0489 12.1926 51.6942 8.7303 48.9634C5.26831 46.2323 3.5697 42.0821 3.69857 36.5128Z" fill="#ED1C24"/>
<path d="M23.502 0.0429688H20.7282C25.717 0.0429688 29.7381 1.46207 32.7917 4.2791C35.8235 7.11761 37.3073 10.9021 37.2214 15.6761L37.157 15.8912H27.4586C27.4586 13.2245 26.8566 11.2034 25.6741 9.82694C24.4913 8.4508 22.7711 7.76288 20.5561 7.76288C18.6424 7.76288 17.1586 8.38636 16.1049 9.65512C15.0512 10.9239 14.5137 12.4936 14.5137 14.3859C14.5137 16.1274 15.1157 17.5683 16.32 18.7079C17.5243 19.8478 19.5884 21.0733 22.5131 22.4283C27.4804 24.0839 31.2649 26.1698 33.8239 28.6855C36.3829 31.2015 37.6513 34.5991 37.6513 38.8782C37.6513 43.2864 36.1463 46.7484 33.1571 49.2859C30.1683 51.8019 26.1902 53.0707 21.2443 53.0707H22.9215C22.9215 53.0707 43.8444 53.5006 43.8229 25.7825C43.8015 1.44059 23.502 0.0429688 23.502 0.0429688Z" fill="#0095D5"/>
<path d="M57.2636 48.3181H65.8006C70.5099 48.3181 74.3373 44.4907 74.3373 39.7814C74.3373 35.0721 70.5099 31.2444 65.8006 31.2444H57.2636V48.3181ZM65.8006 26.5137C73.1333 26.5137 79.0895 32.4272 79.0895 39.7599C79.0895 43.0283 77.907 46.0175 75.95 48.3399C75.7137 48.5979 75.4554 48.8775 75.1973 49.1355C72.8105 51.5653 69.4992 53.0492 65.865 53.0492H52.5758V26.4707L65.8006 26.5137Z" fill="#ED1C24"/>
<path d="M89.3466 26.4707H84.5944V53.0274H89.3466V26.4707Z" fill="#ED1C24"/>
<path d="M120.376 26.4707L117.946 31.2229L106.829 53.0274L95.7119 31.2229L93.2817 26.4707H98.593L101.023 31.2229L106.829 42.5984L112.635 31.2229L115.065 26.4707H120.376Z" fill="#ED1C24"/>
<path d="M127.429 33.6527V36.1258H144.503V40.878H127.429V45.8883C127.429 47.2215 128.526 48.3181 129.859 48.3181H149.255V53.0703H129.859C125.902 53.0703 122.72 49.8449 122.72 45.8883V33.6742C122.72 29.7176 125.902 26.4922 129.859 26.4922H149.255V31.2229H129.859C128.526 31.2229 127.429 32.3196 127.429 33.6527Z" fill="#ED1C24"/>
<path d="M175.082 33.8249V33.6745C175.082 32.3413 173.985 31.2444 172.652 31.2444H161.878C160.545 31.2444 159.449 32.3413 159.449 33.6745V33.8249C159.449 35.158 160.545 36.2547 161.878 36.2547H171.448C173.92 36.2547 176.114 37.3086 177.64 38.9858C177.748 39.0932 177.834 39.2224 177.942 39.3297C179.124 40.7706 179.834 42.6414 179.834 44.641C179.834 49.2644 176.071 53.0277 171.448 53.0277H163.147C158.524 53.0277 154.761 49.2644 154.761 44.641H159.513C159.513 46.6624 161.148 48.2751 163.147 48.2751H171.448C173.469 48.2751 175.125 46.6409 175.125 44.641C175.125 42.6199 173.448 41.0072 171.448 41.0072H161.878C159.943 41.0072 158.201 40.2545 156.911 38.9858C156.567 38.6418 156.266 38.2546 156.008 37.8462C155.213 36.7063 154.761 35.3087 154.761 33.7819V33.6312C154.761 29.6746 157.943 26.4492 161.9 26.4492H172.673C176.63 26.4492 179.834 29.6746 179.834 33.6312V33.7819L175.082 33.8249Z" fill="#ED1C24"/>
</svg>
