<svg width="81" height="32" viewBox="0 0 81 32" fill="none" xmlns="http://www.w3.org/2000/svg">
<path d="M77.1571 4.05653C78.8174 3.52781 80.086 2.84802 81.0001 2.01718V5.49163C76.9519 7.22886 71.6912 8.09747 65.1993 8.09747C60.9459 8.09747 55.6106 7.68205 49.1746 6.87008C43.8766 6.13365 38.5972 5.37833 33.3365 4.62302C24.4567 3.37674 18.2259 2.75361 14.6255 2.75361C7.42469 2.75361 2.55574 4.03765 0 6.60572V2.58366C3.91755 0.865318 8.9171 -0.0032959 15.0173 -0.0032959C17.4051 -0.0032959 19.9609 0.128884 22.6658 0.393245C25.035 0.61984 32.3105 1.6584 44.5109 3.47116C53.4653 4.79296 60.7407 5.47275 66.3559 5.47275C70.6465 5.47275 74.2283 5.00068 77.1571 4.05653ZM81.0001 31.2102H0.018655V32.0032H81.0001V31.2102Z" fill="#59C9A5"/>
<path d="M21.6398 15.6316L21.6025 18.7284L19.9049 19.0872L18.5058 22.4106L19.5504 23.9023L17.3678 26.0739L15.9314 25.1108L12.6854 26.4515L12.3683 28.0943H9.34615L9.02901 26.5271L5.67111 25.092L4.32795 26.055L2.16397 23.8834L3.07806 22.4861L1.64163 19.0305L0.0932617 18.7473V15.6694L1.71625 15.3484L3.05941 11.9872L2.14531 10.6654L4.32795 8.47499L5.72708 9.40026L8.9917 8.04069L9.30884 6.36011H12.3496L12.704 8.11622L15.95 9.47579L17.3865 8.47499L19.5691 10.6276L18.5804 12.1572L19.8303 15.3295L21.6398 15.6316ZM10.8385 11.4774C9.25287 11.4774 7.90971 12.0439 6.80907 13.1768C5.70842 14.3098 5.14877 15.6694 5.14877 17.2744C5.14877 18.8417 5.70842 20.2013 6.80907 21.3343C7.90971 22.4672 9.25287 23.0337 10.8385 23.0337C12.4242 23.0337 13.7674 22.4672 14.8867 21.3343C16.006 20.2013 16.5656 18.8417 16.5656 17.2744C16.5656 15.6694 16.006 14.3098 14.8867 13.1768C13.786 12.0439 12.4242 11.4774 10.8385 11.4774Z" fill="#59C9A5"/>
<path d="M10.8572 24.9788C6.62252 24.9788 3.19 21.5043 3.19 17.2179C3.20866 12.9504 6.64118 9.45703 10.8572 9.45703C15.0919 9.45703 18.5244 12.9315 18.5244 17.2179C18.5244 21.5043 15.0919 24.9788 10.8572 24.9788ZM11.0438 21.3721V24.6011C12.2004 24.4878 13.2077 23.3171 13.842 21.5421C12.9466 21.4288 12.0138 21.3721 11.0438 21.3721ZM7.89107 21.5421C8.52534 23.2982 9.53271 24.4878 10.6893 24.6011V21.3721C9.71926 21.3721 8.78651 21.4288 7.89107 21.5421ZM5.31667 21.9953C6.36135 23.2227 7.77914 24.1102 9.40212 24.4501C8.63727 23.8836 7.98434 22.8639 7.51796 21.5799C6.75311 21.6932 6.00691 21.8253 5.31667 21.9953ZM14.2151 21.5799C13.7487 22.8639 13.0958 23.8647 12.331 24.4501C13.9539 24.1102 15.3717 23.2227 16.4164 21.9953C15.7262 21.8253 14.98 21.6932 14.2151 21.5799ZM14.327 21.2211C15.1479 21.3344 15.9314 21.4854 16.6589 21.6743C17.5544 20.4846 18.114 18.9929 18.1513 17.3879H14.9053C14.8867 18.8041 14.6815 20.107 14.327 21.2211ZM3.58176 17.4067C3.61907 19.0118 4.16006 20.4846 5.0555 21.6743C5.8017 21.4854 6.58521 21.3344 7.40603 21.2211C7.05159 20.107 6.84639 18.8041 6.82773 17.4067H3.58176ZM11.0438 20.9945C12.0325 20.9945 13.0212 21.07 13.9539 21.1833C14.3084 20.0881 14.5136 18.8041 14.5322 17.4067H11.0438V20.9945ZM7.18217 17.4067C7.20083 18.7852 7.40604 20.0692 7.76048 21.1644C8.71189 21.0511 9.68195 20.9945 10.6707 20.9756V17.3879H7.18217V17.4067ZM14.9053 17.0291H18.1513C18.114 15.4051 17.5544 13.9134 16.6403 12.7049C15.9127 12.8937 15.1292 13.0448 14.3084 13.1581C14.6815 14.2911 14.8867 15.6129 14.9053 17.0291ZM11.0438 17.0291H14.5322C14.5136 15.6129 14.3084 14.3099 13.9353 13.1958C13.0025 13.3091 12.0325 13.3658 11.0438 13.3658V17.0291ZM7.18217 17.0291H10.6707V13.3847C9.68195 13.3847 8.71189 13.3091 7.77914 13.1958C7.42469 14.3099 7.20083 15.6317 7.18217 17.0291ZM3.58176 17.0291H6.82773C6.84639 15.6129 7.05159 14.2911 7.42469 13.1581C6.62252 13.0448 5.83901 12.8937 5.11147 12.7049C4.17872 13.9134 3.61907 15.4051 3.58176 17.0291ZM11.0438 9.85357V13.0259C11.9952 13.0259 12.9279 12.9693 13.8234 12.856C13.1891 11.1187 12.1817 9.96687 11.0438 9.85357ZM7.90972 12.8371C8.80516 12.9504 9.73791 13.007 10.6893 13.007V9.85357C9.55136 9.96687 8.54399 11.1187 7.90972 12.8371ZM12.331 9.98575C13.0958 10.5522 13.7301 11.5342 14.1965 12.7993C14.9613 12.7049 15.6889 12.5538 16.3791 12.3839C15.3531 11.1754 13.9353 10.3256 12.331 9.98575ZM5.35398 12.3839C6.04422 12.5538 6.77176 12.686 7.53662 12.7993C8.003 11.5342 8.63727 10.5522 9.40212 9.98575C7.79779 10.3256 6.39866 11.1754 5.35398 12.3839Z" fill="#14191C"/>
<path d="M80.3285 11.2886C80.1792 11.0054 79.9554 10.7788 79.6756 10.6277C79.3957 10.4767 79.1159 10.4011 78.7988 10.4011C78.5003 10.4011 78.2018 10.4767 77.922 10.6277C77.6422 10.7788 77.4183 11.0054 77.2691 11.2886C77.1012 11.5719 77.0266 11.874 77.0266 12.195C77.0266 12.4971 77.1012 12.7993 77.2691 13.0825C77.4183 13.3657 77.6422 13.5923 77.922 13.7434C78.2018 13.8945 78.5003 13.9889 78.7988 13.9889C79.0973 13.9889 79.3957 13.9133 79.6756 13.7434C79.9554 13.5923 80.1792 13.3657 80.3285 13.0825C80.4777 12.7993 80.571 12.4971 80.571 12.195C80.5523 11.874 80.4777 11.5719 80.3285 11.2886ZM80.03 12.8937C79.8994 13.1203 79.7315 13.2902 79.5077 13.4224C79.2838 13.5546 79.0413 13.6112 78.7988 13.6112C78.5563 13.6112 78.3137 13.5546 78.0899 13.4224C77.866 13.2902 77.6981 13.1203 77.5675 12.8937C77.437 12.6671 77.381 12.4216 77.381 12.1761C77.381 11.9306 77.437 11.6852 77.5675 11.4586C77.6981 11.232 77.866 11.0431 78.0899 10.9298C78.3137 10.7977 78.5376 10.741 78.7801 10.741C79.0226 10.741 79.2651 10.7977 79.489 10.9298C79.7129 11.062 79.8808 11.232 80.0114 11.4586C80.1419 11.6852 80.1979 11.9306 80.1979 12.1761C80.2166 12.4216 80.1606 12.6671 80.03 12.8937Z" fill="#14191C"/>
<path d="M79.4144 12.7616C79.3398 12.6294 79.2838 12.5539 79.2838 12.535C79.2278 12.4594 79.1905 12.4217 79.1532 12.3839C79.1159 12.365 79.0786 12.3273 79.0226 12.3084C79.1905 12.2895 79.3025 12.2328 79.3957 12.1196C79.489 12.0251 79.5263 11.9118 79.5263 11.7608C79.5263 11.6664 79.5077 11.5719 79.4517 11.4964C79.3957 11.4209 79.3398 11.3454 79.2838 11.3076C79.2092 11.2698 79.1159 11.2509 78.9853 11.2321C78.948 11.2321 78.7428 11.2321 78.3884 11.2321H78.0153V13.1203H78.3884V12.3461H78.4816C78.5936 12.3461 78.6682 12.365 78.7428 12.4217C78.8174 12.4783 78.892 12.6105 79.004 12.8182L79.1532 13.1203H79.6196L79.4144 12.7616ZM78.948 12.0251C78.892 12.044 78.7615 12.044 78.5376 12.044H78.3884V11.5342H78.5376C78.7615 11.5342 78.892 11.5342 78.948 11.5531C79.004 11.5719 79.0413 11.6097 79.0786 11.6475C79.1159 11.6852 79.1159 11.7419 79.1159 11.7797C79.1159 11.8363 79.0973 11.8741 79.0786 11.9307C79.0413 11.9874 78.9853 12.0063 78.948 12.0251Z" fill="#14191C"/>
<path d="M41.4328 10.7031H46.7121V28.1698H43.4289V14.4419L40.015 28.1698H36.6571L33.2992 14.4419V28.1698H30.0532V10.7031H35.2766L38.3547 22.6182L41.4328 10.7031Z" fill="#14191C"/>
<path d="M73.594 10.7031H69.919L63.2405 28.1698H66.9528L68.3893 24.2233H75.3289L76.8213 28.1698H80.5896L73.594 10.7031ZM69.4339 21.2398L71.7658 14.7818L74.1723 21.2398H69.4339Z" fill="#14191C"/>
<path d="M27.5535 10.7031H24.0836V28.1698H27.5535V10.7031Z" fill="#14191C"/>
<path d="M60.1997 21.7686C59.64 24.2423 58.3715 25.4886 56.3754 25.4886C53.5398 25.4886 52.1221 23.4303 52.1221 19.3327C52.1221 15.3862 53.5585 13.4035 56.45 13.4035C58.4275 13.4035 59.6214 14.3665 60.0878 16.3115L63.5203 15.5184C62.5875 12.1006 60.293 10.4011 56.6366 10.4011C54.0249 10.4011 51.9915 11.2886 50.555 13.0825C49.2305 14.7442 48.559 16.9157 48.559 19.616C48.559 22.1841 49.2305 24.2612 50.555 25.8662C51.9728 27.6223 53.9129 28.5098 56.4127 28.5098C60.1437 28.5098 62.5316 26.6215 63.5576 22.8261L60.1997 21.7686Z" fill="#14191C"/>
</svg>
