<svg width="1360" height="166" viewBox="0 0 1360 166" fill="none" xmlns="http://www.w3.org/2000/svg">
<g opacity="0.5">
<path d="M-1593.26 15.0151L-1542.67 145.563C-1540.72 150.568 -1538.57 154.044 -1536.21 155.99C-1533.71 157.797 -1531.49 158.771 -1529.55 158.91V163.08C-1533.71 162.802 -1538.64 162.663 -1544.33 162.663C-1549.88 162.524 -1555.51 162.455 -1561.2 162.455C-1567.58 162.455 -1573.62 162.524 -1579.31 162.663C-1585 162.663 -1589.51 162.802 -1592.84 163.08V158.91C-1585.76 158.632 -1581.32 157.45 -1579.52 155.364C-1577.57 153.14 -1577.99 148.482 -1580.77 141.392L-1616.16 44.4196L-1612.41 38.9975L-1644.06 121.58C-1647.11 129.227 -1648.99 135.483 -1649.68 140.349C-1650.24 145.215 -1649.89 148.969 -1648.64 151.611C-1647.25 154.252 -1645.1 156.129 -1642.19 157.241C-1639.13 158.214 -1635.52 158.771 -1631.36 158.91V163.08C-1635.94 162.802 -1640.31 162.663 -1644.48 162.663C-1648.64 162.524 -1652.87 162.455 -1657.18 162.455C-1660.23 162.455 -1663.15 162.524 -1665.92 162.663C-1668.56 162.663 -1670.92 162.802 -1673 163.08V158.91C-1670.09 158.353 -1667.1 156.477 -1664.05 153.279C-1660.99 150.081 -1658.01 144.659 -1655.09 137.013L-1607.62 15.0151C-1605.4 15.1541 -1603.04 15.2236 -1600.55 15.2236C-1597.91 15.2236 -1595.48 15.1541 -1593.26 15.0151ZM-1578.69 103.02V107.191H-1640.73L-1638.65 103.02H-1578.69Z" fill="#C1CAD6"/>
<path d="M-1390.79 15.4322V19.603C-1395.23 20.1591 -1398.56 21.3409 -1400.79 23.1483C-1403.01 24.8166 -1404.53 27.5276 -1405.37 31.2814C-1406.06 35.0352 -1406.41 40.3183 -1406.41 47.1306V163.497C-1408.07 163.358 -1409.81 163.289 -1411.61 163.289C-1413.28 163.289 -1415.08 163.358 -1417.03 163.497L-1507.38 48.799V128.879C-1507.38 136.526 -1506.97 142.435 -1506.14 146.606C-1505.3 150.637 -1503.5 153.557 -1500.72 155.364C-1497.81 157.033 -1493.3 158.214 -1487.19 158.91V163.08C-1489.83 162.802 -1493.3 162.663 -1497.6 162.663C-1501.9 162.524 -1505.93 162.455 -1509.67 162.455C-1512.87 162.455 -1516.13 162.524 -1519.46 162.663C-1522.79 162.663 -1525.57 162.802 -1527.79 163.08V158.91C-1523.35 158.214 -1520.02 157.033 -1517.79 155.364C-1515.57 153.696 -1514.12 150.985 -1513.42 147.231C-1512.59 143.338 -1512.17 138.055 -1512.17 131.382V37.5377C-1512.17 32.3936 -1512.59 28.6399 -1513.42 26.2764C-1514.12 23.7739 -1515.64 22.1055 -1518 21.2714C-1520.22 20.2982 -1523.49 19.742 -1527.79 19.603V15.4322C-1525.57 15.5712 -1522.79 15.7102 -1519.46 15.8493C-1516.13 15.9883 -1512.87 16.0578 -1509.67 16.0578C-1506.34 16.0578 -1503.15 15.9883 -1500.1 15.8493C-1497.04 15.7102 -1494.27 15.5712 -1491.77 15.4322L-1411.2 114.907V49.6332C-1411.2 41.9866 -1411.61 36.1474 -1412.44 32.1156C-1413.28 27.9447 -1415.15 24.9556 -1418.07 23.1483C-1420.84 21.3409 -1425.28 20.1591 -1431.39 19.603V15.4322C-1428.75 15.5712 -1425.28 15.7102 -1420.98 15.8493C-1416.68 15.9883 -1412.65 16.0578 -1408.91 16.0578C-1405.57 16.0578 -1402.31 15.9883 -1399.12 15.8493C-1395.79 15.7102 -1393.01 15.5712 -1390.79 15.4322Z" fill="#C1CAD6"/>
<path d="M-1256.36 15.2236V19.3945C-1259.41 20.6457 -1262.54 23.1482 -1265.73 26.902C-1268.92 30.5168 -1272.46 36.0779 -1276.35 43.5854L-1315.7 121.58H-1325.48L-1374.2 31.2814C-1376.7 26.5544 -1378.99 23.4263 -1381.07 21.897C-1383.02 20.3677 -1384.75 19.603 -1386.28 19.603V15.2236C-1382.53 15.6407 -1378.71 15.9188 -1374.83 16.0578C-1370.8 16.1968 -1366.43 16.2663 -1361.71 16.2663C-1355.6 16.2663 -1349.01 16.1968 -1341.93 16.0578C-1334.85 15.7797 -1328.4 15.5017 -1322.57 15.2236V19.603C-1326.04 19.603 -1329.16 19.8811 -1331.94 20.4372C-1334.71 20.9933 -1336.66 22.036 -1337.77 23.5653C-1338.88 24.9556 -1338.6 27.2496 -1336.93 30.4472L-1304.04 93.8442L-1310.49 102.186L-1289.05 59.0176C-1283.91 49.0075 -1281.21 41.1524 -1280.93 35.4523C-1280.51 29.7521 -1281.9 25.7203 -1285.09 23.3568C-1288.15 20.8543 -1292.52 19.5335 -1298.21 19.3945V15.2236C-1293.49 15.3627 -1289.05 15.5017 -1284.88 15.6407C-1280.72 15.7797 -1276.49 15.8493 -1272.18 15.8493C-1269.13 15.8493 -1266.29 15.7797 -1263.65 15.6407C-1260.87 15.5017 -1258.44 15.3627 -1256.36 15.2236ZM-1300.92 88.6307V140.975C-1300.92 145.98 -1300.57 149.734 -1299.87 152.236C-1299.04 154.739 -1297.52 156.407 -1295.29 157.241C-1293.07 158.075 -1289.74 158.632 -1285.3 158.91V163.08C-1289.05 162.802 -1293.91 162.663 -1299.87 162.663C-1305.7 162.524 -1311.53 162.455 -1317.36 162.455C-1323.89 162.455 -1330.06 162.524 -1335.89 162.663C-1341.72 162.663 -1346.3 162.802 -1349.63 163.08V158.91C-1345.19 158.632 -1341.86 158.075 -1339.64 157.241C-1337.42 156.407 -1335.96 154.739 -1335.27 152.236C-1334.44 149.734 -1334.02 145.98 -1334.02 140.975V98.2236L-1315.91 111.153L-1300.92 88.6307Z" fill="#C1CAD6"/>
<path d="M-1121.44 15.4322C-1121.99 22.5226 -1122.41 29.335 -1122.69 35.8694C-1122.82 42.4037 -1122.89 47.4087 -1122.89 50.8844C-1122.89 53.9431 -1122.82 56.8626 -1122.69 59.6432C-1122.55 62.4238 -1122.41 64.7873 -1122.27 66.7337H-1127.06C-1129.28 55.0553 -1132.12 45.8099 -1135.59 38.9975C-1138.93 32.1851 -1142.95 27.3886 -1147.67 24.608C-1152.39 21.6884 -1157.94 20.2286 -1164.33 20.2286H-1169.11V139.307C-1169.11 144.868 -1168.56 149.039 -1167.45 151.819C-1166.2 154.6 -1163.98 156.477 -1160.79 157.45C-1157.59 158.284 -1152.94 158.771 -1146.84 158.91V163.08C-1151.14 162.941 -1156.9 162.802 -1164.12 162.663C-1171.2 162.524 -1178.62 162.455 -1186.4 162.455C-1194.03 162.455 -1201.25 162.524 -1208.05 162.663C-1214.85 162.802 -1220.33 162.941 -1224.5 163.08V158.91C-1218.25 158.771 -1213.53 158.284 -1210.34 157.45C-1207.15 156.477 -1204.99 154.6 -1203.88 151.819C-1202.77 149.039 -1202.22 144.868 -1202.22 139.307V20.2286H-1206.8C-1213.18 20.2286 -1218.74 21.6884 -1223.46 24.608C-1228.17 27.3886 -1232.2 32.1851 -1235.53 38.9975C-1238.86 45.6709 -1241.78 54.9162 -1244.28 66.7337H-1249.06C-1248.79 64.7873 -1248.65 62.4238 -1248.65 59.6432C-1248.51 56.8626 -1248.44 53.9431 -1248.44 50.8844C-1248.44 47.4087 -1248.58 42.4037 -1248.86 35.8694C-1248.99 29.335 -1249.34 22.5226 -1249.9 15.4322C-1243.51 15.5712 -1236.57 15.7102 -1229.08 15.8493C-1221.44 15.9883 -1213.81 16.0578 -1206.17 16.0578C-1198.54 16.0578 -1191.67 16.0578 -1185.56 16.0578C-1179.32 16.0578 -1172.45 16.0578 -1164.95 16.0578C-1157.32 16.0578 -1149.68 15.9883 -1142.05 15.8493C-1134.41 15.7102 -1127.54 15.5712 -1121.44 15.4322Z" fill="#C1CAD6"/>
<path d="M-1020.67 163.08V158.91C-1016.23 158.632 -1012.9 158.075 -1010.68 157.241C-1008.46 156.407 -1007 154.739 -1006.31 152.236C-1005.48 149.734 -1005.06 145.98 -1005.06 140.975V37.5377C-1005.06 32.3936 -1005.48 28.6399 -1006.31 26.2764C-1007 23.7739 -1008.53 22.1055 -1010.89 21.2714C-1013.11 20.2982 -1016.37 19.742 -1020.67 19.603V15.4322C-1016.93 15.5712 -1012.07 15.7102 -1006.1 15.8493C-999.993 15.9883 -993.955 16.0578 -987.987 16.0578C-981.602 16.0578 -975.633 15.9883 -970.081 15.8493C-964.391 15.7102 -959.81 15.5712 -956.34 15.4322V19.603C-960.782 19.742 -964.182 20.2982 -966.542 21.2714C-968.763 22.1055 -970.22 23.7739 -970.914 26.2764C-971.608 28.6399 -971.955 32.3936 -971.955 37.5377V140.975C-971.955 145.98 -971.608 149.734 -970.914 152.236C-970.081 154.739 -968.555 156.407 -966.334 157.241C-964.113 158.075 -960.782 158.632 -956.34 158.91V163.08C-959.81 162.802 -964.391 162.663 -970.081 162.663C-975.633 162.524 -981.602 162.455 -987.987 162.455C-993.955 162.455 -999.993 162.524 -1006.1 162.663C-1012.07 162.663 -1016.93 162.802 -1020.67 163.08ZM-1108.95 163.08V158.91C-1104.51 158.632 -1101.18 158.075 -1098.96 157.241C-1096.74 156.407 -1095.28 154.739 -1094.59 152.236C-1093.75 149.734 -1093.34 145.98 -1093.34 140.975V37.5377C-1093.34 32.3936 -1093.75 28.6399 -1094.59 26.2764C-1095.28 23.7739 -1096.81 22.1055 -1099.17 21.2714C-1101.39 20.2982 -1104.65 19.742 -1108.95 19.603V15.4322C-1105.34 15.5712 -1100.69 15.7102 -1095 15.8493C-1089.17 15.9883 -1082.86 16.0578 -1076.06 16.0578C-1070.23 16.0578 -1064.47 15.9883 -1058.78 15.8493C-1053.08 15.7102 -1048.36 15.5712 -1044.62 15.4322V19.603C-1049.06 19.742 -1052.46 20.2982 -1054.82 21.2714C-1057.04 22.1055 -1058.5 23.7739 -1059.19 26.2764C-1059.89 28.6399 -1060.23 32.3936 -1060.23 37.5377V140.975C-1060.23 145.98 -1059.89 149.734 -1059.19 152.236C-1058.36 154.739 -1056.83 156.407 -1054.61 157.241C-1052.39 158.075 -1049.06 158.632 -1044.62 158.91V163.08C-1048.36 162.802 -1053.08 162.663 -1058.78 162.663C-1064.47 162.524 -1070.23 162.455 -1076.06 162.455C-1082.86 162.455 -1089.17 162.524 -1095 162.663C-1100.69 162.663 -1105.34 162.802 -1108.95 163.08ZM-1073.77 90.9246V86.7538H-991.526V90.9246H-1073.77Z" fill="#C1CAD6"/>
<path d="M-878.097 15.4322V19.603C-882.539 19.742 -885.94 20.2982 -888.299 21.2714C-890.52 22.1055 -891.977 23.7739 -892.671 26.2764C-893.365 28.6399 -893.712 32.3936 -893.712 37.5377V140.975C-893.712 145.98 -893.365 149.734 -892.671 152.236C-891.839 154.739 -890.312 156.407 -888.091 157.241C-885.87 158.075 -882.539 158.632 -878.097 158.91V163.08C-881.845 162.802 -886.564 162.663 -892.255 162.663C-897.946 162.524 -903.706 162.455 -909.536 162.455C-916.337 162.455 -922.652 162.524 -928.482 162.663C-934.173 162.663 -938.823 162.802 -942.431 163.08V158.91C-937.99 158.632 -934.659 158.075 -932.438 157.241C-930.217 156.407 -928.76 154.739 -928.066 152.236C-927.233 149.734 -926.816 145.98 -926.816 140.975V37.5377C-926.816 32.3936 -927.233 28.6399 -928.066 26.2764C-928.76 23.7739 -930.286 22.1055 -932.646 21.2714C-934.867 20.2982 -938.129 19.742 -942.431 19.603V15.4322C-938.823 15.5712 -934.173 15.7102 -928.482 15.8493C-922.652 15.9883 -916.337 16.0578 -909.536 16.0578C-903.706 16.0578 -897.946 15.9883 -892.255 15.8493C-886.564 15.7102 -881.845 15.5712 -878.097 15.4322Z" fill="#C1CAD6"/>
<path d="M-726.948 15.4322V19.603C-731.39 20.1591 -734.721 21.3409 -736.942 23.1483C-739.163 24.8166 -740.69 27.5276 -741.522 31.2814C-742.216 35.0352 -742.563 40.3183 -742.563 47.1306V163.497C-744.229 163.358 -745.964 163.289 -747.768 163.289C-749.434 163.289 -751.238 163.358 -753.182 163.497L-843.541 48.799V128.879C-843.541 136.526 -843.124 142.435 -842.292 146.606C-841.459 150.637 -839.654 153.557 -836.878 155.364C-833.964 157.033 -829.453 158.214 -823.345 158.91V163.08C-825.983 162.802 -829.453 162.663 -833.755 162.663C-838.058 162.524 -842.083 162.455 -845.831 162.455C-849.023 162.455 -852.285 162.524 -855.617 162.663C-858.948 162.663 -861.724 162.802 -863.945 163.08V158.91C-859.503 158.214 -856.172 157.033 -853.951 155.364C-851.73 153.696 -850.273 150.985 -849.579 147.231C-848.746 143.338 -848.33 138.055 -848.33 131.382V37.5377C-848.33 32.3936 -848.746 28.6399 -849.579 26.2764C-850.273 23.7739 -851.799 22.1055 -854.159 21.2714C-856.38 20.2982 -859.642 19.742 -863.945 19.603V15.4322C-861.724 15.5712 -858.948 15.7102 -855.617 15.8493C-852.285 15.9883 -849.023 16.0578 -845.831 16.0578C-842.5 16.0578 -839.307 15.9883 -836.254 15.8493C-833.2 15.7102 -830.424 15.5712 -827.926 15.4322L-747.352 114.907V49.6332C-747.352 41.9866 -747.768 36.1474 -748.601 32.1156C-749.434 27.9447 -751.308 24.9556 -754.223 23.1483C-756.999 21.3409 -761.44 20.1591 -767.548 19.603V15.4322C-764.91 15.5712 -761.44 15.7102 -757.138 15.8493C-752.835 15.9883 -748.81 16.0578 -745.062 16.0578C-741.731 16.0578 -738.469 15.9883 -735.276 15.8493C-731.945 15.7102 -729.169 15.5712 -726.948 15.4322Z" fill="#C1CAD6"/>
<path d="M-638.079 12.5126C-628.641 12.5126 -620.937 13.8333 -614.969 16.4749C-609 19.1164 -603.657 22.3141 -598.937 26.0679C-597.272 27.3191 -595.884 27.9447 -594.773 27.9447C-592.136 27.9447 -590.401 23.7739 -589.568 15.4322H-584.78C-585.057 20.8543 -585.266 27.4581 -585.404 35.2437C-585.543 42.8903 -585.613 53.1089 -585.613 65.8995H-590.401C-591.373 57.5578 -592.9 50.3283 -594.982 44.2111C-596.925 37.9548 -600.603 32.6022 -606.016 28.1533C-609.348 24.9556 -613.511 22.4531 -618.508 20.6457C-623.366 18.8384 -628.294 17.9347 -633.291 17.9347C-640.925 17.9347 -647.448 19.9506 -652.861 23.9824C-658.275 27.8752 -662.716 33.2278 -666.186 40.0402C-669.656 46.8526 -672.224 54.5687 -673.89 63.1884C-675.555 71.6692 -676.388 80.4975 -676.388 89.6734C-676.388 114.698 -672.988 132.981 -666.186 144.52C-659.246 156.059 -649.322 161.829 -636.414 161.829C-633.082 161.829 -630.168 161.412 -627.669 160.578C-625.171 159.744 -623.158 158.771 -621.631 157.658C-619.688 156.268 -618.37 154.808 -617.676 153.279C-616.981 151.611 -616.634 149.456 -616.634 146.814V126.377C-616.634 119.982 -617.19 115.255 -618.3 112.196C-619.272 108.998 -621.284 106.843 -624.338 105.731C-627.391 104.619 -631.833 103.993 -637.663 103.854V99.6834C-634.748 99.8224 -631.278 99.9615 -627.253 100.101C-623.089 100.101 -618.786 100.17 -614.344 100.309C-609.903 100.309 -605.808 100.309 -602.06 100.309C-596.231 100.309 -590.887 100.24 -586.029 100.101C-581.171 99.9615 -577.215 99.8224 -574.161 99.6834V103.854C-576.799 103.993 -578.811 104.48 -580.199 105.314C-581.449 106.148 -582.351 107.817 -582.906 110.319C-583.322 112.822 -583.531 116.645 -583.531 121.789V163.08H-587.695C-587.833 160.717 -588.389 158.145 -589.36 155.364C-590.193 152.584 -591.65 151.193 -593.732 151.193C-594.704 151.193 -596.023 151.472 -597.688 152.028C-599.215 152.445 -601.644 153.626 -604.975 155.573C-610.111 158.492 -615.524 160.995 -621.215 163.08C-626.906 165.027 -632.874 166 -639.12 166C-655.221 166 -668.824 163.011 -679.928 157.033C-691.032 151.054 -699.429 142.504 -705.12 131.382C-710.672 120.121 -713.448 106.635 -713.448 90.9246C-713.448 75.0754 -710.255 61.3116 -703.871 49.6332C-697.347 37.9548 -688.464 28.8484 -677.221 22.3141C-665.839 15.7797 -652.792 12.5126 -638.079 12.5126Z" fill="#C1CAD6"/>
<path d="M-334.574 15.4322V19.603C-339.016 19.742 -342.347 20.2982 -344.568 21.2714C-346.789 22.1055 -348.316 23.7739 -349.148 26.2764C-349.842 28.6399 -350.189 32.3936 -350.189 37.5377V140.975C-350.189 145.98 -349.842 149.734 -349.148 152.236C-348.316 154.739 -346.789 156.407 -344.568 157.241C-342.347 158.075 -339.016 158.632 -334.574 158.91V163.08C-338.461 162.802 -343.388 162.663 -349.357 162.663C-355.186 162.524 -361.155 162.455 -367.262 162.455C-373.924 162.455 -380.17 162.524 -386 162.663C-391.83 162.663 -396.549 162.802 -400.158 163.08V158.91C-395.438 158.632 -391.899 158.075 -389.539 157.241C-387.041 156.407 -385.375 154.739 -384.543 152.236C-383.71 149.734 -383.293 145.98 -383.293 140.975V28.1533H-381.836L-433.47 163.289H-436.801L-493.015 28.9874V128.879C-493.015 136.526 -492.599 142.435 -491.766 146.606C-490.933 150.637 -489.129 153.557 -486.353 155.364C-483.438 157.033 -478.927 158.214 -472.82 158.91V163.08C-475.457 162.802 -478.927 162.663 -483.23 162.663C-487.533 162.524 -491.558 162.455 -495.305 162.455C-498.498 162.455 -501.76 162.524 -505.091 162.663C-508.422 162.663 -511.198 162.802 -513.419 163.08V158.91C-508.977 158.214 -505.646 157.033 -503.425 155.364C-501.204 153.696 -499.747 150.985 -499.053 147.231C-498.22 143.338 -497.804 138.055 -497.804 131.382V37.5377C-497.804 32.3936 -498.22 28.6399 -499.053 26.2764C-499.747 23.7739 -501.274 22.1055 -503.633 21.2714C-505.854 20.2982 -509.116 19.742 -513.419 19.603V15.4322C-511.198 15.5712 -508.422 15.7102 -505.091 15.8493C-501.76 15.9883 -498.498 16.0578 -495.305 16.0578C-489.337 16.0578 -483.507 15.9883 -477.817 15.8493C-471.987 15.7102 -466.851 15.5712 -462.41 15.4322L-418.688 121.163L-423.893 125.96L-382.044 16.0578C-379.685 16.0578 -377.256 16.0578 -374.757 16.0578C-372.259 16.0578 -369.76 16.0578 -367.262 16.0578C-361.155 16.0578 -355.186 15.9883 -349.357 15.8493C-343.388 15.7102 -338.461 15.5712 -334.574 15.4322Z" fill="#C1CAD6"/>
<path d="M-251.136 15.0151L-200.544 145.563C-198.6 150.568 -196.449 154.044 -194.089 155.99C-191.591 157.797 -189.37 158.771 -187.427 158.91V163.08C-191.591 162.802 -196.518 162.663 -202.209 162.663C-207.761 162.524 -213.383 162.455 -219.073 162.455C-225.458 162.455 -231.496 162.524 -237.187 162.663C-242.878 162.663 -247.389 162.802 -250.72 163.08V158.91C-243.641 158.632 -239.199 157.45 -237.395 155.364C-235.452 153.14 -235.868 148.482 -238.644 141.392L-274.038 44.4196L-270.291 38.9975L-301.937 121.58C-304.991 129.227 -306.865 135.483 -307.559 140.349C-308.114 145.215 -307.767 148.969 -306.518 151.611C-305.13 154.252 -302.978 156.129 -300.064 157.241C-297.01 158.214 -293.401 158.771 -289.237 158.91V163.08C-293.818 162.802 -298.19 162.663 -302.354 162.663C-306.518 162.524 -310.751 162.455 -315.054 162.455C-318.108 162.455 -321.022 162.524 -323.798 162.663C-326.436 162.663 -328.795 162.802 -330.877 163.08V158.91C-327.962 158.353 -324.978 156.477 -321.925 153.279C-318.871 150.081 -315.887 144.659 -312.972 137.013L-265.502 15.0151C-263.281 15.1541 -260.922 15.2236 -258.423 15.2236C-255.786 15.2236 -253.357 15.1541 -251.136 15.0151ZM-236.562 103.02V107.191H-298.606L-296.524 103.02H-236.562Z" fill="#C1CAD6"/>
<path d="M-185.874 15.4322C-182.404 15.5712 -177.754 15.7102 -171.924 15.8493C-165.956 15.9883 -160.057 16.0578 -154.227 16.0578C-147.564 16.0578 -141.11 15.9883 -134.864 15.8493C-128.618 15.7102 -124.177 15.6407 -121.539 15.6407C-108.631 15.6407 -97.9434 17.1005 -89.4764 20.0201C-80.8708 22.8007 -74.486 26.902 -70.322 32.3241C-66.0192 37.7462 -63.8678 44.2806 -63.8678 51.9271C-63.8678 56.6541 -64.8395 61.4506 -66.7826 66.3166C-68.7258 71.0436 -72.057 75.4925 -76.7762 79.6633C-81.3567 83.6951 -87.6721 86.9623 -95.7225 89.4648C-103.773 91.8283 -113.905 93.01 -126.12 93.01H-146.107V88.8392H-128.202C-120.013 88.8392 -113.836 87.3099 -109.672 84.2513C-105.369 81.0536 -102.454 76.8828 -100.927 71.7387C-99.2618 66.4556 -98.4292 60.6164 -98.4292 54.2211C-98.4292 43.2379 -100.372 34.7571 -104.259 28.7789C-108.145 22.6616 -114.808 19.603 -124.246 19.603C-129.659 19.603 -133.199 20.7848 -134.864 23.1483C-136.391 25.5117 -137.155 30.3082 -137.155 37.5377V140.975C-137.155 145.98 -136.807 149.734 -136.113 152.236C-135.281 154.739 -133.754 156.407 -131.533 157.241C-129.312 158.075 -125.981 158.632 -121.539 158.91V163.08C-125.287 162.802 -130.006 162.663 -135.697 162.663C-141.388 162.524 -147.148 162.455 -152.978 162.455C-159.64 162.455 -165.956 162.524 -171.924 162.663C-177.754 162.663 -182.404 162.802 -185.874 163.08V158.91C-181.432 158.632 -178.101 158.075 -175.88 157.241C-173.659 156.407 -172.202 154.739 -171.508 152.236C-170.675 149.734 -170.258 145.98 -170.258 140.975V37.5377C-170.258 32.3936 -170.675 28.6399 -171.508 26.2764C-172.202 23.7739 -173.728 22.1055 -176.088 21.2714C-178.309 20.2982 -181.571 19.742 -185.874 19.603V15.4322ZM-146.524 89.4648C-140.555 89.6039 -135.42 89.8819 -131.117 90.299C-126.675 90.7161 -122.789 91.1332 -119.457 91.5503C-116.126 91.8283 -113.142 92.0368 -110.505 92.1759C-97.8739 93.2881 -88.5742 95.9992 -82.6058 100.309C-76.4987 104.619 -72.5427 111.084 -70.7384 119.704L-65.9498 141.183C-64.7006 146.745 -63.382 150.637 -61.994 152.862C-60.606 155.086 -58.5934 156.198 -55.9562 156.198C-54.1517 156.059 -52.6943 155.642 -51.5839 154.947C-50.3347 154.113 -49.0161 152.931 -47.6282 151.402L-44.7133 153.905C-48.4608 158.214 -52.4861 161.273 -56.7889 163.08C-61.0918 165.027 -66.2969 166 -72.4041 166C-79.8993 166 -86.0758 164.401 -90.9338 161.204C-95.7919 158.006 -98.9843 152.097 -100.511 143.477L-104.259 122.623C-105.23 116.784 -106.41 111.709 -107.798 107.399C-109.186 102.951 -111.129 99.4749 -113.628 96.9724C-115.987 94.3308 -119.319 93.01 -123.621 93.01H-146.107L-146.524 89.4648Z" fill="#C1CAD6"/>
<path d="M22.6152 15.4322V19.603C18.1736 19.742 14.7731 20.2982 12.4135 21.2714C10.1926 22.1055 8.73523 23.7739 8.04126 26.2764C7.34717 28.6399 7.00024 32.3936 7.00024 37.5377V140.975C7.00024 145.98 7.34717 149.734 8.04126 152.236C8.87402 154.739 10.4009 156.407 12.6217 157.241C14.8425 158.075 18.1736 158.632 22.6152 158.91V163.08C18.8676 162.802 14.1484 162.663 8.45764 162.663C2.76672 162.524 -2.99353 162.455 -8.82312 162.455C-15.6244 162.455 -21.9397 162.524 -27.7693 162.663C-33.4601 162.663 -38.11 162.802 -41.7189 163.08V158.91C-37.2772 158.632 -33.9459 158.075 -31.7251 157.241C-29.5043 156.407 -28.0469 154.739 -27.3529 152.236C-26.5201 149.734 -26.1038 145.98 -26.1038 140.975V37.5377C-26.1038 32.3936 -26.5201 28.6399 -27.3529 26.2764C-28.0469 23.7739 -29.5737 22.1055 -31.9333 21.2714C-34.1542 20.2982 -37.416 19.742 -41.7189 19.603V15.4322C-38.11 15.5712 -33.4601 15.7102 -27.7693 15.8493C-21.9397 15.9883 -15.6244 16.0578 -8.82312 16.0578C-2.99353 16.0578 2.76672 15.9883 8.45764 15.8493C14.1484 15.7102 18.8676 15.5712 22.6152 15.4322Z" fill="#C1CAD6"/>
<path d="M173.764 15.4322V19.603C169.323 20.1591 165.991 21.3409 163.771 23.1483C161.55 24.8166 160.023 27.5276 159.19 31.2814C158.496 35.0352 158.149 40.3183 158.149 47.1306V163.497C156.484 163.358 154.748 163.289 152.944 163.289C151.278 163.289 149.474 163.358 147.531 163.497L57.1716 48.799V128.879C57.1716 136.526 57.5881 142.435 58.421 146.606C59.2538 150.637 61.0582 153.557 63.8342 155.364C66.749 157.033 71.26 158.214 77.3672 158.91V163.08C74.73 162.802 71.2599 162.663 66.9572 162.663C62.6543 162.524 58.6292 162.455 54.8815 162.455C51.6891 162.455 48.4274 162.524 45.0961 162.663C41.7649 162.663 38.9889 162.802 36.7681 163.08V158.91C41.2097 158.214 44.5408 157.033 46.7616 155.364C48.9824 153.696 50.4399 150.985 51.134 147.231C51.9668 143.338 52.3831 138.055 52.3831 131.382V37.5377C52.3831 32.3936 51.9668 28.6399 51.134 26.2764C50.4399 23.7739 48.9131 22.1055 46.5535 21.2714C44.3326 20.2982 41.0709 19.742 36.7681 19.603V15.4322C38.9889 15.5712 41.7649 15.7102 45.0961 15.8493C48.4274 15.9883 51.6891 16.0578 54.8815 16.0578C58.2128 16.0578 61.405 15.9883 64.4586 15.8493C67.5123 15.7102 70.2883 15.5712 72.7867 15.4322L153.36 114.907V49.6332C153.36 41.9866 152.944 36.1474 152.111 32.1156C151.279 27.9447 149.405 24.9556 146.49 23.1483C143.714 21.3409 139.272 20.1591 133.165 19.603V15.4322C135.802 15.5712 139.272 15.7102 143.575 15.8493C147.878 15.9883 151.903 16.0578 155.651 16.0578C158.982 16.0578 162.244 15.9883 165.436 15.8493C168.767 15.7102 171.543 15.5712 173.764 15.4322Z" fill="#C1CAD6"/>
<path d="M298.202 15.4322C297.646 21.5494 297.23 27.4581 296.952 33.1583C296.814 38.8585 296.744 43.2379 296.744 46.2965C296.744 49.0771 296.814 51.7186 296.952 54.2211C297.091 56.7236 297.23 58.8091 297.369 60.4774H292.58C291.192 50.3283 289.041 42.3342 286.126 36.495C283.211 30.5168 279.394 26.3459 274.675 23.9824C270.094 21.4799 264.681 20.2286 258.435 20.2286H249.899C245.874 20.2286 242.82 20.5762 240.738 21.2714C238.656 21.9665 237.268 23.3568 236.574 25.4422C235.88 27.5276 235.533 30.7253 235.533 35.0352V143.477C235.533 147.787 235.88 150.985 236.574 153.07C237.268 155.156 238.656 156.546 240.738 157.241C242.82 157.936 245.874 158.284 249.899 158.284H260.101C266.347 158.284 271.83 156.963 276.549 154.322C281.407 151.541 285.501 146.884 288.833 140.349C292.303 133.815 294.94 124.987 296.744 113.864H301.533C301.116 118.313 300.908 124.152 300.908 131.382C300.908 134.58 300.978 139.098 301.116 144.937C301.255 150.776 301.672 156.824 302.366 163.08C295.287 162.802 287.306 162.663 278.423 162.663C269.539 162.524 261.628 162.455 254.688 162.455C251.218 162.455 246.776 162.455 241.363 162.455C235.949 162.455 230.12 162.524 223.874 162.663C217.628 162.663 211.312 162.733 204.928 162.872C198.543 162.872 192.505 162.941 186.814 163.08V158.91C191.256 158.632 194.587 158.075 196.808 157.241C199.029 156.407 200.486 154.739 201.18 152.236C202.013 149.734 202.429 145.98 202.429 140.975V37.5377C202.429 32.3936 202.013 28.6399 201.18 26.2764C200.486 23.7739 198.959 22.1055 196.599 21.2714C194.379 20.2982 191.117 19.742 186.814 19.603V15.4322C192.505 15.5712 198.543 15.7102 204.928 15.8493C211.312 15.8493 217.628 15.9188 223.874 16.0578C230.12 16.0578 235.949 16.0578 241.363 16.0578C246.776 16.0578 251.218 16.0578 254.688 16.0578C261.073 16.0578 268.29 16.0578 276.341 16.0578C284.53 15.9188 291.817 15.7102 298.202 15.4322ZM265.722 86.7538C265.722 86.7538 265.722 87.4489 265.722 88.8392C265.722 90.2295 265.722 90.9246 265.722 90.9246H229.287C229.287 90.9246 229.287 90.2295 229.287 88.8392C229.287 87.4489 229.287 86.7538 229.287 86.7538H265.722ZM271.76 59.2261C271.205 67.1508 270.927 73.1985 270.927 77.3693C271.066 81.5402 271.136 85.3635 271.136 88.8392C271.136 92.3149 271.205 96.1382 271.344 100.309C271.482 104.48 271.829 110.528 272.385 118.452H267.596C266.902 113.586 265.583 109.068 263.64 104.897C261.836 100.726 259.199 97.3895 255.729 94.8869C252.259 92.2454 247.748 90.9246 242.195 90.9246V86.7538C246.359 86.7538 249.899 85.9196 252.814 84.2513C255.729 82.4439 258.088 80.1499 259.893 77.3693C261.836 74.4498 263.363 71.3911 264.473 68.1935C265.583 64.9958 266.416 62.0067 266.971 59.2261H271.76Z" fill="#C1CAD6"/>
<path d="M555.346 15.4322V19.603C552.292 20.7153 549.1 23.1482 545.769 26.902C542.438 30.5168 539.523 36.356 537.024 44.4196L500.381 163.497C499.271 163.358 498.091 163.289 496.842 163.289C495.592 163.289 494.343 163.289 493.094 163.289C491.844 163.289 490.595 163.289 489.346 163.289C488.097 163.289 486.917 163.358 485.807 163.497L442.084 30.8643C440.697 26.5544 438.962 23.6348 436.88 22.1055C434.937 20.5762 432.854 19.742 430.634 19.603V15.4322C434.52 15.5712 439.101 15.7102 444.375 15.8493C449.788 15.9883 455.132 16.0578 460.406 16.0578C466.513 16.0578 472.204 15.9883 477.479 15.8493C482.892 15.7102 487.195 15.5712 490.387 15.4322V19.603C486.223 19.742 482.892 20.2286 480.394 21.0628C478.034 21.897 476.646 23.4958 476.23 25.8593C475.952 28.2228 476.646 31.9766 478.312 37.1206L507.876 127.628L503.087 136.178L526.614 61.3116C529.945 50.7454 531.542 42.4732 531.403 36.495C531.264 30.5168 529.668 26.2764 526.614 23.7739C523.561 21.1323 519.188 19.742 513.498 19.603V15.4322C518.217 15.5712 522.658 15.7102 526.823 15.8493C530.987 15.9883 535.15 16.0578 539.314 16.0578C542.507 16.0578 545.422 15.9883 548.059 15.8493C550.835 15.7102 553.264 15.5712 555.346 15.4322ZM406.69 15.4322V19.603C403.914 20.0201 401.971 21.0628 400.861 22.7312C399.75 24.2605 399.265 26.3459 399.403 28.9874C399.681 31.49 400.306 34.201 401.277 37.1206L433.132 129.714L427.51 137.221L454.16 59.2261L457.075 64.8568L424.387 163.497C423.277 163.358 422.097 163.289 420.848 163.289C419.599 163.289 418.35 163.289 417.101 163.289C415.851 163.289 414.602 163.289 413.353 163.289C412.104 163.289 410.924 163.358 409.813 163.497L363.177 32.9498C361.372 27.8057 359.221 24.33 356.722 22.5226C354.363 20.7152 352.142 19.742 350.06 19.603V15.4322C354.224 15.5712 359.151 15.7102 364.842 15.8493C370.533 15.9883 375.946 16.0578 381.082 16.0578C386.634 16.0578 391.561 15.9883 395.864 15.8493C400.306 15.7102 403.914 15.5712 406.69 15.4322Z" fill="#C1CAD6"/>
<path d="M672.516 15.4322C671.96 21.5494 671.544 27.4581 671.267 33.1583C671.128 38.8585 671.058 43.2379 671.058 46.2965C671.058 49.0771 671.128 51.7186 671.267 54.2211C671.406 56.7236 671.544 58.8091 671.683 60.4774H666.894C665.506 50.3283 663.355 42.3342 660.44 36.495C657.525 30.5168 653.708 26.3459 648.989 23.9824C644.409 21.4799 638.995 20.2286 632.749 20.2286H624.213C620.188 20.2286 617.134 20.5762 615.052 21.2714C612.97 21.9665 611.582 23.3568 610.888 25.4422C610.194 27.5276 609.847 30.7253 609.847 35.0352V143.477C609.847 147.787 610.194 150.985 610.888 153.07C611.582 155.156 612.97 156.546 615.052 157.241C617.134 157.936 620.188 158.284 624.213 158.284H634.415C640.661 158.284 646.144 156.963 650.863 154.322C655.721 151.541 659.816 146.884 663.147 140.349C666.617 133.815 669.254 124.987 671.058 113.864H675.847C675.431 118.313 675.222 124.152 675.222 131.382C675.222 134.58 675.292 139.098 675.43 144.937C675.569 150.776 675.986 156.824 676.68 163.08C669.601 162.802 661.62 162.663 652.737 162.663C643.854 162.524 635.942 162.455 629.002 162.455C625.532 162.455 621.09 162.455 615.677 162.455C610.264 162.455 604.434 162.524 598.188 162.663C591.942 162.663 585.626 162.733 579.242 162.872C572.857 162.872 566.819 162.941 561.128 163.08V158.91C565.57 158.632 568.901 158.075 571.122 157.241C573.343 156.407 574.8 154.739 575.494 152.236C576.327 149.734 576.743 145.98 576.743 140.975V37.5377C576.743 32.3936 576.327 28.6399 575.494 26.2764C574.8 23.7739 573.273 22.1055 570.914 21.2714C568.693 20.2982 565.431 19.742 561.128 19.603V15.4322C566.819 15.5712 572.857 15.7102 579.242 15.8493C585.626 15.8493 591.942 15.9188 598.188 16.0578C604.434 16.0578 610.264 16.0578 615.677 16.0578C621.09 16.0578 625.532 16.0578 629.002 16.0578C635.387 16.0578 642.604 16.0578 650.655 16.0578C658.844 15.9188 666.131 15.7102 672.516 15.4322ZM640.037 86.7538C640.037 86.7538 640.037 87.4489 640.037 88.8392C640.037 90.2295 640.037 90.9246 640.037 90.9246H603.601C603.601 90.9246 603.601 90.2295 603.601 88.8392C603.601 87.4489 603.601 86.7538 603.601 86.7538H640.037ZM646.074 59.2261C645.519 67.1508 645.241 73.1985 645.241 77.3693C645.38 81.5402 645.45 85.3635 645.45 88.8392C645.45 92.3149 645.519 96.1382 645.658 100.309C645.797 104.48 646.144 110.528 646.699 118.452H641.91C641.216 113.586 639.898 109.068 637.955 104.897C636.15 100.726 633.513 97.3895 630.043 94.8869C626.573 92.2454 622.062 90.9246 616.51 90.9246V86.7538C620.674 86.7538 624.213 85.9196 627.128 84.2513C630.043 82.4439 632.402 80.1499 634.207 77.3693C636.15 74.4498 637.677 71.3911 638.787 68.1935C639.898 64.9958 640.73 62.0067 641.286 59.2261H646.074Z" fill="#C1CAD6"/>
<path d="M803.084 15.0151L853.677 145.563C855.62 150.568 857.771 154.044 860.131 155.99C862.629 157.797 864.85 158.771 866.793 158.91V163.08C862.629 162.802 857.702 162.663 852.011 162.663C846.459 162.524 840.837 162.455 835.147 162.455C828.762 162.455 822.724 162.524 817.033 162.663C811.342 162.663 806.831 162.802 803.5 163.08V158.91C810.579 158.632 815.021 157.45 816.825 155.364C818.768 153.14 818.352 148.482 815.576 141.392L780.182 44.4196L783.929 38.9975L752.283 121.58C749.229 129.227 747.355 135.483 746.661 140.349C746.106 145.215 746.453 148.969 747.702 151.611C749.09 154.252 751.242 156.129 754.156 157.241C757.21 158.214 760.819 158.771 764.983 158.91V163.08C760.403 162.802 756.03 162.663 751.866 162.663C747.702 162.524 743.469 162.455 739.166 162.455C736.113 162.455 733.198 162.524 730.422 162.663C727.784 162.663 725.425 162.802 723.343 163.08V158.91C726.258 158.353 729.242 156.477 732.295 153.279C735.349 150.081 738.333 144.659 741.248 137.013L788.718 15.0151C790.939 15.1541 793.298 15.2236 795.797 15.2236C798.434 15.2236 800.863 15.1541 803.084 15.0151ZM817.658 103.02V107.191H755.614L757.696 103.02H817.658Z" fill="#C1CAD6"/>
<path d="M868.346 15.4322C871.817 15.5712 876.467 15.7102 882.296 15.8493C888.264 15.9883 894.164 16.0578 899.993 16.0578C906.656 16.0578 913.11 15.9883 919.356 15.8493C925.602 15.7102 930.043 15.6407 932.681 15.6407C945.589 15.6407 956.277 17.1005 964.744 20.0201C973.349 22.8007 979.734 26.902 983.898 32.3241C988.201 37.7462 990.352 44.2806 990.352 51.9271C990.352 56.6541 989.381 61.4506 987.438 66.3166C985.494 71.0436 982.163 75.4925 977.444 79.6633C972.863 83.6951 966.548 86.9623 958.498 89.4648C950.447 91.8283 940.315 93.01 928.1 93.01H908.113V88.8392H926.018C934.208 88.8392 940.384 87.3099 944.548 84.2513C948.851 81.0536 951.766 76.8828 953.292 71.7387C954.958 66.4556 955.791 60.6164 955.791 54.2211C955.791 43.2379 953.848 34.7571 949.961 28.7789C946.075 22.6616 939.413 19.603 929.974 19.603C924.561 19.603 921.021 20.7848 919.356 23.1483C917.829 25.5117 917.066 30.3082 917.066 37.5377V140.975C917.066 145.98 917.413 149.734 918.107 152.236C918.939 154.739 920.466 156.407 922.687 157.241C924.908 158.075 928.239 158.632 932.681 158.91V163.08C928.933 162.802 924.214 162.663 918.523 162.663C912.832 162.524 907.072 162.455 901.242 162.455C894.58 162.455 888.264 162.524 882.296 162.663C876.467 162.663 871.817 162.802 868.346 163.08V158.91C872.788 158.632 876.119 158.075 878.34 157.241C880.561 156.407 882.019 154.739 882.712 152.236C883.545 149.734 883.962 145.98 883.962 140.975V37.5377C883.962 32.3936 883.545 28.6399 882.712 26.2764C882.019 23.7739 880.491 22.1055 878.132 21.2714C875.911 20.2982 872.649 19.742 868.346 19.603V15.4322ZM907.697 89.4648C913.665 89.6039 918.801 89.8819 923.104 90.299C927.545 90.7161 931.431 91.1332 934.763 91.5503C938.094 91.8283 941.078 92.0368 943.715 92.1759C956.346 93.2881 965.646 95.9992 971.614 100.309C977.721 104.619 981.677 111.084 983.482 119.704L988.27 141.183C989.52 146.745 990.838 150.637 992.226 152.862C993.614 155.086 995.627 156.198 998.264 156.198C1000.07 156.059 1001.53 155.642 1002.64 154.947C1003.89 154.113 1005.2 152.931 1006.59 151.402L1009.51 153.905C1005.76 158.214 1001.73 161.273 997.431 163.08C993.128 165.027 987.923 166 981.816 166C974.321 166 968.144 164.401 963.286 161.204C958.428 158.006 955.236 152.097 953.709 143.477L949.961 122.623C948.99 116.784 947.81 111.709 946.422 107.399C945.034 102.951 943.091 99.4749 940.592 96.9724C938.233 94.3308 934.901 93.01 930.599 93.01H908.113L907.697 89.4648Z" fill="#C1CAD6"/>
<path d="M1123.89 15.4322C1123.33 21.5494 1122.92 27.4581 1122.64 33.1583C1122.5 38.8585 1122.43 43.2379 1122.43 46.2965C1122.43 49.0771 1122.5 51.7186 1122.64 54.2211C1122.78 56.7236 1122.92 58.8091 1123.06 60.4774H1118.27C1116.88 50.3283 1114.73 42.3342 1111.81 36.495C1108.9 30.5168 1105.08 26.3459 1100.36 23.9824C1095.78 21.4799 1090.37 20.2286 1084.12 20.2286H1075.59C1071.56 20.2286 1068.51 20.5762 1066.43 21.2714C1064.34 21.9665 1062.96 23.3568 1062.26 25.4422C1061.57 27.5276 1061.22 30.7253 1061.22 35.0352V143.477C1061.22 147.787 1061.57 150.985 1062.26 153.07C1062.96 155.156 1064.34 156.546 1066.43 157.241C1068.51 157.936 1071.56 158.284 1075.59 158.284H1085.79C1092.03 158.284 1097.52 156.963 1102.24 154.322C1107.09 151.541 1111.19 146.884 1114.52 140.349C1117.99 133.815 1120.63 124.987 1122.43 113.864H1127.22C1126.8 118.313 1126.6 124.152 1126.6 131.382C1126.6 134.58 1126.66 139.098 1126.8 144.937C1126.94 150.776 1127.36 156.824 1128.05 163.08C1120.97 162.802 1112.99 162.663 1104.11 162.663C1095.23 162.524 1087.31 162.455 1080.37 162.455C1076.9 162.455 1072.46 162.455 1067.05 162.455C1061.64 162.455 1055.81 162.524 1049.56 162.663C1043.31 162.663 1037 162.733 1030.61 162.872C1024.23 162.872 1018.19 162.941 1012.5 163.08V158.91C1016.94 158.632 1020.27 158.075 1022.49 157.241C1024.72 156.407 1026.17 154.739 1026.87 152.236C1027.7 149.734 1028.12 145.98 1028.12 140.975V37.5377C1028.12 32.3936 1027.7 28.6399 1026.87 26.2764C1026.17 23.7739 1024.65 22.1055 1022.29 21.2714C1020.07 20.2982 1016.8 19.742 1012.5 19.603V15.4322C1018.19 15.5712 1024.23 15.7102 1030.61 15.8493C1037 15.8493 1043.31 15.9188 1049.56 16.0578C1055.81 16.0578 1061.64 16.0578 1067.05 16.0578C1072.46 16.0578 1076.9 16.0578 1080.37 16.0578C1086.76 16.0578 1093.98 16.0578 1102.03 16.0578C1110.22 15.9188 1117.5 15.7102 1123.89 15.4322ZM1091.41 86.7538C1091.41 86.7538 1091.41 87.4489 1091.41 88.8392C1091.41 90.2295 1091.41 90.9246 1091.41 90.9246H1054.97C1054.97 90.9246 1054.97 90.2295 1054.97 88.8392C1054.97 87.4489 1054.97 86.7538 1054.97 86.7538H1091.41ZM1097.45 59.2261C1096.89 67.1508 1096.61 73.1985 1096.61 77.3693C1096.75 81.5402 1096.82 85.3635 1096.82 88.8392C1096.82 92.3149 1096.89 96.1382 1097.03 100.309C1097.17 104.48 1097.52 110.528 1098.07 118.452H1093.28C1092.59 113.586 1091.27 109.068 1089.33 104.897C1087.52 100.726 1084.89 97.3895 1081.42 94.8869C1077.95 92.2454 1073.43 90.9246 1067.88 90.9246V86.7538C1072.05 86.7538 1075.59 85.9196 1078.5 84.2513C1081.42 82.4439 1083.78 80.1499 1085.58 77.3693C1087.52 74.4498 1089.05 71.3911 1090.16 68.1935C1091.27 64.9958 1092.1 62.0067 1092.66 59.2261H1097.45Z" fill="#C1CAD6"/>
<path d="M1257.38 15.4322V19.603C1252.94 19.742 1249.54 20.2982 1247.18 21.2714C1244.96 22.1055 1243.5 23.7739 1242.81 26.2764C1242.12 28.6399 1241.77 32.3936 1241.77 37.5377V140.975C1241.77 145.98 1242.12 149.734 1242.81 152.236C1243.64 154.739 1245.17 156.407 1247.39 157.241C1249.61 158.075 1252.94 158.632 1257.38 158.91V163.08C1253.64 162.802 1248.92 162.663 1243.23 162.663C1237.54 162.524 1231.78 162.455 1225.95 162.455C1219.14 162.455 1212.83 162.524 1207 162.663C1201.31 162.663 1196.66 162.802 1193.05 163.08V158.91C1197.49 158.632 1200.82 158.075 1203.04 157.241C1205.26 156.407 1206.72 154.739 1207.42 152.236C1208.25 149.734 1208.67 145.98 1208.67 140.975V37.5377C1208.67 32.3936 1208.25 28.6399 1207.42 26.2764C1206.72 23.7739 1205.2 22.1055 1202.84 21.2714C1200.61 20.2982 1197.35 19.742 1193.05 19.603V15.4322C1196.66 15.5712 1201.31 15.7102 1207 15.8493C1212.83 15.9883 1219.14 16.0578 1225.95 16.0578C1231.78 16.0578 1237.54 15.9883 1243.23 15.8493C1248.92 15.7102 1253.64 15.5712 1257.38 15.4322Z" fill="#C1CAD6"/>
<path d="M1397.92 15.4322C1397.36 22.5226 1396.94 29.335 1396.67 35.8694C1396.53 42.4037 1396.46 47.4087 1396.46 50.8844C1396.46 53.9431 1396.53 56.8626 1396.67 59.6432C1396.8 62.4238 1396.94 64.7873 1397.08 66.7337H1392.29C1390.07 55.0553 1387.23 45.8099 1383.76 38.9975C1380.43 32.1851 1376.4 27.3886 1371.68 24.608C1366.96 21.6884 1361.41 20.2286 1355.03 20.2286H1350.24V139.307C1350.24 144.868 1350.79 149.039 1351.9 151.819C1353.15 154.6 1355.37 156.477 1358.57 157.45C1361.76 158.284 1366.41 158.771 1372.51 158.91V163.08C1368.21 162.941 1362.45 162.802 1355.23 162.663C1348.16 162.524 1340.73 162.455 1332.96 162.455C1325.32 162.455 1318.1 162.524 1311.3 162.663C1304.5 162.802 1299.02 162.941 1294.86 163.08V158.91C1301.1 158.771 1305.82 158.284 1309.01 157.45C1312.21 156.477 1314.36 154.6 1315.47 151.819C1316.58 149.039 1317.13 144.868 1317.13 139.307V20.2286H1312.55C1306.17 20.2286 1300.62 21.6884 1295.9 24.608C1291.18 27.3886 1287.15 32.1851 1283.82 38.9975C1280.49 45.6709 1277.58 54.9162 1275.08 66.7337H1270.29C1270.57 64.7873 1270.7 62.4238 1270.7 59.6432C1270.84 56.8626 1270.91 53.9431 1270.91 50.8844C1270.91 47.4087 1270.77 42.4037 1270.5 35.8694C1270.36 29.335 1270.01 22.5226 1269.46 15.4322C1275.84 15.5712 1282.78 15.7102 1290.28 15.8493C1297.91 15.9883 1305.54 16.0578 1313.18 16.0578C1320.81 16.0578 1327.68 16.0578 1333.79 16.0578C1340.04 16.0578 1346.91 16.0578 1354.4 16.0578C1362.04 16.0578 1369.67 15.9883 1377.3 15.8493C1384.94 15.7102 1391.81 15.5712 1397.92 15.4322Z" fill="#C1CAD6"/>
<path d="M1433.3 0C1437.74 0 1441.7 1.80737 1445.17 5.42211C1448.64 8.89783 1450.38 13.9029 1450.38 20.4372C1450.38 26.4154 1449.68 33.1583 1448.29 40.6658C1446.91 48.1734 1445.24 56.3065 1443.3 65.0653C1441.35 73.6851 1439.62 82.7915 1438.09 92.3844C1436.56 101.977 1435.59 111.918 1435.18 122.206H1431.43C1431.15 111.918 1430.18 101.977 1428.51 92.3844C1426.99 82.7915 1425.25 73.6851 1423.31 65.0653C1421.5 56.3065 1419.84 48.1734 1418.31 40.6658C1416.92 33.1583 1416.23 26.4154 1416.23 20.4372C1416.23 13.9029 1417.83 8.89783 1421.02 5.42211C1424.35 1.80737 1428.44 0 1433.3 0ZM1433.3 133.884C1438.72 133.884 1443.02 135.344 1446.21 138.264C1449.4 141.044 1451 144.937 1451 149.942C1451 154.947 1449.4 158.91 1446.21 161.829C1443.02 164.61 1438.72 166 1433.3 166C1427.89 166 1423.59 164.61 1420.39 161.829C1417.2 158.91 1415.61 154.947 1415.61 149.942C1415.61 144.937 1417.2 141.044 1420.39 138.264C1423.59 135.344 1427.89 133.884 1433.3 133.884Z" fill="#C1CAD6"/>
</g>
</svg>
