<svg width="1360" height="166" viewBox="0 0 1360 166" fill="none" xmlns="http://www.w3.org/2000/svg">
<g opacity="0.5">
<path d="M-293.259 15.0151L-242.666 145.563C-240.723 150.568 -238.572 154.044 -236.212 155.99C-233.714 157.797 -231.493 158.771 -229.55 158.91V163.08C-233.714 162.802 -238.641 162.663 -244.332 162.663C-249.884 162.524 -255.505 162.455 -261.196 162.455C-267.581 162.455 -273.619 162.524 -279.31 162.663C-285 162.663 -289.511 162.802 -292.843 163.08V158.91C-285.764 158.632 -281.322 157.45 -279.518 155.364C-277.575 153.14 -277.991 148.482 -280.767 141.392L-316.161 44.4196L-312.414 38.9975L-344.06 121.58C-347.114 129.227 -348.988 135.483 -349.682 140.349C-350.237 145.215 -349.89 148.969 -348.641 151.611C-347.252 154.252 -345.101 156.129 -342.186 157.241C-339.133 158.214 -335.524 158.771 -331.36 158.91V163.08C-335.94 162.802 -340.312 162.663 -344.476 162.663C-348.641 162.524 -352.874 162.455 -357.177 162.455C-360.23 162.455 -363.145 162.524 -365.921 162.663C-368.558 162.663 -370.918 162.802 -373 163.08V158.91C-370.085 158.353 -367.101 156.477 -364.047 153.279C-360.994 150.081 -358.01 144.659 -355.095 137.013L-307.625 15.0151C-305.404 15.1541 -303.045 15.2236 -300.546 15.2236C-297.909 15.2236 -295.48 15.1541 -293.259 15.0151ZM-278.685 103.02V107.191H-340.729L-338.647 103.02H-278.685Z" fill="#C1CAD6"/>
<path d="M-90.7919 15.4322V19.603C-95.2335 20.1591 -98.5647 21.3409 -100.786 23.1483C-103.006 24.8166 -104.533 27.5276 -105.366 31.2814C-106.06 35.0352 -106.407 40.3183 -106.407 47.1306V163.497C-108.073 163.358 -109.808 163.289 -111.612 163.289C-113.278 163.289 -115.082 163.358 -117.025 163.497L-207.384 48.799V128.879C-207.384 136.526 -206.968 142.435 -206.135 146.606C-205.302 150.637 -203.498 153.557 -200.722 155.364C-197.807 157.033 -193.296 158.214 -187.189 158.91V163.08C-189.826 162.802 -193.296 162.663 -197.599 162.663C-201.902 162.524 -205.927 162.455 -209.675 162.455C-212.867 162.455 -216.129 162.524 -219.46 162.663C-222.791 162.663 -225.567 162.802 -227.788 163.08V158.91C-223.346 158.214 -220.015 157.033 -217.794 155.364C-215.574 153.696 -214.116 150.985 -213.422 147.231C-212.589 143.338 -212.173 138.055 -212.173 131.382V37.5377C-212.173 32.3936 -212.589 28.6399 -213.422 26.2764C-214.116 23.7739 -215.643 22.1055 -218.003 21.2714C-220.223 20.2982 -223.485 19.742 -227.788 19.603V15.4322C-225.567 15.5712 -222.791 15.7102 -219.46 15.8493C-216.129 15.9883 -212.867 16.0578 -209.675 16.0578C-206.343 16.0578 -203.151 15.9883 -200.097 15.8493C-197.044 15.7102 -194.268 15.5712 -191.769 15.4322L-111.196 114.907V49.6332C-111.196 41.9866 -111.612 36.1474 -112.445 32.1156C-113.278 27.9447 -115.151 24.9556 -118.066 23.1483C-120.842 21.3409 -125.284 20.1591 -131.391 19.603V15.4322C-128.754 15.5712 -125.284 15.7102 -120.981 15.8493C-116.678 15.9883 -112.653 16.0578 -108.905 16.0578C-105.574 16.0578 -102.312 15.9883 -99.1199 15.8493C-95.7887 15.7102 -93.0127 15.5712 -90.7919 15.4322Z" fill="#C1CAD6"/>
<path d="M43.6392 15.2236V19.3945C40.5855 20.6457 37.4625 23.1482 34.2701 26.902C31.0777 30.5168 27.5383 36.0779 23.6519 43.5854L-15.6981 121.58H-25.4835L-74.2025 31.2814C-76.7009 26.5544 -78.9911 23.4263 -81.0732 21.897C-83.0164 20.3677 -84.7514 19.603 -86.2782 19.603V15.2236C-82.5305 15.6407 -78.7136 15.9188 -74.8271 16.0578C-70.8019 16.1968 -66.4297 16.2663 -61.7104 16.2663C-55.6032 16.2663 -49.0102 16.1968 -41.9314 16.0578C-34.8526 15.7797 -28.3983 15.5017 -22.5687 15.2236V19.603C-26.0387 19.603 -29.1617 19.8811 -31.9377 20.4372C-34.7137 20.9933 -36.657 22.036 -37.7674 23.5653C-38.8778 24.9556 -38.6002 27.2496 -36.9346 30.4472L-4.03885 93.8442L-10.4931 102.186L10.9516 59.0176C16.0872 49.0075 18.7939 41.1524 19.0715 35.4523C19.4879 29.7521 18.0999 25.7203 14.9074 23.3568C11.8539 20.8543 7.4816 19.5335 1.79077 19.3945V15.2236C6.51001 15.3627 10.9516 15.5017 15.1156 15.6407C19.2797 15.7797 23.5131 15.8493 27.8159 15.8493C30.8695 15.8493 33.7149 15.7797 36.3521 15.6407C39.1281 15.5017 41.5571 15.3627 43.6392 15.2236ZM-0.915833 88.6307V140.975C-0.915833 145.98 -0.568817 149.734 0.125183 152.236C0.957977 154.739 2.4848 156.407 4.7056 157.241C6.92642 158.075 10.2576 158.632 14.6992 158.91V163.08C10.9516 162.802 6.0936 162.663 0.125183 162.663C-5.70444 162.524 -11.5341 162.455 -17.3637 162.455C-23.8873 162.455 -30.0639 162.524 -35.8936 162.663C-41.7232 162.663 -46.3036 162.802 -49.6348 163.08V158.91C-45.1932 158.632 -41.862 158.075 -39.6412 157.241C-37.4204 156.407 -35.963 154.739 -35.269 152.236C-34.4362 149.734 -34.0197 145.98 -34.0197 140.975V98.2236L-15.9063 111.153L-0.915833 88.6307Z" fill="#C1CAD6"/>
<path d="M178.563 15.4322C178.008 22.5226 177.591 29.335 177.314 35.8694C177.175 42.4037 177.106 47.4087 177.106 50.8844C177.106 53.9431 177.175 56.8626 177.314 59.6432C177.453 62.4238 177.591 64.7873 177.73 66.7337H172.942C170.721 55.0553 167.875 45.8099 164.405 38.9975C161.074 32.1851 157.049 27.3886 152.33 24.608C147.611 21.6884 142.058 20.2286 135.674 20.2286H130.885V139.307C130.885 144.868 131.44 149.039 132.551 151.819C133.8 154.6 136.021 156.477 139.213 157.45C142.406 158.284 147.055 158.771 153.163 158.91V163.08C148.86 162.941 143.099 162.802 135.882 162.663C128.803 162.524 121.377 162.455 113.604 162.455C105.97 162.455 98.7527 162.524 91.9515 162.663C85.1503 162.802 79.6676 162.941 75.5036 163.08V158.91C81.7497 158.771 86.4689 158.284 89.6613 157.45C92.8537 156.477 95.0051 154.6 96.1155 151.819C97.2259 149.039 97.7811 144.868 97.7811 139.307V20.2286H93.2007C86.8159 20.2286 81.2639 21.6884 76.5446 24.608C71.8254 27.3886 67.8002 32.1851 64.469 38.9975C61.1378 45.6709 58.223 54.9162 55.7245 66.7337H50.9359C51.2135 64.7873 51.3524 62.4238 51.3524 59.6432C51.4911 56.8626 51.5605 53.9431 51.5605 50.8844C51.5605 47.4087 51.4218 42.4037 51.1442 35.8694C51.0054 29.335 50.6583 22.5226 50.1031 15.4322C56.4879 15.5712 63.428 15.7102 70.9232 15.8493C78.5573 15.9883 86.1913 16.0578 93.8253 16.0578C101.459 16.0578 108.33 16.0578 114.437 16.0578C120.683 16.0578 127.554 16.0578 135.049 16.0578C142.683 16.0578 150.317 15.9883 157.951 15.8493C165.585 15.7102 172.456 15.5712 178.563 15.4322Z" fill="#C1CAD6"/>
<path d="M279.326 163.08V158.91C283.767 158.632 287.099 158.075 289.319 157.241C291.54 156.407 292.998 154.739 293.692 152.236C294.524 149.734 294.941 145.98 294.941 140.975V37.5377C294.941 32.3936 294.524 28.6399 293.692 26.2764C292.998 23.7739 291.471 22.1055 289.111 21.2714C286.89 20.2982 283.629 19.742 279.326 19.603V15.4322C283.073 15.5712 287.931 15.7102 293.9 15.8493C300.007 15.9883 306.045 16.0578 312.013 16.0578C318.398 16.0578 324.367 15.9883 329.919 15.8493C335.609 15.7102 340.19 15.5712 343.66 15.4322V19.603C339.218 19.742 335.818 20.2982 333.458 21.2714C331.237 22.1055 329.78 23.7739 329.086 26.2764C328.392 28.6399 328.045 32.3936 328.045 37.5377V140.975C328.045 145.98 328.392 149.734 329.086 152.236C329.919 154.739 331.445 156.407 333.666 157.241C335.887 158.075 339.218 158.632 343.66 158.91V163.08C340.19 162.802 335.609 162.663 329.919 162.663C324.367 162.524 318.398 162.455 312.013 162.455C306.045 162.455 300.007 162.524 293.9 162.663C287.931 162.663 283.073 162.802 279.326 163.08ZM191.049 163.08V158.91C195.49 158.632 198.821 158.075 201.042 157.241C203.263 156.407 204.72 154.739 205.414 152.236C206.247 149.734 206.664 145.98 206.664 140.975V37.5377C206.664 32.3936 206.247 28.6399 205.414 26.2764C204.72 23.7739 203.194 22.1055 200.834 21.2714C198.613 20.2982 195.351 19.742 191.049 19.603V15.4322C194.657 15.5712 199.307 15.7102 204.998 15.8493C210.828 15.9883 217.143 16.0578 223.944 16.0578C229.774 16.0578 235.534 15.9883 241.225 15.8493C246.916 15.7102 251.635 15.5712 255.383 15.4322V19.603C250.941 19.742 247.54 20.2982 245.181 21.2714C242.96 22.1055 241.503 23.7739 240.809 26.2764C240.115 28.6399 239.768 32.3936 239.768 37.5377V140.975C239.768 145.98 240.115 149.734 240.809 152.236C241.641 154.739 243.168 156.407 245.389 157.241C247.61 158.075 250.941 158.632 255.383 158.91V163.08C251.635 162.802 246.916 162.663 241.225 162.663C235.534 162.524 229.774 162.455 223.944 162.455C217.143 162.455 210.828 162.524 204.998 162.663C199.307 162.663 194.657 162.802 191.049 163.08ZM226.234 90.9246V86.7538H308.474V90.9246H226.234Z" fill="#C1CAD6"/>
<path d="M421.903 15.4322V19.603C417.461 19.742 414.06 20.2982 411.701 21.2714C409.48 22.1055 408.023 23.7739 407.329 26.2764C406.635 28.6399 406.288 32.3936 406.288 37.5377V140.975C406.288 145.98 406.635 149.734 407.329 152.236C408.161 154.739 409.688 156.407 411.909 157.241C414.13 158.075 417.461 158.632 421.903 158.91V163.08C418.155 162.802 413.436 162.663 407.745 162.663C402.054 162.524 396.294 162.455 390.464 162.455C383.663 162.455 377.348 162.524 371.518 162.663C365.827 162.663 361.177 162.802 357.569 163.08V158.91C362.01 158.632 365.341 158.075 367.562 157.241C369.783 156.407 371.24 154.739 371.934 152.236C372.767 149.734 373.184 145.98 373.184 140.975V37.5377C373.184 32.3936 372.767 28.6399 371.934 26.2764C371.24 23.7739 369.714 22.1055 367.354 21.2714C365.133 20.2982 361.871 19.742 357.569 19.603V15.4322C361.177 15.5712 365.827 15.7102 371.518 15.8493C377.348 15.9883 383.663 16.0578 390.464 16.0578C396.294 16.0578 402.054 15.9883 407.745 15.8493C413.436 15.7102 418.155 15.5712 421.903 15.4322Z" fill="#C1CAD6"/>
<path d="M573.052 15.4322V19.603C568.61 20.1591 565.279 21.3409 563.058 23.1483C560.837 24.8166 559.31 27.5276 558.478 31.2814C557.784 35.0352 557.437 40.3183 557.437 47.1306V163.497C555.771 163.358 554.036 163.289 552.232 163.289C550.566 163.289 548.762 163.358 546.818 163.497L456.459 48.799V128.879C456.459 136.526 456.876 142.435 457.708 146.606C458.541 150.637 460.346 153.557 463.122 155.364C466.036 157.033 470.547 158.214 476.655 158.91V163.08C474.017 162.802 470.547 162.663 466.245 162.663C461.942 162.524 457.917 162.455 454.169 162.455C450.977 162.455 447.715 162.524 444.383 162.663C441.052 162.663 438.276 162.802 436.055 163.08V158.91C440.497 158.214 443.828 157.033 446.049 155.364C448.27 153.696 449.727 150.985 450.421 147.231C451.254 143.338 451.67 138.055 451.67 131.382V37.5377C451.67 32.3936 451.254 28.6399 450.421 26.2764C449.727 23.7739 448.201 22.1055 445.841 21.2714C443.62 20.2982 440.358 19.742 436.055 19.603V15.4322C438.276 15.5712 441.052 15.7102 444.383 15.8493C447.715 15.9883 450.977 16.0578 454.169 16.0578C457.5 16.0578 460.693 15.9883 463.746 15.8493C466.8 15.7102 469.576 15.5712 472.074 15.4322L552.648 114.907V49.6332C552.648 41.9866 552.232 36.1474 551.399 32.1156C550.566 27.9447 548.692 24.9556 545.777 23.1483C543.001 21.3409 538.56 20.1591 532.452 19.603V15.4322C535.09 15.5712 538.56 15.7102 542.862 15.8493C547.165 15.9883 551.19 16.0578 554.938 16.0578C558.269 16.0578 561.531 15.9883 564.724 15.8493C568.055 15.7102 570.831 15.5712 573.052 15.4322Z" fill="#C1CAD6"/>
<path d="M661.921 12.5126C671.359 12.5126 679.063 13.8333 685.031 16.4749C691 19.1164 696.343 22.3141 701.063 26.0679C702.728 27.3191 704.116 27.9447 705.227 27.9447C707.864 27.9447 709.599 23.7739 710.432 15.4322H715.22C714.943 20.8543 714.734 27.4581 714.596 35.2437C714.457 42.8903 714.387 53.1089 714.387 65.8995H709.599C708.627 57.5578 707.1 50.3283 705.018 44.2111C703.075 37.9548 699.397 32.6022 693.984 28.1533C690.652 24.9556 686.489 22.4531 681.492 20.6457C676.634 18.8384 671.706 17.9347 666.709 17.9347C659.075 17.9347 652.552 19.9506 647.139 23.9824C641.725 27.8752 637.284 33.2278 633.814 40.0402C630.344 46.8526 627.776 54.5687 626.11 63.1884C624.445 71.6692 623.612 80.4975 623.612 89.6734C623.612 114.698 627.012 132.981 633.814 144.52C640.754 156.059 650.678 161.829 663.586 161.829C666.918 161.829 669.832 161.412 672.331 160.578C674.829 159.744 676.842 158.771 678.369 157.658C680.312 156.268 681.63 154.808 682.324 153.279C683.019 151.611 683.366 149.456 683.366 146.814V126.377C683.366 119.982 682.81 115.255 681.7 112.196C680.728 108.998 678.716 106.843 675.662 105.731C672.609 104.619 668.167 103.993 662.337 103.854V99.6834C665.252 99.8224 668.722 99.9615 672.747 100.101C676.911 100.101 681.214 100.17 685.656 100.309C690.097 100.309 694.192 100.309 697.94 100.309C703.769 100.309 709.113 100.24 713.971 100.101C718.829 99.9615 722.785 99.8224 725.839 99.6834V103.854C723.201 103.993 721.189 104.48 719.801 105.314C718.551 106.148 717.649 107.817 717.094 110.319C716.678 112.822 716.469 116.645 716.469 121.789V163.08H712.305C712.167 160.717 711.611 158.145 710.64 155.364C709.807 152.584 708.35 151.193 706.268 151.193C705.296 151.193 703.977 151.472 702.312 152.028C700.785 152.445 698.356 153.626 695.025 155.573C689.889 158.492 684.476 160.995 678.785 163.08C673.094 165.027 667.126 166 660.88 166C644.779 166 631.176 163.011 620.072 157.033C608.968 151.054 600.571 142.504 594.88 131.382C589.328 120.121 586.552 106.635 586.552 90.9246C586.552 75.0754 589.745 61.3116 596.129 49.6332C602.653 37.9548 611.536 28.8484 622.779 22.3141C634.161 15.7797 647.208 12.5126 661.921 12.5126Z" fill="#C1CAD6"/>
<path d="M965.426 15.4322V19.603C960.984 19.742 957.653 20.2982 955.432 21.2714C953.211 22.1055 951.684 23.7739 950.852 26.2764C950.158 28.6399 949.811 32.3936 949.811 37.5377V140.975C949.811 145.98 950.158 149.734 950.852 152.236C951.684 154.739 953.211 156.407 955.432 157.241C957.653 158.075 960.984 158.632 965.426 158.91V163.08C961.539 162.802 956.612 162.663 950.643 162.663C944.814 162.524 938.845 162.455 932.738 162.455C926.076 162.455 919.83 162.524 914 162.663C908.17 162.663 903.451 162.802 899.842 163.08V158.91C904.562 158.632 908.101 158.075 910.461 157.241C912.959 156.407 914.625 154.739 915.457 152.236C916.29 149.734 916.707 145.98 916.707 140.975V28.1533H918.164L866.53 163.289H863.199L806.985 28.9874V128.879C806.985 136.526 807.401 142.435 808.234 146.606C809.067 150.637 810.871 153.557 813.647 155.364C816.562 157.033 821.073 158.214 827.18 158.91V163.08C824.543 162.802 821.073 162.663 816.77 162.663C812.467 162.524 808.442 162.455 804.695 162.455C801.502 162.455 798.24 162.524 794.909 162.663C791.578 162.663 788.802 162.802 786.581 163.08V158.91C791.023 158.214 794.354 157.033 796.575 155.364C798.796 153.696 800.253 150.985 800.947 147.231C801.78 143.338 802.196 138.055 802.196 131.382V37.5377C802.196 32.3936 801.78 28.6399 800.947 26.2764C800.253 23.7739 798.726 22.1055 796.367 21.2714C794.146 20.2982 790.884 19.742 786.581 19.603V15.4322C788.802 15.5712 791.578 15.7102 794.909 15.8493C798.24 15.9883 801.502 16.0578 804.695 16.0578C810.663 16.0578 816.493 15.9883 822.183 15.8493C828.013 15.7102 833.149 15.5712 837.59 15.4322L881.312 121.163L876.107 125.96L917.956 16.0578C920.315 16.0578 922.744 16.0578 925.243 16.0578C927.741 16.0578 930.24 16.0578 932.738 16.0578C938.845 16.0578 944.814 15.9883 950.643 15.8493C956.612 15.7102 961.539 15.5712 965.426 15.4322Z" fill="#C1CAD6"/>
<path d="M1048.86 15.0151L1099.46 145.563C1101.4 150.568 1103.55 154.044 1105.91 155.99C1108.41 157.797 1110.63 158.771 1112.57 158.91V163.08C1108.41 162.802 1103.48 162.663 1097.79 162.663C1092.24 162.524 1086.62 162.455 1080.93 162.455C1074.54 162.455 1068.5 162.524 1062.81 162.663C1057.12 162.663 1052.61 162.802 1049.28 163.08V158.91C1056.36 158.632 1060.8 157.45 1062.6 155.364C1064.55 153.14 1064.13 148.482 1061.36 141.392L1025.96 44.4196L1029.71 38.9975L998.063 121.58C995.009 129.227 993.135 135.483 992.441 140.349C991.886 145.215 992.233 148.969 993.482 151.611C994.87 154.252 997.022 156.129 999.936 157.241C1002.99 158.214 1006.6 158.771 1010.76 158.91V163.08C1006.18 162.802 1001.81 162.663 997.646 162.663C993.482 162.524 989.249 162.455 984.946 162.455C981.892 162.455 978.978 162.524 976.202 162.663C973.564 162.663 971.205 162.802 969.123 163.08V158.91C972.038 158.353 975.022 156.477 978.075 153.279C981.129 150.081 984.113 144.659 987.028 137.013L1034.5 15.0151C1036.72 15.1541 1039.08 15.2236 1041.58 15.2236C1044.21 15.2236 1046.64 15.1541 1048.86 15.0151ZM1063.44 103.02V107.191H1001.39L1003.48 103.02H1063.44Z" fill="#C1CAD6"/>
<path d="M1114.13 15.4322C1117.6 15.5712 1122.25 15.7102 1128.08 15.8493C1134.04 15.9883 1139.94 16.0578 1145.77 16.0578C1152.44 16.0578 1158.89 15.9883 1165.14 15.8493C1171.38 15.7102 1175.82 15.6407 1178.46 15.6407C1191.37 15.6407 1202.06 17.1005 1210.52 20.0201C1219.13 22.8007 1225.51 26.902 1229.68 32.3241C1233.98 37.7462 1236.13 44.2806 1236.13 51.9271C1236.13 56.6541 1235.16 61.4506 1233.22 66.3166C1231.27 71.0436 1227.94 75.4925 1223.22 79.6633C1218.64 83.6951 1212.33 86.9623 1204.28 89.4648C1196.23 91.8283 1186.09 93.01 1173.88 93.01H1153.89V88.8392H1171.8C1179.99 88.8392 1186.16 87.3099 1190.33 84.2513C1194.63 81.0536 1197.55 76.8828 1199.07 71.7387C1200.74 66.4556 1201.57 60.6164 1201.57 54.2211C1201.57 43.2379 1199.63 34.7571 1195.74 28.7789C1191.85 22.6616 1185.19 19.603 1175.75 19.603C1170.34 19.603 1166.8 20.7848 1165.14 23.1483C1163.61 25.5117 1162.85 30.3082 1162.85 37.5377V140.975C1162.85 145.98 1163.19 149.734 1163.89 152.236C1164.72 154.739 1166.25 156.407 1168.47 157.241C1170.69 158.075 1174.02 158.632 1178.46 158.91V163.08C1174.71 162.802 1169.99 162.663 1164.3 162.663C1158.61 162.524 1152.85 162.455 1147.02 162.455C1140.36 162.455 1134.04 162.524 1128.08 162.663C1122.25 162.663 1117.6 162.802 1114.13 163.08V158.91C1118.57 158.632 1121.9 158.075 1124.12 157.241C1126.34 156.407 1127.8 154.739 1128.49 152.236C1129.33 149.734 1129.74 145.98 1129.74 140.975V37.5377C1129.74 32.3936 1129.33 28.6399 1128.49 26.2764C1127.8 23.7739 1126.27 22.1055 1123.91 21.2714C1121.69 20.2982 1118.43 19.742 1114.13 19.603V15.4322ZM1153.48 89.4648C1159.44 89.6039 1164.58 89.8819 1168.88 90.299C1173.32 90.7161 1177.21 91.1332 1180.54 91.5503C1183.87 91.8283 1186.86 92.0368 1189.5 92.1759C1202.13 93.2881 1211.43 95.9992 1217.39 100.309C1223.5 104.619 1227.46 111.084 1229.26 119.704L1234.05 141.183C1235.3 146.745 1236.62 150.637 1238.01 152.862C1239.39 155.086 1241.41 156.198 1244.04 156.198C1245.85 156.059 1247.31 155.642 1248.42 154.947C1249.67 154.113 1250.98 152.931 1252.37 151.402L1255.29 153.905C1251.54 158.214 1247.51 161.273 1243.21 163.08C1238.91 165.027 1233.7 166 1227.6 166C1220.1 166 1213.92 164.401 1209.07 161.204C1204.21 158.006 1201.02 152.097 1199.49 143.477L1195.74 122.623C1194.77 116.784 1193.59 111.709 1192.2 107.399C1190.81 102.951 1188.87 99.4749 1186.37 96.9724C1184.01 94.3308 1180.68 93.01 1176.38 93.01H1153.89L1153.48 89.4648Z" fill="#C1CAD6"/>
<path d="M1322.62 15.4322V19.603C1318.17 19.742 1314.77 20.2982 1312.41 21.2714C1310.19 22.1055 1308.74 23.7739 1308.04 26.2764C1307.35 28.6399 1307 32.3936 1307 37.5377V140.975C1307 145.98 1307.35 149.734 1308.04 152.236C1308.87 154.739 1310.4 156.407 1312.62 157.241C1314.84 158.075 1318.17 158.632 1322.62 158.91V163.08C1318.87 162.802 1314.15 162.663 1308.46 162.663C1302.77 162.524 1297.01 162.455 1291.18 162.455C1284.38 162.455 1278.06 162.524 1272.23 162.663C1266.54 162.663 1261.89 162.802 1258.28 163.08V158.91C1262.72 158.632 1266.05 158.075 1268.27 157.241C1270.5 156.407 1271.95 154.739 1272.65 152.236C1273.48 149.734 1273.9 145.98 1273.9 140.975V37.5377C1273.9 32.3936 1273.48 28.6399 1272.65 26.2764C1271.95 23.7739 1270.43 22.1055 1268.07 21.2714C1265.85 20.2982 1262.58 19.742 1258.28 19.603V15.4322C1261.89 15.5712 1266.54 15.7102 1272.23 15.8493C1278.06 15.9883 1284.38 16.0578 1291.18 16.0578C1297.01 16.0578 1302.77 15.9883 1308.46 15.8493C1314.15 15.7102 1318.87 15.5712 1322.62 15.4322Z" fill="#C1CAD6"/>
<path d="M1473.76 15.4322V19.603C1469.32 20.1591 1465.99 21.3409 1463.77 23.1483C1461.55 24.8166 1460.02 27.5276 1459.19 31.2814C1458.5 35.0352 1458.15 40.3183 1458.15 47.1306V163.497C1456.48 163.358 1454.75 163.289 1452.94 163.289C1451.28 163.289 1449.47 163.358 1447.53 163.497L1357.17 48.799V128.879C1357.17 136.526 1357.59 142.435 1358.42 146.606C1359.25 150.637 1361.06 153.557 1363.83 155.364C1366.75 157.033 1371.26 158.214 1377.37 158.91V163.08C1374.73 162.802 1371.26 162.663 1366.96 162.663C1362.65 162.524 1358.63 162.455 1354.88 162.455C1351.69 162.455 1348.43 162.524 1345.1 162.663C1341.76 162.663 1338.99 162.802 1336.77 163.08V158.91C1341.21 158.214 1344.54 157.033 1346.76 155.364C1348.98 153.696 1350.44 150.985 1351.13 147.231C1351.97 143.338 1352.38 138.055 1352.38 131.382V37.5377C1352.38 32.3936 1351.97 28.6399 1351.13 26.2764C1350.44 23.7739 1348.91 22.1055 1346.55 21.2714C1344.33 20.2982 1341.07 19.742 1336.77 19.603V15.4322C1338.99 15.5712 1341.76 15.7102 1345.1 15.8493C1348.43 15.9883 1351.69 16.0578 1354.88 16.0578C1358.21 16.0578 1361.41 15.9883 1364.46 15.8493C1367.51 15.7102 1370.29 15.5712 1372.79 15.4322L1453.36 114.907V49.6332C1453.36 41.9866 1452.94 36.1474 1452.11 32.1156C1451.28 27.9447 1449.4 24.9556 1446.49 23.1483C1443.71 21.3409 1439.27 20.1591 1433.17 19.603V15.4322C1435.8 15.5712 1439.27 15.7102 1443.57 15.8493C1447.88 15.9883 1451.9 16.0578 1455.65 16.0578C1458.98 16.0578 1462.24 15.9883 1465.44 15.8493C1468.77 15.7102 1471.54 15.5712 1473.76 15.4322Z" fill="#C1CAD6"/>
<path d="M1598.2 15.4322C1597.65 21.5494 1597.23 27.4581 1596.95 33.1583C1596.81 38.8585 1596.74 43.2379 1596.74 46.2965C1596.74 49.0771 1596.81 51.7186 1596.95 54.2211C1597.09 56.7236 1597.23 58.8091 1597.37 60.4774H1592.58C1591.19 50.3283 1589.04 42.3342 1586.13 36.495C1583.21 30.5168 1579.39 26.3459 1574.67 23.9824C1570.09 21.4799 1564.68 20.2286 1558.44 20.2286H1549.9C1545.87 20.2286 1542.82 20.5762 1540.74 21.2714C1538.66 21.9665 1537.27 23.3568 1536.57 25.4422C1535.88 27.5276 1535.53 30.7253 1535.53 35.0352V143.477C1535.53 147.787 1535.88 150.985 1536.57 153.07C1537.27 155.156 1538.66 156.546 1540.74 157.241C1542.82 157.936 1545.87 158.284 1549.9 158.284H1560.1C1566.35 158.284 1571.83 156.963 1576.55 154.322C1581.41 151.541 1585.5 146.884 1588.83 140.349C1592.3 133.815 1594.94 124.987 1596.74 113.864H1601.53C1601.12 118.313 1600.91 124.152 1600.91 131.382C1600.91 134.58 1600.98 139.098 1601.12 144.937C1601.26 150.776 1601.67 156.824 1602.37 163.08C1595.29 162.802 1587.31 162.663 1578.42 162.663C1569.54 162.524 1561.63 162.455 1554.69 162.455C1551.22 162.455 1546.78 162.455 1541.36 162.455C1535.95 162.455 1530.12 162.524 1523.87 162.663C1517.63 162.663 1511.31 162.733 1504.93 162.872C1498.54 162.872 1492.5 162.941 1486.81 163.08V158.91C1491.26 158.632 1494.59 158.075 1496.81 157.241C1499.03 156.407 1500.49 154.739 1501.18 152.236C1502.01 149.734 1502.43 145.98 1502.43 140.975V37.5377C1502.43 32.3936 1502.01 28.6399 1501.18 26.2764C1500.49 23.7739 1498.96 22.1055 1496.6 21.2714C1494.38 20.2982 1491.12 19.742 1486.81 19.603V15.4322C1492.5 15.5712 1498.54 15.7102 1504.93 15.8493C1511.31 15.8493 1517.63 15.9188 1523.87 16.0578C1530.12 16.0578 1535.95 16.0578 1541.36 16.0578C1546.78 16.0578 1551.22 16.0578 1554.69 16.0578C1561.07 16.0578 1568.29 16.0578 1576.34 16.0578C1584.53 15.9188 1591.82 15.7102 1598.2 15.4322ZM1565.72 86.7538C1565.72 86.7538 1565.72 87.4489 1565.72 88.8392C1565.72 90.2295 1565.72 90.9246 1565.72 90.9246H1529.29C1529.29 90.9246 1529.29 90.2295 1529.29 88.8392C1529.29 87.4489 1529.29 86.7538 1529.29 86.7538H1565.72ZM1571.76 59.2261C1571.2 67.1508 1570.93 73.1985 1570.93 77.3693C1571.07 81.5402 1571.14 85.3635 1571.14 88.8392C1571.14 92.3149 1571.2 96.1382 1571.34 100.309C1571.48 104.48 1571.83 110.528 1572.38 118.452H1567.6C1566.9 113.586 1565.58 109.068 1563.64 104.897C1561.84 100.726 1559.2 97.3895 1555.73 94.8869C1552.26 92.2454 1547.75 90.9246 1542.2 90.9246V86.7538C1546.36 86.7538 1549.9 85.9196 1552.81 84.2513C1555.73 82.4439 1558.09 80.1499 1559.89 77.3693C1561.84 74.4498 1563.36 71.3911 1564.47 68.1935C1565.58 64.9958 1566.42 62.0067 1566.97 59.2261H1571.76Z" fill="#C1CAD6"/>
<path d="M1855.35 15.4322V19.603C1852.29 20.7153 1849.1 23.1482 1845.77 26.902C1842.44 30.5168 1839.52 36.356 1837.02 44.4196L1800.38 163.497C1799.27 163.358 1798.09 163.289 1796.84 163.289C1795.59 163.289 1794.34 163.289 1793.09 163.289C1791.84 163.289 1790.6 163.289 1789.35 163.289C1788.1 163.289 1786.92 163.358 1785.81 163.497L1742.08 30.8643C1740.7 26.5544 1738.96 23.6348 1736.88 22.1055C1734.94 20.5762 1732.85 19.742 1730.63 19.603V15.4322C1734.52 15.5712 1739.1 15.7102 1744.38 15.8493C1749.79 15.9883 1755.13 16.0578 1760.41 16.0578C1766.51 16.0578 1772.2 15.9883 1777.48 15.8493C1782.89 15.7102 1787.19 15.5712 1790.39 15.4322V19.603C1786.22 19.742 1782.89 20.2286 1780.39 21.0628C1778.03 21.897 1776.65 23.4958 1776.23 25.8593C1775.95 28.2228 1776.65 31.9766 1778.31 37.1206L1807.88 127.628L1803.09 136.178L1826.61 61.3116C1829.95 50.7454 1831.54 42.4732 1831.4 36.495C1831.26 30.5168 1829.67 26.2764 1826.61 23.7739C1823.56 21.1323 1819.19 19.742 1813.5 19.603V15.4322C1818.22 15.5712 1822.66 15.7102 1826.82 15.8493C1830.99 15.9883 1835.15 16.0578 1839.31 16.0578C1842.51 16.0578 1845.42 15.9883 1848.06 15.8493C1850.83 15.7102 1853.26 15.5712 1855.35 15.4322ZM1706.69 15.4322V19.603C1703.91 20.0201 1701.97 21.0628 1700.86 22.7312C1699.75 24.2605 1699.26 26.3459 1699.4 28.9874C1699.68 31.49 1700.31 34.201 1701.28 37.1206L1733.13 129.714L1727.51 137.221L1754.16 59.2261L1757.08 64.8568L1724.39 163.497C1723.28 163.358 1722.1 163.289 1720.85 163.289C1719.6 163.289 1718.35 163.289 1717.1 163.289C1715.85 163.289 1714.6 163.289 1713.35 163.289C1712.1 163.289 1710.92 163.358 1709.81 163.497L1663.18 32.9498C1661.37 27.8057 1659.22 24.33 1656.72 22.5226C1654.36 20.7152 1652.14 19.742 1650.06 19.603V15.4322C1654.22 15.5712 1659.15 15.7102 1664.84 15.8493C1670.53 15.9883 1675.95 16.0578 1681.08 16.0578C1686.63 16.0578 1691.56 15.9883 1695.86 15.8493C1700.31 15.7102 1703.91 15.5712 1706.69 15.4322Z" fill="#C1CAD6"/>
<path d="M1972.52 15.4322C1971.96 21.5494 1971.54 27.4581 1971.27 33.1583C1971.13 38.8585 1971.06 43.2379 1971.06 46.2965C1971.06 49.0771 1971.13 51.7186 1971.27 54.2211C1971.41 56.7236 1971.54 58.8091 1971.68 60.4774H1966.89C1965.51 50.3283 1963.35 42.3342 1960.44 36.495C1957.53 30.5168 1953.71 26.3459 1948.99 23.9824C1944.41 21.4799 1939 20.2286 1932.75 20.2286H1924.21C1920.19 20.2286 1917.13 20.5762 1915.05 21.2714C1912.97 21.9665 1911.58 23.3568 1910.89 25.4422C1910.19 27.5276 1909.85 30.7253 1909.85 35.0352V143.477C1909.85 147.787 1910.19 150.985 1910.89 153.07C1911.58 155.156 1912.97 156.546 1915.05 157.241C1917.13 157.936 1920.19 158.284 1924.21 158.284H1934.42C1940.66 158.284 1946.14 156.963 1950.86 154.322C1955.72 151.541 1959.82 146.884 1963.15 140.349C1966.62 133.815 1969.25 124.987 1971.06 113.864H1975.85C1975.43 118.313 1975.22 124.152 1975.22 131.382C1975.22 134.58 1975.29 139.098 1975.43 144.937C1975.57 150.776 1975.99 156.824 1976.68 163.08C1969.6 162.802 1961.62 162.663 1952.74 162.663C1943.85 162.524 1935.94 162.455 1929 162.455C1925.53 162.455 1921.09 162.455 1915.68 162.455C1910.26 162.455 1904.43 162.524 1898.19 162.663C1891.94 162.663 1885.63 162.733 1879.24 162.872C1872.86 162.872 1866.82 162.941 1861.13 163.08V158.91C1865.57 158.632 1868.9 158.075 1871.12 157.241C1873.34 156.407 1874.8 154.739 1875.49 152.236C1876.33 149.734 1876.74 145.98 1876.74 140.975V37.5377C1876.74 32.3936 1876.33 28.6399 1875.49 26.2764C1874.8 23.7739 1873.27 22.1055 1870.91 21.2714C1868.69 20.2982 1865.43 19.742 1861.13 19.603V15.4322C1866.82 15.5712 1872.86 15.7102 1879.24 15.8493C1885.63 15.8493 1891.94 15.9188 1898.19 16.0578C1904.43 16.0578 1910.26 16.0578 1915.68 16.0578C1921.09 16.0578 1925.53 16.0578 1929 16.0578C1935.39 16.0578 1942.6 16.0578 1950.65 16.0578C1958.84 15.9188 1966.13 15.7102 1972.52 15.4322ZM1940.04 86.7538C1940.04 86.7538 1940.04 87.4489 1940.04 88.8392C1940.04 90.2295 1940.04 90.9246 1940.04 90.9246H1903.6C1903.6 90.9246 1903.6 90.2295 1903.6 88.8392C1903.6 87.4489 1903.6 86.7538 1903.6 86.7538H1940.04ZM1946.07 59.2261C1945.52 67.1508 1945.24 73.1985 1945.24 77.3693C1945.38 81.5402 1945.45 85.3635 1945.45 88.8392C1945.45 92.3149 1945.52 96.1382 1945.66 100.309C1945.8 104.48 1946.14 110.528 1946.7 118.452H1941.91C1941.22 113.586 1939.9 109.068 1937.95 104.897C1936.15 100.726 1933.51 97.3895 1930.04 94.8869C1926.57 92.2454 1922.06 90.9246 1916.51 90.9246V86.7538C1920.67 86.7538 1924.21 85.9196 1927.13 84.2513C1930.04 82.4439 1932.4 80.1499 1934.21 77.3693C1936.15 74.4498 1937.68 71.3911 1938.79 68.1935C1939.9 64.9958 1940.73 62.0067 1941.29 59.2261H1946.07Z" fill="#C1CAD6"/>
<path d="M2103.08 15.0151L2153.68 145.563C2155.62 150.568 2157.77 154.044 2160.13 155.99C2162.63 157.797 2164.85 158.771 2166.79 158.91V163.08C2162.63 162.802 2157.7 162.663 2152.01 162.663C2146.46 162.524 2140.84 162.455 2135.15 162.455C2128.76 162.455 2122.72 162.524 2117.03 162.663C2111.34 162.663 2106.83 162.802 2103.5 163.08V158.91C2110.58 158.632 2115.02 157.45 2116.83 155.364C2118.77 153.14 2118.35 148.482 2115.58 141.392L2080.18 44.4196L2083.93 38.9975L2052.28 121.58C2049.23 129.227 2047.36 135.483 2046.66 140.349C2046.11 145.215 2046.45 148.969 2047.7 151.611C2049.09 154.252 2051.24 156.129 2054.16 157.241C2057.21 158.214 2060.82 158.771 2064.98 158.91V163.08C2060.4 162.802 2056.03 162.663 2051.87 162.663C2047.7 162.524 2043.47 162.455 2039.17 162.455C2036.11 162.455 2033.2 162.524 2030.42 162.663C2027.78 162.663 2025.42 162.802 2023.34 163.08V158.91C2026.26 158.353 2029.24 156.477 2032.3 153.279C2035.35 150.081 2038.33 144.659 2041.25 137.013L2088.72 15.0151C2090.94 15.1541 2093.3 15.2236 2095.8 15.2236C2098.43 15.2236 2100.86 15.1541 2103.08 15.0151ZM2117.66 103.02V107.191H2055.61L2057.7 103.02H2117.66Z" fill="#C1CAD6"/>
<path d="M2168.35 15.4322C2171.82 15.5712 2176.47 15.7102 2182.3 15.8493C2188.26 15.9883 2194.16 16.0578 2199.99 16.0578C2206.66 16.0578 2213.11 15.9883 2219.36 15.8493C2225.6 15.7102 2230.04 15.6407 2232.68 15.6407C2245.59 15.6407 2256.28 17.1005 2264.74 20.0201C2273.35 22.8007 2279.73 26.902 2283.9 32.3241C2288.2 37.7462 2290.35 44.2806 2290.35 51.9271C2290.35 56.6541 2289.38 61.4506 2287.44 66.3166C2285.49 71.0436 2282.16 75.4925 2277.44 79.6633C2272.86 83.6951 2266.55 86.9623 2258.5 89.4648C2250.45 91.8283 2240.31 93.01 2228.1 93.01H2208.11V88.8392H2226.02C2234.21 88.8392 2240.38 87.3099 2244.55 84.2513C2248.85 81.0536 2251.77 76.8828 2253.29 71.7387C2254.96 66.4556 2255.79 60.6164 2255.79 54.2211C2255.79 43.2379 2253.85 34.7571 2249.96 28.7789C2246.07 22.6616 2239.41 19.603 2229.97 19.603C2224.56 19.603 2221.02 20.7848 2219.36 23.1483C2217.83 25.5117 2217.07 30.3082 2217.07 37.5377V140.975C2217.07 145.98 2217.41 149.734 2218.11 152.236C2218.94 154.739 2220.47 156.407 2222.69 157.241C2224.91 158.075 2228.24 158.632 2232.68 158.91V163.08C2228.93 162.802 2224.21 162.663 2218.52 162.663C2212.83 162.524 2207.07 162.455 2201.24 162.455C2194.58 162.455 2188.26 162.524 2182.3 162.663C2176.47 162.663 2171.82 162.802 2168.35 163.08V158.91C2172.79 158.632 2176.12 158.075 2178.34 157.241C2180.56 156.407 2182.02 154.739 2182.71 152.236C2183.55 149.734 2183.96 145.98 2183.96 140.975V37.5377C2183.96 32.3936 2183.55 28.6399 2182.71 26.2764C2182.02 23.7739 2180.49 22.1055 2178.13 21.2714C2175.91 20.2982 2172.65 19.742 2168.35 19.603V15.4322ZM2207.7 89.4648C2213.67 89.6039 2218.8 89.8819 2223.1 90.299C2227.55 90.7161 2231.43 91.1332 2234.76 91.5503C2238.09 91.8283 2241.08 92.0368 2243.72 92.1759C2256.35 93.2881 2265.65 95.9992 2271.61 100.309C2277.72 104.619 2281.68 111.084 2283.48 119.704L2288.27 141.183C2289.52 146.745 2290.84 150.637 2292.23 152.862C2293.61 155.086 2295.63 156.198 2298.26 156.198C2300.07 156.059 2301.53 155.642 2302.64 154.947C2303.89 154.113 2305.2 152.931 2306.59 151.402L2309.51 153.905C2305.76 158.214 2301.73 161.273 2297.43 163.08C2293.13 165.027 2287.92 166 2281.82 166C2274.32 166 2268.14 164.401 2263.29 161.204C2258.43 158.006 2255.24 152.097 2253.71 143.477L2249.96 122.623C2248.99 116.784 2247.81 111.709 2246.42 107.399C2245.03 102.951 2243.09 99.4749 2240.59 96.9724C2238.23 94.3308 2234.9 93.01 2230.6 93.01H2208.11L2207.7 89.4648Z" fill="#C1CAD6"/>
<path d="M2423.89 15.4322C2423.33 21.5494 2422.92 27.4581 2422.64 33.1583C2422.5 38.8585 2422.43 43.2379 2422.43 46.2965C2422.43 49.0771 2422.5 51.7186 2422.64 54.2211C2422.78 56.7236 2422.92 58.8091 2423.06 60.4774H2418.27C2416.88 50.3283 2414.73 42.3342 2411.81 36.495C2408.9 30.5168 2405.08 26.3459 2400.36 23.9824C2395.78 21.4799 2390.37 20.2286 2384.12 20.2286H2375.59C2371.56 20.2286 2368.51 20.5762 2366.43 21.2714C2364.34 21.9665 2362.96 23.3568 2362.26 25.4422C2361.57 27.5276 2361.22 30.7253 2361.22 35.0352V143.477C2361.22 147.787 2361.57 150.985 2362.26 153.07C2362.96 155.156 2364.34 156.546 2366.43 157.241C2368.51 157.936 2371.56 158.284 2375.59 158.284H2385.79C2392.03 158.284 2397.52 156.963 2402.24 154.322C2407.09 151.541 2411.19 146.884 2414.52 140.349C2417.99 133.815 2420.63 124.987 2422.43 113.864H2427.22C2426.8 118.313 2426.6 124.152 2426.6 131.382C2426.6 134.58 2426.66 139.098 2426.8 144.937C2426.94 150.776 2427.36 156.824 2428.05 163.08C2420.97 162.802 2412.99 162.663 2404.11 162.663C2395.23 162.524 2387.31 162.455 2380.37 162.455C2376.9 162.455 2372.46 162.455 2367.05 162.455C2361.64 162.455 2355.81 162.524 2349.56 162.663C2343.31 162.663 2337 162.733 2330.61 162.872C2324.23 162.872 2318.19 162.941 2312.5 163.08V158.91C2316.94 158.632 2320.27 158.075 2322.49 157.241C2324.72 156.407 2326.17 154.739 2326.87 152.236C2327.7 149.734 2328.12 145.98 2328.12 140.975V37.5377C2328.12 32.3936 2327.7 28.6399 2326.87 26.2764C2326.17 23.7739 2324.65 22.1055 2322.29 21.2714C2320.07 20.2982 2316.8 19.742 2312.5 19.603V15.4322C2318.19 15.5712 2324.23 15.7102 2330.61 15.8493C2337 15.8493 2343.31 15.9188 2349.56 16.0578C2355.81 16.0578 2361.64 16.0578 2367.05 16.0578C2372.46 16.0578 2376.9 16.0578 2380.37 16.0578C2386.76 16.0578 2393.98 16.0578 2402.03 16.0578C2410.22 15.9188 2417.5 15.7102 2423.89 15.4322ZM2391.41 86.7538C2391.41 86.7538 2391.41 87.4489 2391.41 88.8392C2391.41 90.2295 2391.41 90.9246 2391.41 90.9246H2354.97C2354.97 90.9246 2354.97 90.2295 2354.97 88.8392C2354.97 87.4489 2354.97 86.7538 2354.97 86.7538H2391.41ZM2397.45 59.2261C2396.89 67.1508 2396.61 73.1985 2396.61 77.3693C2396.75 81.5402 2396.82 85.3635 2396.82 88.8392C2396.82 92.3149 2396.89 96.1382 2397.03 100.309C2397.17 104.48 2397.52 110.528 2398.07 118.452H2393.28C2392.59 113.586 2391.27 109.068 2389.33 104.897C2387.52 100.726 2384.89 97.3895 2381.42 94.8869C2377.95 92.2454 2373.43 90.9246 2367.88 90.9246V86.7538C2372.05 86.7538 2375.59 85.9196 2378.5 84.2513C2381.42 82.4439 2383.78 80.1499 2385.58 77.3693C2387.52 74.4498 2389.05 71.3911 2390.16 68.1935C2391.27 64.9958 2392.1 62.0067 2392.66 59.2261H2397.45Z" fill="#C1CAD6"/>
<path d="M2557.38 15.4322V19.603C2552.94 19.742 2549.54 20.2982 2547.18 21.2714C2544.96 22.1055 2543.5 23.7739 2542.81 26.2764C2542.12 28.6399 2541.77 32.3936 2541.77 37.5377V140.975C2541.77 145.98 2542.12 149.734 2542.81 152.236C2543.64 154.739 2545.17 156.407 2547.39 157.241C2549.61 158.075 2552.94 158.632 2557.38 158.91V163.08C2553.64 162.802 2548.92 162.663 2543.23 162.663C2537.54 162.524 2531.78 162.455 2525.95 162.455C2519.14 162.455 2512.83 162.524 2507 162.663C2501.31 162.663 2496.66 162.802 2493.05 163.08V158.91C2497.49 158.632 2500.82 158.075 2503.04 157.241C2505.26 156.407 2506.72 154.739 2507.42 152.236C2508.25 149.734 2508.67 145.98 2508.67 140.975V37.5377C2508.67 32.3936 2508.25 28.6399 2507.42 26.2764C2506.72 23.7739 2505.2 22.1055 2502.84 21.2714C2500.61 20.2982 2497.35 19.742 2493.05 19.603V15.4322C2496.66 15.5712 2501.31 15.7102 2507 15.8493C2512.83 15.9883 2519.14 16.0578 2525.95 16.0578C2531.78 16.0578 2537.54 15.9883 2543.23 15.8493C2548.92 15.7102 2553.64 15.5712 2557.38 15.4322Z" fill="#C1CAD6"/>
<path d="M2697.92 15.4322C2697.36 22.5226 2696.94 29.335 2696.67 35.8694C2696.53 42.4037 2696.46 47.4087 2696.46 50.8844C2696.46 53.9431 2696.53 56.8626 2696.67 59.6432C2696.8 62.4238 2696.94 64.7873 2697.08 66.7337H2692.29C2690.07 55.0553 2687.23 45.8099 2683.76 38.9975C2680.43 32.1851 2676.4 27.3886 2671.68 24.608C2666.96 21.6884 2661.41 20.2286 2655.03 20.2286H2650.24V139.307C2650.24 144.868 2650.79 149.039 2651.9 151.819C2653.15 154.6 2655.37 156.477 2658.57 157.45C2661.76 158.284 2666.41 158.771 2672.51 158.91V163.08C2668.21 162.941 2662.45 162.802 2655.23 162.663C2648.16 162.524 2640.73 162.455 2632.96 162.455C2625.32 162.455 2618.1 162.524 2611.3 162.663C2604.5 162.802 2599.02 162.941 2594.86 163.08V158.91C2601.1 158.771 2605.82 158.284 2609.01 157.45C2612.21 156.477 2614.36 154.6 2615.47 151.819C2616.58 149.039 2617.13 144.868 2617.13 139.307V20.2286H2612.55C2606.17 20.2286 2600.62 21.6884 2595.9 24.608C2591.18 27.3886 2587.15 32.1851 2583.82 38.9975C2580.49 45.6709 2577.58 54.9162 2575.08 66.7337H2570.29C2570.57 64.7873 2570.7 62.4238 2570.7 59.6432C2570.84 56.8626 2570.91 53.9431 2570.91 50.8844C2570.91 47.4087 2570.77 42.4037 2570.5 35.8694C2570.36 29.335 2570.01 22.5226 2569.46 15.4322C2575.84 15.5712 2582.78 15.7102 2590.28 15.8493C2597.91 15.9883 2605.54 16.0578 2613.18 16.0578C2620.81 16.0578 2627.68 16.0578 2633.79 16.0578C2640.04 16.0578 2646.91 16.0578 2654.4 16.0578C2662.04 16.0578 2669.67 15.9883 2677.3 15.8493C2684.94 15.7102 2691.81 15.5712 2697.92 15.4322Z" fill="#C1CAD6"/>
<path d="M2733.3 0C2737.74 0 2741.7 1.80737 2745.17 5.42211C2748.64 8.89783 2750.38 13.9029 2750.38 20.4372C2750.38 26.4154 2749.68 33.1583 2748.29 40.6658C2746.91 48.1734 2745.24 56.3065 2743.3 65.0653C2741.35 73.6851 2739.62 82.7915 2738.09 92.3844C2736.56 101.977 2735.59 111.918 2735.18 122.206H2731.43C2731.15 111.918 2730.18 101.977 2728.51 92.3844C2726.99 82.7915 2725.25 73.6851 2723.31 65.0653C2721.5 56.3065 2719.84 48.1734 2718.31 40.6658C2716.92 33.1583 2716.23 26.4154 2716.23 20.4372C2716.23 13.9029 2717.83 8.89783 2721.02 5.42211C2724.35 1.80737 2728.44 0 2733.3 0ZM2733.3 133.884C2738.72 133.884 2743.02 135.344 2746.21 138.264C2749.4 141.044 2751 144.937 2751 149.942C2751 154.947 2749.4 158.91 2746.21 161.829C2743.02 164.61 2738.72 166 2733.3 166C2727.89 166 2723.59 164.61 2720.39 161.829C2717.2 158.91 2715.61 154.947 2715.61 149.942C2715.61 144.937 2717.2 141.044 2720.39 138.264C2723.59 135.344 2727.89 133.884 2733.3 133.884Z" fill="#C1CAD6"/>
</g>
</svg>
